<?xml version="1.0" standalone="no"?>
<!DOCTYPE svg PUBLIC "-//W3C//DTD SVG 1.1//EN" "http://www.w3.org/Graphics/SVG/1.1/DTD/svg11.dtd" >
<svg xmlns="http://www.w3.org/2000/svg" xmlns:xlink="http://www.w3.org/1999/xlink" version="1.1">
<metadata>
Created by FontForge 20170910 at Fri Feb  7 16:01:05 2014
 By Jimmy Wärting
 
</metadata>
<defs>
<font id="Aspira-Medium" horiz-adv-x="1708" >
  <font-face 
    font-family="Aspira Medium"
    font-weight="550"
    font-stretch="normal"
    units-per-em="3333"
    panose-1="0 0 0 0 0 0 0 0 0 0"
    ascent="2591"
    descent="-742"
    x-height="1630"
    cap-height="2318"
    bbox="-506 -857 4060 3182"
    underline-thickness="167"
    underline-position="-394"
    stemh="289"
    stemv="320"
    unicode-range="U+0020-FB04"
  />
<missing-glyph horiz-adv-x="2092" 
d="M230 0v2355h1632v-2355h-1632zM393 320l555 858l-555 857v-1715zM491 168h1110l-555 858zM1046 1329l555 858h-1110zM1698 320v1715l-554 -857z" />
    <glyph glyph-name="f_b" unicode="fb" horiz-adv-x="3128" 
d="M61 1354v276h298v243c0 358 208 552 567 552c78 0 150 -9 219 -22l-39 -264c-48 7 -97 13 -148 13c-221 0 -279 -111 -279 -332v-190h427v-276h-427v-1354h-320v1354h-298zM2231 1663c460 0 765 -366 765 -855c0 -518 -342 -841 -759 -841c-228 0 -437 97 -569 279
l-30 -246h-265v2362l320 63v-1008h2c120 168 324 246 536 246zM2673 814c0 345 -205 566 -493 566c-297 0 -496 -234 -496 -560c0 -296 165 -571 488 -571c281 0 501 206 501 565z" />
    <glyph glyph-name="f_f" unicode="ff" horiz-adv-x="2208" 
d="M61 1354v276h298v243c0 358 208 552 567 552c97 0 186 -14 270 -33l-39 -261c-64 10 -130 21 -199 21c-221 0 -279 -111 -279 -332v-190h327v-276h-327v-1354h-320v1354h-298zM1423 1354h-298v276h298v243c0 358 208 552 567 552c97 0 186 -14 270 -33l-39 -261
c-64 10 -130 21 -199 21c-221 0 -279 -111 -279 -332v-190h427v-276h-427v-1354h-320v1354z" />
    <glyph glyph-name="f_f_b" unicode="ffb" horiz-adv-x="4192" 
d="M61 1354v276h298v243c0 358 208 552 567 552c97 0 186 -14 270 -33l-39 -261c-64 10 -130 21 -199 21c-221 0 -279 -111 -279 -332v-190h327v-276h-327v-1354h-320v1354h-298zM1423 1354h-298v276h298v243c0 358 208 552 567 552c78 0 150 -9 219 -22l-39 -264
c-48 7 -97 13 -148 13c-221 0 -279 -111 -279 -332v-190h427v-276h-427v-1354h-320v1354zM3295 1663c460 0 765 -366 765 -855c0 -518 -342 -841 -759 -841c-228 0 -437 97 -569 279l-30 -246h-265v2362l320 63v-1008h2c120 168 324 246 536 246zM3737 814
c0 345 -205 566 -493 566c-297 0 -496 -234 -496 -560c0 -296 165 -571 488 -571c281 0 501 206 501 565z" />
    <glyph glyph-name="f_f_h" unicode="ffh" horiz-adv-x="4128" 
d="M61 1354v276h298v243c0 358 208 552 567 552c97 0 186 -14 270 -33l-39 -261c-64 10 -130 21 -199 21c-221 0 -279 -111 -279 -332v-190h327v-276h-327v-1354h-320v1354h-298zM1423 1354h-298v276h298v243c0 358 208 552 567 552c78 0 150 -9 219 -22l-39 -264
c-48 7 -97 13 -148 13c-221 0 -279 -111 -279 -332v-190h427v-276h-427v-1354h-320v1354zM3598 0v933c0 258 -123 443 -384 443c-256 0 -457 -178 -457 -436v-940h-320v2362l320 63v-1005c120 162 325 243 540 243c396 0 621 -273 621 -674v-989h-320z" />
    <glyph glyph-name="f_f_i" unicode="ffi" horiz-adv-x="2985" 
d="M61 1354v276h298v243c0 358 208 552 567 552c97 0 186 -14 270 -33l-39 -261c-64 10 -130 21 -199 21c-221 0 -279 -111 -279 -332v-190h327v-276h-327v-1354h-320v1354h-298zM1423 1354h-298v276h298v243c0 358 208 552 567 552c78 0 150 -9 219 -22l-39 -264
c-48 7 -97 13 -148 13c-221 0 -279 -111 -279 -332v-190h427v-276h-427v-1354h-320v1354zM2387 2164c0 116 94 210 210 210s210 -94 210 -210s-94 -210 -210 -210s-210 94 -210 210zM2437 1630h319v-1630h-319v1630z" />
    <glyph glyph-name="f_f_j" unicode="ffj" horiz-adv-x="2986" 
d="M61 1354v276h298v243c0 358 208 552 567 552c97 0 186 -14 270 -33l-39 -261c-64 10 -130 21 -199 21c-221 0 -279 -111 -279 -332v-190h327v-276h-327v-1354h-320v1354h-298zM1423 1354h-298v276h298v243c0 358 208 552 567 552c78 0 150 -9 219 -22l-39 -264
c-48 7 -97 13 -148 13c-221 0 -279 -111 -279 -332v-190h427v-276h-427v-1354h-320v1354zM2387 2164c0 116 94 210 210 210s210 -94 210 -210s-94 -210 -210 -210s-210 94 -210 210zM2436 1630h321v-1792c0 -374 -301 -556 -596 -556l-39 261c204 47 314 121 314 406v1681z
" />
    <glyph glyph-name="f_f_k" unicode="ffk" horiz-adv-x="3840" 
d="M61 1354v276h298v243c0 358 208 552 567 552c97 0 186 -14 270 -33l-39 -261c-64 10 -130 21 -199 21c-221 0 -279 -111 -279 -332v-190h327v-276h-327v-1354h-320v1354h-298zM1423 1354h-298v276h298v243c0 358 208 552 567 552c78 0 150 -9 219 -22l-39 -264
c-48 7 -97 13 -148 13c-221 0 -279 -111 -279 -332v-190h427v-276h-427v-1354h-320v1354zM2756 2425v-1398h85l551 603h397l-673 -738l732 -892h-396l-610 745h-86v-745h-319v2362z" />
    <glyph glyph-name="f_f_l" unicode="ffl" horiz-adv-x="3003" 
d="M61 1354v276h298v243c0 358 208 552 567 552c97 0 186 -14 270 -33l-39 -261c-64 10 -130 21 -199 21c-221 0 -279 -111 -279 -332v-190h327v-276h-327v-1354h-320v1354h-298zM1423 1354h-298v276h298v243c0 358 208 552 567 552c78 0 150 -9 219 -22l-39 -264
c-48 7 -97 13 -148 13c-221 0 -279 -111 -279 -332v-190h427v-276h-427v-1354h-320v1354zM2749 2425v-1968c0 -123 22 -188 114 -235l-42 -255c-204 0 -390 120 -390 376v2019z" />
    <glyph glyph-name="f_h" unicode="fh" horiz-adv-x="3064" 
d="M61 1354v276h298v243c0 358 208 552 567 552c78 0 150 -9 219 -22l-39 -264c-48 7 -97 13 -148 13c-221 0 -279 -111 -279 -332v-190h427v-276h-427v-1354h-320v1354h-298zM2534 0v933c0 258 -123 443 -384 443c-256 0 -457 -178 -457 -436v-940h-320v2362l320 63v-1005
c120 162 325 243 540 243c396 0 621 -273 621 -674v-989h-320z" />
    <glyph glyph-name="f_i" unicode="fi" horiz-adv-x="1921" 
d="M61 1354v276h298v243c0 358 208 552 567 552c78 0 150 -9 219 -22l-39 -264c-48 7 -97 13 -148 13c-221 0 -279 -111 -279 -332v-190h427v-276h-427v-1354h-320v1354h-298zM1323 2164c0 116 94 210 210 210s210 -94 210 -210s-94 -210 -210 -210s-210 94 -210 210z
M1373 1630h319v-1630h-319v1630z" />
    <glyph glyph-name="f_j" unicode="fj" horiz-adv-x="1922" 
d="M61 1354v276h298v243c0 358 208 552 567 552c78 0 150 -9 219 -22l-39 -264c-48 7 -97 13 -148 13c-221 0 -279 -111 -279 -332v-190h427v-276h-427v-1354h-320v1354h-298zM1323 2164c0 116 94 210 210 210s210 -94 210 -210s-94 -210 -210 -210s-210 94 -210 210z
M1372 1630h321v-1792c0 -374 -301 -556 -596 -556l-39 261c204 47 314 121 314 406v1681z" />
    <glyph glyph-name="f_k" unicode="fk" horiz-adv-x="2776" 
d="M61 1354v276h298v243c0 358 208 552 567 552c78 0 150 -9 219 -22l-39 -264c-48 7 -97 13 -148 13c-221 0 -279 -111 -279 -332v-190h427v-276h-427v-1354h-320v1354h-298zM1692 2425v-1398h85l551 603h397l-673 -738l732 -892h-396l-610 745h-86v-745h-319v2362z" />
    <glyph glyph-name="f_l" unicode="fl" horiz-adv-x="1939" 
d="M61 1354v276h298v243c0 358 208 552 567 552c78 0 150 -9 219 -22l-39 -264c-48 7 -97 13 -148 13c-221 0 -279 -111 -279 -332v-190h427v-276h-427v-1354h-320v1354h-298zM1685 2425v-1968c0 -123 22 -188 114 -235l-42 -255c-204 0 -390 120 -390 376v2019z" />
    <glyph glyph-name=".notdef" horiz-adv-x="2092" 
d="M230 0v2355h1632v-2355h-1632zM393 320l555 858l-555 857v-1715zM491 168h1110l-555 858zM1046 1329l555 858h-1110zM1698 320v1715l-554 -857z" />
    <glyph glyph-name="A" unicode="A" horiz-adv-x="2196" 
d="M1799 0l-222 617h-973l-219 -617h-337l858 2318h379l869 -2318h-355zM703 894h774l-389 1080z" />
    <glyph glyph-name="B" unicode="B" horiz-adv-x="2075" 
d="M298 2318h776c412 0 707 -226 707 -603c0 -236 -115 -407 -287 -490c254 -63 445 -272 445 -578c0 -385 -301 -647 -728 -647h-913v2318zM1118 1052h-497v-763h531c254 0 454 120 454 380s-201 383 -488 383zM1018 2031h-397v-702h421c223 0 414 118 414 363
c0 243 -189 339 -438 339z" />
    <glyph glyph-name="C" unicode="C" horiz-adv-x="2162" 
d="M1930 453l153 -239c-212 -163 -511 -247 -781 -247c-666 0 -1158 511 -1158 1182c0 683 509 1202 1174 1202c272 0 550 -87 762 -251l-150 -234c-163 124 -395 193 -600 193c-483 0 -853 -385 -853 -904c0 -514 362 -893 843 -893c212 0 457 74 610 191z" />
    <glyph glyph-name="D" unicode="D" horiz-adv-x="2356" 
d="M1089 0h-791v2318h794c723 0 1112 -511 1112 -1159c0 -659 -402 -1159 -1115 -1159zM626 289h402c550 0 847 289 847 869c0 596 -314 871 -835 871h-414v-1740z" />
    <glyph glyph-name="E" unicode="E" horiz-adv-x="1891" 
d="M298 0v2318h1429v-288h-1102v-718h960v-287h-960v-737h1131v-288h-1458z" />
    <glyph glyph-name="F" unicode="F" horiz-adv-x="1849" 
d="M625 978v-978h-327v2318h1441v-288h-1114v-766h927v-286h-927z" />
    <glyph glyph-name="G" unicode="G" horiz-adv-x="2438" 
d="M2005 926h-625v272h970c0 -726 -334 -1231 -1041 -1231c-705 0 -1165 501 -1165 1169c0 696 499 1215 1171 1215c275 0 554 -87 765 -251l-150 -234c-153 120 -385 193 -599 193c-502 0 -852 -401 -852 -901c0 -489 334 -902 820 -902c395 0 693 272 706 670z" />
    <glyph glyph-name="H" unicode="H" horiz-adv-x="2409" 
d="M298 0v2318h328v-1006h1156v1006h329v-2318h-329v1027h-1156v-1027h-328z" />
    <glyph glyph-name="I" unicode="I" horiz-adv-x="924" 
d="M298 0v2318h328v-2318h-328z" />
    <glyph glyph-name="J" unicode="J" horiz-adv-x="1633" 
d="M1033 732v1586h323v-1639c0 -407 -260 -712 -704 -712c-257 0 -489 102 -616 355l219 161c76 -132 199 -215 373 -215c235 0 405 151 405 464z" />
    <glyph glyph-name="K" unicode="K" horiz-adv-x="2018" 
d="M709 1078h-83v-1078h-328v2318h328v-935h87l848 935h393l-975 -1077l1081 -1241h-411z" />
    <glyph glyph-name="L" unicode="L" horiz-adv-x="1735" 
d="M298 0v2318h328v-2030h1067v-288h-1395z" />
    <glyph glyph-name="M" unicode="M" horiz-adv-x="3021" 
d="M348 2318h379l793 -1592l783 1592h370l93 -2318h-333l-69 1813l-735 -1506h-234l-749 1506l-70 -1813h-320z" />
    <glyph glyph-name="N" unicode="N" horiz-adv-x="2431" 
d="M607 1813l4 -1813h-313v2318h358l1170 -1824l-4 1824h311v-2318h-362z" />
    <glyph glyph-name="O" unicode="O" horiz-adv-x="2641" 
d="M1320 -33c-673 0 -1176 516 -1176 1193c0 686 516 1191 1181 1191c666 0 1173 -506 1173 -1188c0 -681 -506 -1196 -1178 -1196zM1320 258c487 0 842 387 842 901c0 516 -357 900 -842 900s-843 -383 -843 -900c0 -515 356 -901 843 -901z" />
    <glyph glyph-name="P" unicode="P" horiz-adv-x="2007" 
d="M621 830v-830h-323v2318h836c503 0 777 -322 777 -734c0 -427 -294 -754 -774 -754h-516zM621 1120h457c321 0 504 174 504 458c0 289 -189 451 -504 451h-457v-909z" />
    <glyph glyph-name="Q" unicode="Q" horiz-adv-x="2641" 
d="M1969 569c122 156 193 360 193 590c0 516 -357 900 -842 900s-843 -383 -843 -900c0 -515 356 -901 843 -901c154 0 295 38 416 108l-417 466l233 199zM2093 -33l-152 169c-178 -108 -390 -169 -621 -169c-673 0 -1176 516 -1176 1193c0 686 516 1191 1181 1191
c666 0 1173 -506 1173 -1188c0 -329 -118 -618 -315 -830l153 -169z" />
    <glyph glyph-name="R" unicode="R" horiz-adv-x="2075" 
d="M298 0v2318h825c487 0 777 -303 777 -708c0 -325 -187 -582 -498 -677l567 -933h-390l-520 894h-438v-894h-323zM621 1184h446c316 0 504 151 504 420c0 282 -206 425 -504 425h-446v-845z" />
    <glyph glyph-name="S" unicode="S" horiz-adv-x="1880" 
d="M262 491c188 -149 416 -231 651 -231c262 0 506 102 506 357c0 574 -1241 237 -1241 1063c0 432 339 671 774 671c264 0 547 -88 756 -250l-150 -234c-153 121 -395 195 -589 195c-245 0 -468 -117 -468 -355c0 -564 1246 -218 1246 -1059c0 -457 -369 -681 -823 -681
c-301 0 -575 98 -814 285z" />
    <glyph glyph-name="T" unicode="T" horiz-adv-x="1912" 
d="M1847 2318v-290h-727v-2028h-329v2028h-726v290h1782z" />
    <glyph glyph-name="U" unicode="U" horiz-adv-x="2345" 
d="M1751 827v1491h321v-1489c0 -520 -369 -862 -902 -862c-534 0 -897 342 -897 861v1490h329v-1491c0 -345 241 -566 577 -566s572 221 572 566z" />
    <glyph glyph-name="V" unicode="V" horiz-adv-x="2036" 
d="M417 2318l608 -1844l611 1844h338l-803 -2318h-308l-800 2318h354z" />
    <glyph glyph-name="W" unicode="W" horiz-adv-x="3174" 
d="M70 2318h353l545 -1834l471 1527h306l479 -1532l545 1839h339l-739 -2318h-317l-471 1488l-463 -1488h-316z" />
    <glyph glyph-name="X" unicode="X" horiz-adv-x="2086" 
d="M9 0l837 1193l-786 1125h394l594 -862l607 862h377l-792 -1111l831 -1207h-391l-643 943l-650 -943h-378z" />
    <glyph glyph-name="Y" unicode="Y" horiz-adv-x="2129" 
d="M2074 2318l-849 -1347v-971h-326v970l-832 1348h382l621 -1032l646 1032h358z" />
    <glyph glyph-name="Z" unicode="Z" horiz-adv-x="1914" 
d="M1795 287v-287h-1687v241l1251 1792h-1209v285h1626v-246l-1252 -1785h1271z" />
    <glyph glyph-name="a" unicode="a" horiz-adv-x="1770" 
d="M1631 201l-38 -234c-178 0 -361 78 -361 252l-2 1c-110 -170 -326 -253 -548 -253c-318 0 -582 170 -582 493c0 314 248 532 714 532c141 0 287 -20 395 -42v98c0 251 -173 345 -405 345c-169 0 -345 -50 -480 -123l-100 222c171 125 414 171 627 171
c431 0 672 -188 672 -563v-667c0 -123 24 -189 108 -232zM1209 708c-92 19 -235 39 -369 39c-301 0 -429 -101 -429 -268c0 -181 151 -252 305 -252c223 0 493 149 493 365v116z" />
    <glyph glyph-name="b" unicode="b" horiz-adv-x="1984" 
d="M494 0h-265v2362l320 63v-1008h2c120 168 324 246 536 246c460 0 765 -366 765 -855c0 -518 -342 -841 -759 -841c-228 0 -437 97 -569 279zM1028 249c281 0 501 206 501 565c0 345 -205 566 -493 566c-297 0 -496 -234 -496 -560c0 -296 165 -571 488 -571z" />
    <glyph glyph-name="c" unicode="c" horiz-adv-x="1615" 
d="M1382 367l157 -215c-164 -120 -362 -185 -567 -185c-426 0 -842 282 -842 838c0 532 382 858 848 858c190 0 391 -54 542 -164l-138 -229c-109 69 -258 112 -393 112c-309 0 -539 -227 -539 -567c0 -338 227 -566 533 -566c136 0 289 45 399 118z" />
    <glyph glyph-name="d" unicode="d" horiz-adv-x="1984" 
d="M1490 0l-30 246c-132 -182 -341 -279 -569 -279c-417 0 -759 323 -759 841c0 489 305 855 765 855c212 0 416 -78 536 -246h2v945l320 63v-2425h-265zM956 249c323 0 488 275 488 571c0 326 -199 560 -496 560c-288 0 -493 -221 -493 -566c0 -359 220 -565 501 -565z" />
    <glyph glyph-name="e" unicode="e" horiz-adv-x="1812" 
d="M1597 198c-157 -145 -390 -231 -636 -231c-457 0 -831 297 -831 837c0 526 356 859 808 859c468 0 765 -356 765 -814c0 -53 -4 -106 -8 -134h-1241c29 -297 232 -474 522 -474c169 0 345 60 474 159zM459 950h928c-18 235 -170 439 -446 439c-257 0 -444 -177 -482 -439
z" />
    <glyph glyph-name="f" unicode="f" horiz-adv-x="1144" 
d="M61 1354v276h298v243c0 358 208 552 567 552c97 0 186 -14 270 -33l-39 -261c-64 10 -130 21 -199 21c-221 0 -279 -111 -279 -332v-190h427v-276h-427v-1354h-320v1354h-298z" />
    <glyph glyph-name="g" unicode="g" horiz-adv-x="1979" 
d="M1751 1630v-1558c0 -507 -343 -790 -829 -790c-263 0 -487 83 -670 238l153 210c135 -102 313 -165 500 -165c302 0 527 164 527 562v144h-2c-116 -169 -337 -252 -551 -252c-417 0 -745 316 -745 817c0 531 367 827 764 827c219 0 435 -90 553 -271l29 238h271zM948 300
c312 0 487 243 487 544c0 308 -183 536 -485 536c-301 0 -494 -227 -494 -543c0 -319 196 -537 492 -537z" />
    <glyph glyph-name="h" unicode="h" horiz-adv-x="1920" 
d="M1710 0h-320v933c0 258 -123 443 -384 443c-256 0 -457 -178 -457 -436v-940h-320v2362l320 63v-1005c120 162 325 243 540 243c396 0 621 -273 621 -674v-989z" />
    <glyph glyph-name="i" unicode="i" horiz-adv-x="777" 
d="M389 1954c-116 0 -210 94 -210 210s94 210 210 210s210 -94 210 -210s-94 -210 -210 -210zM229 0v1630h319v-1630h-319z" />
    <glyph glyph-name="j" unicode="j" horiz-adv-x="778" 
d="M389 1954c-116 0 -210 94 -210 210s94 210 210 210s210 -94 210 -210s-94 -210 -210 -210zM228 -51v1681h321v-1792c0 -374 -301 -556 -596 -556l-39 261c204 47 314 121 314 406z" />
    <glyph glyph-name="k" unicode="k" horiz-adv-x="1632" 
d="M634 745h-86v-745h-319v2362l319 63v-1398h85l551 603h397l-673 -738l732 -892h-396z" />
    <glyph glyph-name="l" unicode="l" horiz-adv-x="795" 
d="M223 343v2019l318 63v-1968c0 -123 22 -188 114 -235l-42 -255c-204 0 -390 120 -390 376z" />
    <glyph glyph-name="m" unicode="m" horiz-adv-x="2872" 
d="M548 0h-320v1630h265l29 -234c105 173 299 267 505 267c214 0 411 -101 503 -298c122 200 329 298 565 298c397 0 565 -277 565 -674v-989h-320v974c0 245 -99 400 -337 402c-272 3 -400 -198 -400 -466v-910h-319v974c0 241 -99 402 -336 402
c-266 0 -400 -203 -400 -466v-910z" />
    <glyph glyph-name="n" unicode="n" horiz-adv-x="1900" 
d="M1690 0h-320v974c0 243 -136 402 -381 402c-270 0 -440 -194 -440 -466v-910h-321v1630h265l31 -236c126 177 327 269 556 269c394 0 610 -273 610 -674v-989z" />
    <glyph glyph-name="o" unicode="o" horiz-adv-x="1928" 
d="M960 -33c-471 0 -832 346 -832 846c0 502 363 850 838 850c471 0 834 -342 834 -843c0 -503 -367 -853 -840 -853zM960 248c291 0 515 237 515 570c0 330 -219 562 -511 562s-513 -231 -513 -564c0 -331 218 -568 509 -568z" />
    <glyph glyph-name="p" unicode="p" horiz-adv-x="1985" 
d="M493 1630l30 -246c132 182 341 279 569 279c417 0 759 -323 759 -841c0 -489 -305 -855 -765 -855c-212 0 -416 78 -536 246h-2v-868l-320 -63v2348h265zM1528 816c0 359 -220 565 -501 565c-323 0 -488 -275 -488 -571c0 -326 199 -560 496 -560c288 0 493 221 493 566z
" />
    <glyph glyph-name="q" unicode="q" horiz-adv-x="1984" 
d="M1756 1630v-2285l-320 -63v931h-2c-120 -168 -324 -246 -536 -246c-460 0 -765 366 -765 855c0 518 342 841 759 841c228 0 437 -97 569 -279l30 246h265zM949 250c297 0 496 234 496 560c0 296 -165 571 -488 571c-281 0 -501 -206 -501 -565c0 -345 205 -566 493 -566z
" />
    <glyph glyph-name="r" unicode="r" horiz-adv-x="1206" 
d="M229 0v1630h265l31 -254l2 -1c94 199 229 288 450 288c74 0 149 -10 217 -28l-49 -295c-62 19 -121 29 -184 29c-339 0 -414 -291 -414 -628v-741h-318z" />
    <glyph glyph-name="s" unicode="s" horiz-adv-x="1464" 
d="M249 397c138 -98 277 -160 452 -160c155 0 330 49 330 208c0 355 -871 132 -871 730c0 331 266 488 593 488c198 0 389 -58 545 -173l-129 -213c-111 74 -266 121 -400 121c-144 0 -297 -54 -297 -201c0 -351 876 -143 876 -737c0 -340 -287 -493 -634 -493
c-246 0 -416 77 -616 224z" />
    <glyph glyph-name="t" unicode="t" horiz-adv-x="1145" 
d="M51 1354v276h295v508l318 63v-571h414v-276h-414v-720c0 -309 135 -359 363 -406l-39 -261c-319 0 -642 158 -642 556v831h-295z" />
    <glyph glyph-name="u" unicode="u" horiz-adv-x="1884" 
d="M1655 1630v-1630h-265l-29 228c-127 -184 -323 -261 -539 -261c-405 0 -612 271 -612 677v986h320v-974c0 -247 125 -399 376 -399c277 0 429 186 429 465v908h320z" />
    <glyph glyph-name="v" unicode="v" horiz-adv-x="1719" 
d="M413 1630l451 -1285l474 1285h327l-649 -1630h-324l-626 1630h347z" />
    <glyph glyph-name="w" unicode="w" horiz-adv-x="2697" 
d="M72 1630h349l386 -1251l385 1251h321l385 -1251l408 1251h325l-578 -1630h-318l-388 1253l-390 -1253h-319z" />
    <glyph glyph-name="x" unicode="x" horiz-adv-x="1663" 
d="M23 0l619 840l-576 790h383l383 -550l389 550h358l-563 -774l636 -856h-385l-440 615l-440 -615h-364z" />
    <glyph glyph-name="y" unicode="y" horiz-adv-x="1749" 
d="M882 365l489 1265h330l-805 -1976c-104 -256 -306 -372 -518 -372c-76 0 -160 16 -237 45l43 259c43 -10 80 -17 130 -17c141 0 257 57 346 279l56 139l-649 1643h350z" />
    <glyph glyph-name="z" unicode="z" horiz-adv-x="1628" 
d="M1497 273v-273h-1381v242l941 1117h-898v271h1332v-232l-953 -1125h959z" />
    <glyph glyph-name="Aacute" unicode="&#xc1;" horiz-adv-x="2196" 
d="M1799 0l-222 617h-973l-219 -617h-337l858 2318h379l869 -2318h-355zM996 2535l324 412h408l-441 -412h-291zM703 894h774l-389 1080z" />
    <glyph glyph-name="Abreve" unicode="&#x102;" horiz-adv-x="2196" 
d="M1343 2913h204c-20 -210 -151 -381 -435 -381c-282 0 -413 171 -433 381h203c17 -102 91 -196 230 -196c140 0 214 94 231 196zM1577 617h-973l-219 -617h-337l858 2318h379l869 -2318h-355zM1477 894l-389 1080l-385 -1080h774z" />
    <glyph glyph-name="Acircumflex" unicode="&#xc2;" horiz-adv-x="2196" 
d="M1799 0l-222 617h-973l-219 -617h-337l858 2318h379l869 -2318h-355zM1233 2947l384 -412h-286l-217 249l-222 -249h-282l378 412h245zM703 894h774l-389 1080z" />
    <glyph glyph-name="Adieresis" unicode="&#xc4;" horiz-adv-x="2196" 
d="M810 2539c-105 0 -190 81 -190 187s85 188 190 188c106 0 185 -82 185 -188s-79 -187 -185 -187zM1423 2539c-105 0 -188 81 -188 187s83 188 188 188c106 0 186 -82 186 -188s-80 -187 -186 -187zM1799 0l-222 617h-973l-219 -617h-337l858 2318h379l869 -2318h-355z
M703 894h774l-389 1080z" />
    <glyph glyph-name="Agrave" unicode="&#xc0;" horiz-adv-x="2196" 
d="M1799 0l-222 617h-973l-219 -617h-337l858 2318h379l869 -2318h-355zM929 2542l-441 412h408l324 -412h-291zM703 894h774l-389 1080z" />
    <glyph glyph-name="Aogonek" unicode="&#x104;" horiz-adv-x="2196" 
d="M604 617l-219 -617h-337l858 2318h379l869 -2318h-94c-74 -75 -191 -207 -191 -337c0 -85 49 -150 147 -150c61 0 120 20 161 48l56 -143c-75 -61 -185 -99 -287 -99c-172 0 -310 103 -310 276c0 159 121 312 224 405h-61l-222 617h-973zM703 894h774l-389 1080z" />
    <glyph glyph-name="Aring" unicode="&#xc5;" horiz-adv-x="2196" 
d="M1111 2505c-186 0 -338 152 -338 338c0 187 152 339 338 339c187 0 338 -152 338 -339c0 -186 -151 -338 -338 -338zM1111 2661c101 0 183 81 183 182s-82 183 -183 183c-100 0 -182 -82 -182 -183s82 -182 182 -182zM1799 0l-222 617h-973l-219 -617h-337l858 2318h379
l869 -2318h-355zM703 894h774l-389 1080z" />
    <glyph glyph-name="Atilde" unicode="&#xc3;" horiz-adv-x="2196" 
d="M864 2556h-195c23 244 137 364 278 364c174 0 219 -168 311 -168c50 0 86 47 104 161h193c-22 -246 -136 -366 -277 -366c-175 0 -218 169 -310 169c-53 0 -87 -52 -104 -160zM1577 617h-973l-219 -617h-337l858 2318h379l869 -2318h-355zM1477 894l-389 1080l-385 -1080
h774z" />
    <glyph glyph-name="AE" unicode="&#xc6;" horiz-adv-x="3085" 
d="M1819 2030v-718h960v-287h-960v-737h1131v-288h-1458v577h-787l-305 -577h-364l1260 2318h1625v-288h-1102zM851 854h641v1176h-19z" />
    <glyph glyph-name="Cacute" unicode="&#x106;" horiz-adv-x="2162" 
d="M1930 453l153 -239c-212 -163 -511 -247 -781 -247c-666 0 -1158 511 -1158 1182c0 683 509 1202 1174 1202c272 0 550 -87 762 -251l-150 -234c-163 124 -395 193 -600 193c-483 0 -853 -385 -853 -904c0 -514 362 -893 843 -893c212 0 457 74 610 191zM1322 2961h408
l-441 -412h-291z" />
    <glyph glyph-name="Ccaron" unicode="&#x10c;" horiz-adv-x="2162" 
d="M1930 453l153 -239c-212 -163 -511 -247 -781 -247c-666 0 -1158 511 -1158 1182c0 683 509 1202 1174 1202c272 0 550 -87 762 -251l-150 -234c-163 124 -395 193 -600 193c-483 0 -853 -385 -853 -904c0 -514 362 -893 843 -893c212 0 457 74 610 191zM1196 2713
l221 248h283l-378 -412h-245l-384 412h286z" />
    <glyph glyph-name="Ccedilla" unicode="&#xc7;" horiz-adv-x="2162" 
d="M1930 453l153 -239c-190 -146 -449 -228 -695 -244l-108 -169c129 -11 257 -84 257 -243c0 -187 -179 -269 -363 -269c-100 0 -196 24 -267 65l56 148c71 -34 146 -51 200 -51c66 0 139 26 139 99c0 117 -187 145 -282 145l164 278c-605 56 -1040 545 -1040 1176
c0 683 509 1202 1174 1202c272 0 550 -87 762 -251l-150 -234c-163 124 -395 193 -600 193c-483 0 -853 -385 -853 -904c0 -514 362 -893 843 -893c212 0 457 74 610 191z" />
    <glyph glyph-name="Dcaron" unicode="&#x10e;" horiz-adv-x="2356" 
d="M1089 0h-791v2318h794c723 0 1112 -511 1112 -1159c0 -659 -402 -1159 -1115 -1159zM626 289h402c550 0 847 289 847 869c0 596 -314 871 -835 871h-414v-1740zM1148 2689l221 248h283l-378 -412h-245l-384 412h286z" />
    <glyph glyph-name="Dcroat" unicode="&#x110;" horiz-adv-x="2379" 
d="M321 1288v1030h794c723 0 1112 -511 1112 -1159c0 -659 -402 -1159 -1115 -1159h-791v1019h-246v269h246zM649 2029v-741h480v-269h-480v-730h402c550 0 847 289 847 869c0 596 -314 871 -835 871h-414z" />
    <glyph glyph-name="Eacute" unicode="&#xc9;" horiz-adv-x="1891" 
d="M298 0v2318h1429v-288h-1102v-718h960v-287h-960v-737h1131v-288h-1458zM826 2535l324 412h408l-441 -412h-291z" />
    <glyph glyph-name="Ecaron" unicode="&#x11a;" horiz-adv-x="1891" 
d="M298 0v2318h1429v-288h-1102v-718h960v-287h-960v-737h1131v-288h-1458zM796 2947l217 -248l221 248h283l-378 -412h-245l-384 412h286z" />
    <glyph glyph-name="Ecircumflex" unicode="&#xca;" horiz-adv-x="1891" 
d="M298 0v2318h1429v-288h-1102v-718h960v-287h-960v-737h1131v-288h-1458zM1145 2947l384 -412h-286l-217 249l-222 -249h-282l378 412h245z" />
    <glyph glyph-name="Edieresis" unicode="&#xcb;" horiz-adv-x="1891" 
d="M719 2542c-105 0 -190 81 -190 187s85 188 190 188c106 0 185 -82 185 -188s-79 -187 -185 -187zM1332 2542c-105 0 -188 81 -188 187s83 188 188 188c106 0 186 -82 186 -188s-80 -187 -186 -187zM298 0v2318h1429v-288h-1102v-718h960v-287h-960v-737h1131v-288h-1458z
" />
    <glyph glyph-name="Egrave" unicode="&#xc8;" horiz-adv-x="1891" 
d="M298 0v2318h1429v-288h-1102v-718h960v-287h-960v-737h1131v-288h-1458zM921 2542l-441 412h408l324 -412h-291z" />
    <glyph glyph-name="Eogonek" unicode="&#x118;" horiz-adv-x="1891" 
d="M1727 2318v-288h-1102v-718h960v-287h-960v-737h1131v-288h-179c-74 -75 -191 -207 -191 -337c0 -85 49 -150 147 -150c61 0 120 20 161 48l56 -143c-75 -61 -185 -99 -287 -99c-172 0 -310 103 -310 276c0 159 121 312 224 405h-1079v2318h1429z" />
    <glyph glyph-name="Gbreve" unicode="&#x11e;" horiz-adv-x="2438" 
d="M2005 926h-625v272h970c0 -726 -334 -1231 -1041 -1231c-705 0 -1165 501 -1165 1169c0 696 499 1215 1171 1215c275 0 554 -87 765 -251l-150 -234c-153 120 -385 193 -599 193c-502 0 -852 -401 -852 -901c0 -489 334 -902 820 -902c395 0 693 272 706 670zM1558 2952
h204c-20 -210 -151 -381 -434 -381s-414 171 -434 381h203c17 -102 91 -196 230 -196c140 0 214 94 231 196z" />
    <glyph glyph-name="Iacute" unicode="&#xcd;" horiz-adv-x="924" 
d="M298 0v2318h328v-2318h-328zM304 2535l324 412h408l-441 -412h-291z" />
    <glyph glyph-name="Icircumflex" unicode="&#xce;" horiz-adv-x="924" 
d="M582 2947l384 -412h-286l-217 249l-222 -249h-282l378 412h245zM298 0v2318h328v-2318h-328z" />
    <glyph glyph-name="Idieresis" unicode="&#xcf;" horiz-adv-x="924" 
d="M157 2542c-105 0 -190 81 -190 187s85 188 190 188c106 0 185 -82 185 -188s-79 -187 -185 -187zM770 2542c-105 0 -188 81 -188 187s83 188 188 188c106 0 186 -82 186 -188s-80 -187 -186 -187zM298 0v2318h328v-2318h-328z" />
    <glyph glyph-name="Idotaccent" unicode="&#x130;" horiz-adv-x="924" 
d="M463 2542c-110 0 -196 85 -196 195s86 196 196 196s193 -86 193 -196s-83 -195 -193 -195zM298 0v2318h328v-2318h-328z" />
    <glyph glyph-name="Igrave" unicode="&#xcc;" horiz-adv-x="924" 
d="M346 2542l-441 412h408l324 -412h-291zM298 0v2318h328v-2318h-328z" />
    <glyph glyph-name="Lacute" unicode="&#x139;" horiz-adv-x="1735" 
d="M298 0v2318h328v-2030h1067v-288h-1395zM333 2535l324 412h408l-441 -412h-291z" />
    <glyph glyph-name="Lcaron" unicode="&#x13d;" horiz-adv-x="1735" 
d="M861 1767c65 35 155 89 155 175s-89 115 -89 213c0 82 61 156 157 156c109 0 164 -98 164 -211c0 -189 -154 -390 -342 -446zM298 2318h328v-2030h1067v-288h-1395v2318z" />
    <glyph glyph-name="Lslash" unicode="&#x141;" horiz-adv-x="1775" 
d="M338 1182v1136h328v-907l515 360v-279l-515 -359v-845h1067v-288h-1395v905l-290 -202v277z" />
    <glyph glyph-name="Nacute" unicode="&#x143;" horiz-adv-x="2431" 
d="M607 1813l4 -1813h-313v2318h358l1170 -1824l-4 1824h311v-2318h-362zM1030 2535l324 412h408l-441 -412h-291z" />
    <glyph glyph-name="Ncaron" unicode="&#x147;" horiz-adv-x="2431" 
d="M607 1813l4 -1813h-313v2318h358l1170 -1824l-4 1824h311v-2318h-362zM998 2937l217 -248l221 248h283l-378 -412h-245l-384 412h286z" />
    <glyph glyph-name="Ntilde" unicode="&#xd1;" horiz-adv-x="2431" 
d="M982 2556h-195c23 244 137 364 278 364c174 0 219 -168 311 -168c50 0 86 47 104 161h193c-22 -246 -136 -366 -277 -366c-175 0 -218 169 -310 169c-53 0 -87 -52 -104 -160zM611 0h-313v2318h358l1170 -1824l-4 1824h311v-2318h-362l-1164 1813z" />
    <glyph glyph-name="Oacute" unicode="&#xd3;" horiz-adv-x="2641" 
d="M1320 -33c-673 0 -1176 516 -1176 1193c0 686 516 1191 1181 1191c666 0 1173 -506 1173 -1188c0 -681 -506 -1196 -1178 -1196zM1320 258c487 0 842 387 842 901c0 516 -357 900 -842 900s-843 -383 -843 -900c0 -515 356 -901 843 -901zM1144 2549l324 412h408
l-441 -412h-291z" />
    <glyph glyph-name="Ocircumflex" unicode="&#xd4;" horiz-adv-x="2641" 
d="M1320 -33c-673 0 -1176 516 -1176 1193c0 686 516 1191 1181 1191c666 0 1173 -506 1173 -1188c0 -681 -506 -1196 -1178 -1196zM1320 258c487 0 842 387 842 901c0 516 -357 900 -842 900s-843 -383 -843 -900c0 -515 356 -901 843 -901zM1440 2961l384 -412h-286
l-217 249l-222 -249h-282l378 412h245z" />
    <glyph glyph-name="Odieresis" unicode="&#xd6;" horiz-adv-x="2641" 
d="M1017 2553c-105 0 -190 81 -190 187s85 188 190 188c106 0 185 -82 185 -188s-79 -187 -185 -187zM1320 -33c-673 0 -1176 516 -1176 1193c0 686 516 1191 1181 1191c666 0 1173 -506 1173 -1188c0 -681 -506 -1196 -1178 -1196zM1320 258c487 0 842 387 842 901
c0 516 -357 900 -842 900s-843 -383 -843 -900c0 -515 356 -901 843 -901zM1630 2553c-105 0 -188 81 -188 187s83 188 188 188c106 0 186 -82 186 -188s-80 -187 -186 -187z" />
    <glyph glyph-name="Ograve" unicode="&#xd2;" horiz-adv-x="2641" 
d="M1320 -33c-673 0 -1176 516 -1176 1193c0 686 516 1191 1181 1191c666 0 1173 -506 1173 -1188c0 -681 -506 -1196 -1178 -1196zM1320 258c487 0 842 387 842 901c0 516 -357 900 -842 900s-843 -383 -843 -900c0 -515 356 -901 843 -901zM1231 2555l-441 412h408
l324 -412h-291z" />
    <glyph glyph-name="Ohungarumlaut" unicode="&#x150;" horiz-adv-x="2641" 
d="M1320 -33c-673 0 -1176 516 -1176 1193c0 686 516 1191 1181 1191c666 0 1173 -506 1173 -1188c0 -681 -506 -1196 -1178 -1196zM1320 258c487 0 842 387 842 901c0 516 -357 900 -842 900s-843 -383 -843 -900c0 -515 356 -901 843 -901zM890 2572l308 412h395
l-423 -412h-280zM1474 2572l307 412h396l-422 -412h-281z" />
    <glyph glyph-name="Otilde" unicode="&#xd5;" horiz-adv-x="2641" 
d="M1073 2566h-195c23 244 137 364 278 364c174 0 219 -168 311 -168c50 0 86 47 104 161h193c-22 -246 -136 -366 -277 -366c-175 0 -218 169 -310 169c-53 0 -87 -52 -104 -160zM144 1160c0 686 516 1191 1181 1191c666 0 1173 -506 1173 -1188
c0 -681 -506 -1196 -1178 -1196c-673 0 -1176 516 -1176 1193zM2162 1159c0 516 -357 900 -842 900s-843 -383 -843 -900c0 -515 356 -901 843 -901s842 387 842 901z" />
    <glyph glyph-name="Oslash" unicode="&#xd8;" horiz-adv-x="2641" 
d="M2195 2492l204 -163l-243 -311c213 -212 342 -512 342 -855c0 -681 -506 -1196 -1178 -1196c-235 0 -449 63 -628 173l-245 -314l-204 163l244 313c-215 214 -343 515 -343 858c0 686 516 1191 1181 1191c233 0 447 -62 626 -172zM1320 258c487 0 842 387 842 901
c0 237 -76 447 -205 604l-1078 -1382c126 -79 276 -123 441 -123zM683 553l1078 1382c-127 79 -276 124 -441 124c-485 0 -843 -383 -843 -900c0 -238 76 -448 206 -606z" />
    <glyph glyph-name="OE" unicode="&#x152;" horiz-adv-x="3494" 
d="M3330 2318v-288h-1102v-718h960v-287h-960v-737h1131v-288h-1458v113c-170 -94 -368 -146 -582 -146c-672 0 -1175 516 -1175 1193c0 686 516 1191 1180 1191c213 0 408 -52 577 -144v111h1429zM1901 493v1331c-148 147 -350 235 -582 235c-484 0 -842 -383 -842 -900
c0 -515 356 -901 843 -901c231 0 433 87 581 235z" />
    <glyph glyph-name="Racute" unicode="&#x154;" horiz-adv-x="2075" 
d="M298 0v2318h825c487 0 777 -303 777 -708c0 -325 -187 -582 -498 -677l567 -933h-390l-520 894h-438v-894h-323zM621 1184h446c316 0 504 151 504 420c0 282 -206 425 -504 425h-446v-845zM783 2525l324 412h408l-441 -412h-291z" />
    <glyph glyph-name="Rcaron" unicode="&#x158;" horiz-adv-x="2075" 
d="M298 0v2318h825c487 0 777 -303 777 -708c0 -325 -187 -582 -498 -677l567 -933h-390l-520 894h-438v-894h-323zM621 1184h446c316 0 504 151 504 420c0 282 -206 425 -504 425h-446v-845zM797 2937l217 -248l221 248h283l-378 -412h-245l-384 412h286z" />
    <glyph glyph-name="Sacute" unicode="&#x15a;" horiz-adv-x="1880" 
d="M262 491c188 -149 416 -231 651 -231c262 0 506 102 506 357c0 574 -1241 237 -1241 1063c0 432 339 671 774 671c264 0 547 -88 756 -250l-150 -234c-153 121 -395 195 -589 195c-245 0 -468 -117 -468 -355c0 -564 1246 -218 1246 -1059c0 -457 -369 -681 -823 -681
c-301 0 -575 98 -814 285zM1083 2961h408l-441 -412h-291z" />
    <glyph glyph-name="Scaron" unicode="&#x160;" horiz-adv-x="1880" 
d="M262 491c188 -149 416 -231 651 -231c262 0 506 102 506 357c0 574 -1241 237 -1241 1063c0 432 339 671 774 671c264 0 547 -88 756 -250l-150 -234c-153 121 -395 195 -589 195c-245 0 -468 -117 -468 -355c0 -564 1246 -218 1246 -1059c0 -457 -369 -681 -823 -681
c-301 0 -575 98 -814 285zM961 2713l221 248h283l-378 -412h-245l-384 412h286z" />
    <glyph glyph-name="Scedilla" unicode="&#x15e;" horiz-adv-x="1880" 
d="M1708 2101l-150 -234c-153 121 -395 195 -589 195c-245 0 -468 -117 -468 -355c0 -564 1246 -218 1246 -1059c0 -400 -283 -622 -658 -670l-113 -177c129 -11 257 -85 257 -241c0 -190 -179 -271 -365 -271c-97 0 -194 24 -265 65l56 148c71 -34 146 -51 201 -51
c66 0 138 26 138 100c0 115 -186 144 -282 144l161 273c-283 9 -541 106 -767 284l152 239c188 -149 416 -231 651 -231c262 0 506 102 506 357c0 574 -1241 237 -1241 1063c0 432 339 671 774 671c264 0 547 -88 756 -250z" />
    <glyph glyph-name="uni0218" unicode="&#x218;" horiz-adv-x="1880" 
d="M262 491c188 -149 416 -231 651 -231c262 0 506 102 506 357c0 574 -1241 237 -1241 1063c0 432 339 671 774 671c264 0 547 -88 756 -250l-150 -234c-153 121 -395 195 -589 195c-245 0 -468 -117 -468 -355c0 -564 1246 -218 1246 -1059c0 -457 -369 -681 -823 -681
c-301 0 -575 98 -814 285zM800 -854l-45 113c65 35 155 89 155 175s-89 115 -89 213c0 82 61 156 157 156c109 0 164 -98 164 -211c0 -189 -154 -390 -342 -446z" />
    <glyph glyph-name="Tcaron" unicode="&#x164;" horiz-adv-x="1912" 
d="M1847 2318v-290h-727v-2028h-329v2028h-726v290h1782zM739 2947l217 -248l221 248h283l-378 -412h-245l-384 412h286z" />
    <glyph glyph-name="uni0162" unicode="&#x162;" horiz-adv-x="1912" 
d="M743 -744c65 35 155 89 155 175s-89 115 -89 213c0 82 61 156 157 156c109 0 164 -98 164 -211c0 -189 -154 -390 -342 -446zM1847 2028h-727v-2028h-329v2028h-726v290h1782v-290z" />
    <glyph glyph-name="Uacute" unicode="&#xda;" horiz-adv-x="2345" 
d="M1751 827v1491h321v-1489c0 -520 -369 -862 -902 -862c-534 0 -897 342 -897 861v1490h329v-1491c0 -345 241 -566 577 -566s572 221 572 566zM1300 2952h408l-441 -412h-291z" />
    <glyph glyph-name="Ucircumflex" unicode="&#xdb;" horiz-adv-x="2345" 
d="M1751 827v1491h321v-1489c0 -520 -369 -862 -902 -862c-534 0 -897 342 -897 861v1490h329v-1491c0 -345 241 -566 577 -566s572 221 572 566zM1694 2541h-286l-217 249l-222 -249h-282l378 412h245z" />
    <glyph glyph-name="Udieresis" unicode="&#xdc;" horiz-adv-x="2345" 
d="M1751 827v1491h321v-1489c0 -520 -369 -862 -902 -862c-534 0 -897 342 -897 861v1490h329v-1491c0 -345 241 -566 577 -566s572 221 572 566zM678 2735c0 106 85 188 190 188c106 0 185 -82 185 -188s-79 -187 -185 -187c-105 0 -190 81 -190 187zM1293 2735
c0 106 83 188 188 188c106 0 186 -82 186 -188s-80 -187 -186 -187c-105 0 -188 81 -188 187z" />
    <glyph glyph-name="Ugrave" unicode="&#xd9;" horiz-adv-x="2345" 
d="M1751 827v1491h321v-1489c0 -520 -369 -862 -902 -862c-534 0 -897 342 -897 861v1490h329v-1491c0 -345 241 -566 577 -566s572 221 572 566zM657 2959h408l324 -412h-291z" />
    <glyph glyph-name="Uhungarumlaut" unicode="&#x170;" horiz-adv-x="2345" 
d="M1751 827v1491h321v-1489c0 -520 -369 -862 -902 -862c-534 0 -897 342 -897 861v1490h329v-1491c0 -345 241 -566 577 -566s572 221 572 566zM988 2976h395l-423 -412h-280zM1571 2976h396l-422 -412h-281z" />
    <glyph glyph-name="Uring" unicode="&#x16e;" horiz-adv-x="2345" 
d="M1751 827v1491h321v-1489c0 -520 -369 -862 -902 -862c-534 0 -897 342 -897 861v1490h329v-1491c0 -345 241 -566 577 -566s572 221 572 566zM842 2819c0 187 152 339 338 339c187 0 338 -152 338 -339c0 -186 -151 -338 -338 -338c-186 0 -338 152 -338 338zM1363 2819
c0 101 -82 183 -183 183c-100 0 -182 -82 -182 -183s82 -182 182 -182c101 0 183 81 183 182z" />
    <glyph glyph-name="Yacute" unicode="&#xdd;" horiz-adv-x="2129" 
d="M2074 2318l-849 -1347v-971h-326v970l-832 1348h382l621 -1032l646 1032h358zM899 2525l324 412h408l-441 -412h-291z" />
    <glyph glyph-name="Ydieresis" unicode="&#x178;" horiz-adv-x="2129" 
d="M788 2532c-105 0 -190 81 -190 187s85 188 190 188c106 0 185 -82 185 -188s-79 -187 -185 -187zM1401 2532c-105 0 -188 81 -188 187s83 188 188 188c106 0 186 -82 186 -188s-80 -187 -186 -187zM2074 2318l-849 -1347v-971h-326v970l-832 1348h382l621 -1032l646 1032
h358z" />
    <glyph glyph-name="Zacute" unicode="&#x179;" horiz-adv-x="1914" 
d="M1795 287v-287h-1687v241l1251 1792h-1209v285h1626v-246l-1252 -1785h1271zM793 2535l324 412h408l-441 -412h-291z" />
    <glyph glyph-name="Zcaron" unicode="&#x17d;" horiz-adv-x="1914" 
d="M1795 287v-287h-1687v241l1251 1792h-1209v285h1626v-246l-1252 -1785h1271zM771 2947l217 -248l221 248h283l-378 -412h-245l-384 412h286z" />
    <glyph glyph-name="Zdotaccent" unicode="&#x17b;" horiz-adv-x="1914" 
d="M971 2542c-110 0 -196 85 -196 195s86 196 196 196s193 -86 193 -196s-83 -195 -193 -195zM1795 287v-287h-1687v241l1251 1792h-1209v285h1626v-246l-1252 -1785h1271z" />
    <glyph glyph-name="Eth" unicode="&#xd0;" horiz-adv-x="2379" 
d="M321 1288v1030h794c723 0 1112 -511 1112 -1159c0 -659 -402 -1159 -1115 -1159h-791v1019h-246v269h246zM649 2029v-741h480v-269h-480v-730h402c550 0 847 289 847 869c0 596 -314 871 -835 871h-414z" />
    <glyph glyph-name="Thorn" unicode="&#xde;" horiz-adv-x="1968" 
d="M620 2318v-425h515c425 0 743 -300 743 -708c0 -407 -317 -712 -741 -712h-517v-473h-322v2318h322zM620 767h432c259 0 500 116 500 418s-241 418 -500 418h-432v-836z" />
    <glyph glyph-name="S_S" horiz-adv-x="3760" 
d="M262 491c188 -149 416 -231 651 -231c262 0 506 102 506 357c0 574 -1241 237 -1241 1063c0 432 339 671 774 671c264 0 547 -88 756 -250l-150 -234c-153 121 -395 195 -589 195c-245 0 -468 -117 -468 -355c0 -564 1246 -218 1246 -1059c0 -457 -369 -681 -823 -681
c-301 0 -575 98 -814 285zM3588 2101l-150 -234c-153 121 -395 195 -589 195c-245 0 -468 -117 -468 -355c0 -564 1246 -218 1246 -1059c0 -457 -369 -681 -823 -681c-301 0 -575 98 -814 285l152 239c188 -149 416 -231 651 -231c262 0 506 102 506 357
c0 574 -1241 237 -1241 1063c0 432 339 671 774 671c264 0 547 -88 756 -250z" />
    <glyph glyph-name="aacute" unicode="&#xe1;" horiz-adv-x="1770" 
d="M1631 201l-38 -234c-178 0 -361 78 -361 252l-2 1c-110 -170 -326 -253 -548 -253c-318 0 -582 170 -582 493c0 314 248 532 714 532c141 0 287 -20 395 -42v98c0 251 -173 345 -405 345c-169 0 -345 -50 -480 -123l-100 222c171 125 414 171 627 171
c431 0 672 -188 672 -563v-667c0 -123 24 -189 108 -232zM1209 708c-92 19 -234 39 -370 39c-169 0 -428 -31 -428 -268c0 -181 151 -252 305 -252c223 0 493 149 493 365v116zM1008 2366h381l-412 -509h-272z" />
    <glyph glyph-name="abreve" unicode="&#x103;" horiz-adv-x="1770" 
d="M1631 201l-38 -234c-178 0 -361 78 -361 252l-2 1c-110 -170 -326 -253 -548 -253c-318 0 -582 170 -582 493c0 314 248 532 714 532c141 0 287 -20 395 -42v98c0 251 -173 345 -405 345c-169 0 -345 -50 -480 -123l-100 222c171 125 414 171 627 171
c431 0 672 -188 672 -563v-667c0 -123 24 -189 108 -232zM458 2304h203c17 -118 91 -225 230 -225c140 0 214 107 231 225h204c-20 -242 -151 -438 -435 -438c-282 0 -413 196 -433 438zM1209 592v116c-92 19 -234 39 -370 39c-169 0 -428 -31 -428 -268
c0 -181 151 -252 305 -252c223 0 493 149 493 365z" />
    <glyph glyph-name="acircumflex" unicode="&#xe2;" horiz-adv-x="1770" 
d="M1631 201l-38 -234c-178 0 -361 78 -361 252l-2 1c-110 -170 -326 -253 -548 -253c-318 0 -582 170 -582 493c0 314 248 532 714 532c141 0 287 -20 395 -42v98c0 251 -173 345 -405 345c-169 0 -345 -50 -480 -123l-100 222c171 125 414 171 627 171
c431 0 672 -188 672 -563v-667c0 -123 24 -189 108 -232zM1209 708c-92 19 -234 39 -370 39c-169 0 -428 -31 -428 -268c0 -181 151 -252 305 -252c223 0 493 149 493 365v116zM1357 1857h-267l-203 307l-207 -307h-264l353 509h229z" />
    <glyph glyph-name="adieresis" unicode="&#xe4;" horiz-adv-x="1770" 
d="M1631 201l-38 -234c-178 0 -361 78 -361 252l-2 1c-110 -170 -326 -253 -548 -253c-318 0 -582 170 -582 493c0 314 248 532 714 532c141 0 287 -20 395 -42v98c0 251 -173 345 -405 345c-169 0 -345 -50 -480 -123l-100 222c171 125 414 171 627 171
c431 0 672 -188 672 -563v-667c0 -123 24 -189 108 -232zM1209 708c-92 19 -234 39 -370 39c-169 0 -428 -31 -428 -268c0 -181 151 -252 305 -252c223 0 493 149 493 365v116zM391 2067c0 106 85 188 190 188c106 0 185 -82 185 -188s-79 -187 -185 -187
c-105 0 -190 81 -190 187zM1006 2067c0 106 83 188 188 188c106 0 186 -82 186 -188s-80 -187 -186 -187c-105 0 -188 81 -188 187z" />
    <glyph glyph-name="agrave" unicode="&#xe0;" horiz-adv-x="1770" 
d="M1631 201l-38 -234c-178 0 -361 78 -361 252l-2 1c-110 -170 -326 -253 -548 -253c-318 0 -582 170 -582 493c0 314 248 532 714 532c141 0 287 -20 395 -42v98c0 251 -173 345 -405 345c-169 0 -345 -50 -480 -123l-100 222c171 125 414 171 627 171
c431 0 672 -188 672 -563v-667c0 -123 24 -189 108 -232zM1209 708c-92 19 -234 39 -370 39c-169 0 -428 -31 -428 -268c0 -181 151 -252 305 -252c223 0 493 149 493 365v116zM359 2366h381l303 -509h-272z" />
    <glyph glyph-name="aogonek" unicode="&#x105;" horiz-adv-x="1770" 
d="M1631 201l-38 -234c-46 0 -92 5 -136 16c-67 -76 -141 -181 -141 -284c0 -85 49 -150 147 -150c61 0 120 20 161 48l56 -143c-75 -61 -185 -99 -287 -99c-172 0 -310 103 -310 276c0 165 131 324 236 415c-53 42 -87 100 -87 173l-2 1c-110 -170 -326 -253 -548 -253
c-318 0 -582 170 -582 493c0 314 248 532 714 532c141 0 287 -20 395 -42v98c0 251 -173 345 -405 345c-169 0 -345 -50 -480 -123l-100 222c171 125 414 171 627 171c431 0 672 -188 672 -563v-667c0 -123 24 -189 108 -232zM716 227c223 0 493 149 493 365v116
c-92 19 -234 39 -370 39c-169 0 -428 -31 -428 -268c0 -181 151 -252 305 -252z" />
    <glyph glyph-name="aring" unicode="&#xe5;" horiz-adv-x="1770" 
d="M1631 201l-38 -234c-178 0 -361 78 -361 252l-2 1c-110 -170 -326 -253 -548 -253c-318 0 -582 170 -582 493c0 314 248 532 714 532c141 0 287 -20 395 -42v98c0 251 -173 345 -405 345c-169 0 -345 -50 -480 -123l-100 222c171 125 414 171 627 171
c431 0 672 -188 672 -563v-667c0 -123 24 -189 108 -232zM1209 708c-92 19 -234 39 -370 39c-169 0 -428 -31 -428 -268c0 -181 151 -252 305 -252c223 0 493 149 493 365v116zM544 2177c0 187 152 339 338 339c187 0 338 -152 338 -339c0 -186 -151 -338 -338 -338
c-186 0 -338 152 -338 338zM1065 2177c0 101 -82 183 -183 183c-100 0 -182 -82 -182 -183s82 -182 182 -182c101 0 183 81 183 182z" />
    <glyph glyph-name="atilde" unicode="&#xe3;" horiz-adv-x="1770" 
d="M1631 201l-38 -234c-178 0 -361 78 -361 252l-2 1c-110 -170 -326 -253 -548 -253c-318 0 -582 170 -582 493c0 314 248 532 714 532c141 0 287 -20 395 -42v98c0 251 -173 345 -405 345c-169 0 -345 -50 -480 -123l-100 222c171 125 414 171 627 171
c431 0 672 -188 672 -563v-667c0 -123 24 -189 108 -232zM646 1900h-195c23 255 137 380 278 380c174 0 219 -175 311 -175c50 0 86 49 104 167h193c-22 -256 -136 -381 -277 -381c-175 0 -218 176 -310 176c-53 0 -87 -54 -104 -167zM716 227c223 0 493 149 493 365v116
c-92 19 -234 39 -370 39c-169 0 -428 -31 -428 -268c0 -181 151 -252 305 -252z" />
    <glyph glyph-name="ae" unicode="&#xe6;" horiz-adv-x="2882" 
d="M2030 -33c-262 0 -497 98 -649 283c-132 -167 -385 -283 -678 -283c-379 0 -603 194 -603 493c0 314 248 532 714 532c141 0 287 -20 395 -42v98c0 251 -173 345 -405 345c-169 0 -345 -50 -480 -123l-100 222c171 125 414 171 628 171c269 0 470 -73 581 -233
c150 153 347 233 571 233c472 0 768 -355 768 -814c0 -53 -4 -106 -8 -134h-1241c29 -297 232 -474 522 -474c169 0 345 60 474 159l148 -201c-157 -145 -391 -232 -637 -232zM1209 592v116c-92 19 -235 39 -369 39c-301 0 -429 -101 -429 -268c0 -181 151 -252 305 -252
c223 0 493 149 493 365zM1528 950h928c-18 235 -170 439 -446 439c-257 0 -444 -177 -482 -439z" />
    <glyph glyph-name="cacute" unicode="&#x107;" horiz-adv-x="1615" 
d="M1382 367l157 -215c-164 -120 -362 -185 -567 -185c-426 0 -842 282 -842 838c0 532 382 858 848 858c190 0 391 -54 542 -164l-138 -229c-109 69 -258 112 -393 112c-309 0 -539 -227 -539 -567c0 -338 227 -566 533 -566c136 0 289 45 399 118zM960 2366h381l-412 -509
h-272z" />
    <glyph glyph-name="ccaron" unicode="&#x10d;" horiz-adv-x="1615" 
d="M1382 367l157 -215c-164 -120 -362 -185 -567 -185c-426 0 -842 282 -842 838c0 532 382 858 848 858c190 0 391 -54 542 -164l-138 -229c-109 69 -258 112 -393 112c-309 0 -539 -227 -539 -567c0 -338 227 -566 533 -566c136 0 289 45 399 118zM864 2059l207 307h264
l-353 -509h-229l-359 509h267z" />
    <glyph glyph-name="ccedilla" unicode="&#xe7;" horiz-adv-x="1615" 
d="M1382 367l157 -215c-139 -102 -301 -163 -472 -180l-97 -152c129 -11 257 -84 257 -243c0 -187 -179 -269 -363 -269c-100 0 -196 24 -267 65l56 148c71 -34 146 -51 200 -51c66 0 139 26 139 99c0 117 -187 145 -282 145l153 260c-385 43 -733 322 -733 831
c0 532 382 858 848 858c190 0 391 -54 542 -164l-138 -229c-109 69 -258 112 -393 112c-309 0 -539 -227 -539 -567c0 -338 227 -566 533 -566c136 0 289 45 399 118z" />
    <glyph glyph-name="dcaron" unicode="&#x10f;" horiz-adv-x="1984" 
d="M1490 0l-30 246c-132 -182 -341 -279 -569 -279c-417 0 -759 323 -759 841c0 489 305 855 765 855c212 0 416 -78 536 -246h2v945l320 63v-2425h-265zM1879 1860c65 35 155 89 155 175s-89 115 -89 213c0 82 61 156 157 156c109 0 164 -98 164 -211
c0 -189 -154 -390 -342 -446zM1444 820c0 326 -199 560 -496 560c-288 0 -493 -221 -493 -566c0 -359 220 -565 501 -565c323 0 488 275 488 571z" />
    <glyph glyph-name="dcroat" unicode="&#x111;" horiz-adv-x="1984" 
d="M1090 2111h345v251l320 63v-314h273v-229h-273v-1882h-265l-30 246c-132 -182 -341 -279 -569 -279c-417 0 -759 323 -759 841c0 489 305 855 765 855c212 0 416 -78 536 -246h2v465h-345v229zM956 249c323 0 488 275 488 571c0 326 -199 560 -496 560
c-288 0 -493 -221 -493 -566c0 -359 220 -565 501 -565z" />
    <glyph glyph-name="eacute" unicode="&#xe9;" horiz-adv-x="1812" 
d="M1597 198c-157 -145 -390 -231 -636 -231c-457 0 -831 297 -831 837c0 526 356 859 808 859c468 0 765 -356 765 -814c0 -53 -4 -106 -8 -134h-1241c29 -297 232 -474 522 -474c169 0 345 60 474 159zM459 950h928c-18 235 -170 439 -446 439c-257 0 -444 -177 -482 -439
zM1086 2366h381l-412 -509h-272z" />
    <glyph glyph-name="ecaron" unicode="&#x11b;" horiz-adv-x="1812" 
d="M1597 198c-157 -145 -390 -231 -636 -231c-457 0 -831 297 -831 837c0 526 356 859 808 859c468 0 765 -356 765 -814c0 -53 -4 -106 -8 -134h-1241c29 -297 232 -474 522 -474c169 0 345 60 474 159zM916 2059l207 307h264l-353 -509h-229l-359 509h267zM459 950h928
c-18 235 -170 439 -446 439c-257 0 -444 -177 -482 -439z" />
    <glyph glyph-name="ecircumflex" unicode="&#xea;" horiz-adv-x="1812" 
d="M1597 198c-157 -145 -390 -231 -636 -231c-457 0 -831 297 -831 837c0 526 356 859 808 859c468 0 765 -356 765 -814c0 -53 -4 -106 -8 -134h-1241c29 -297 232 -474 522 -474c169 0 345 60 474 159zM1419 1857h-267l-203 307l-207 -307h-264l353 509h229zM459 950h928
c-18 235 -170 439 -446 439c-257 0 -444 -177 -482 -439z" />
    <glyph glyph-name="edieresis" unicode="&#xeb;" horiz-adv-x="1812" 
d="M1597 198c-157 -145 -390 -231 -636 -231c-457 0 -831 297 -831 837c0 526 356 859 808 859c468 0 765 -356 765 -814c0 -53 -4 -106 -8 -134h-1241c29 -297 232 -474 522 -474c169 0 345 60 474 159zM471 2067c0 106 85 188 190 188c106 0 185 -82 185 -188
s-79 -187 -185 -187c-105 0 -190 81 -190 187zM1086 2067c0 106 83 188 188 188c106 0 186 -82 186 -188s-80 -187 -186 -187c-105 0 -188 81 -188 187zM459 950h928c-18 235 -170 439 -446 439c-257 0 -444 -177 -482 -439z" />
    <glyph glyph-name="egrave" unicode="&#xe8;" horiz-adv-x="1812" 
d="M1597 198c-157 -145 -390 -231 -636 -231c-457 0 -831 297 -831 837c0 526 356 859 808 859c468 0 765 -356 765 -814c0 -53 -4 -106 -8 -134h-1241c29 -297 232 -474 522 -474c169 0 345 60 474 159zM459 950h928c-18 235 -170 439 -446 439c-257 0 -444 -177 -482 -439
zM479 2366h381l303 -509h-272z" />
    <glyph glyph-name="eogonek" unicode="&#x119;" horiz-adv-x="1812" 
d="M728 -416c0 148 104 289 201 384c-442 13 -799 308 -799 836c0 526 356 859 808 859c468 0 765 -356 765 -814c0 -53 -4 -106 -8 -134h-1241c29 -297 232 -474 522 -474c169 0 345 60 474 159l147 -202c-117 -108 -276 -183 -451 -214c-74 -76 -185 -205 -185 -332
c0 -85 49 -150 147 -150c61 0 120 20 161 48l56 -143c-75 -61 -185 -99 -287 -99c-172 0 -310 103 -310 276zM459 950h928c-18 235 -170 439 -446 439c-257 0 -444 -177 -482 -439z" />
    <glyph glyph-name="gbreve" unicode="&#x11f;" horiz-adv-x="1979" 
d="M1751 1630v-1558c0 -507 -343 -790 -829 -790c-263 0 -487 83 -670 238l153 210c135 -102 313 -165 500 -165c302 0 527 164 527 562v144h-2c-116 -169 -337 -252 -551 -252c-417 0 -745 316 -745 817c0 531 367 827 764 827c219 0 435 -90 553 -271l29 238h271z
M1222 2334h204c-20 -242 -151 -438 -435 -438c-282 0 -413 196 -433 438h203c17 -118 91 -225 230 -225c140 0 214 107 231 225zM1435 844c0 308 -183 536 -485 536c-301 0 -494 -227 -494 -543c0 -319 196 -537 492 -537c312 0 487 243 487 544z" />
    <glyph glyph-name="iacute" unicode="&#xed;" horiz-adv-x="777" 
d="M229 0v1630h319v-1630h-319zM236 1856l303 509h381l-412 -509h-272z" />
    <glyph glyph-name="icircumflex" unicode="&#xee;" horiz-adv-x="777" 
d="M501 2366l359 -509h-267l-203 307l-207 -307h-264l353 509h229zM229 0v1630h319v-1630h-319z" />
    <glyph glyph-name="idieresis" unicode="&#xef;" horiz-adv-x="777" 
d="M85 1876c-105 0 -190 81 -190 187s85 188 190 188c106 0 185 -82 185 -188s-79 -187 -185 -187zM698 1876c-105 0 -188 81 -188 187s83 188 188 188c106 0 186 -82 186 -188s-80 -187 -186 -187zM229 0v1630h319v-1630h-319z" />
    <glyph glyph-name="igrave" unicode="&#xec;" horiz-adv-x="777" 
d="M279 1856l-412 509h381l303 -509h-272zM229 0v1630h319v-1630h-319z" />
    <glyph glyph-name="dotlessi" unicode="&#x131;" horiz-adv-x="777" 
d="M229 0v1630h319v-1630h-319z" />
    <glyph glyph-name="lacute" unicode="&#x13a;" horiz-adv-x="795" 
d="M223 343v2019l318 63v-1968c0 -123 22 -188 114 -235l-42 -255c-204 0 -390 120 -390 376zM227 2608l324 412h408l-441 -412h-291z" />
    <glyph glyph-name="lcaron" unicode="&#x13e;" horiz-adv-x="795" 
d="M665 1860c65 35 155 89 155 175s-89 115 -89 213c0 82 61 156 157 156c109 0 164 -98 164 -211c0 -189 -154 -390 -342 -446zM223 2362l318 63v-1968c0 -123 22 -188 114 -235l-42 -255c-204 0 -390 120 -390 376v2019z" />
    <glyph glyph-name="lslash" unicode="&#x142;" horiz-adv-x="1027" 
d="M98 780v264l271 218v1100l318 63v-906l282 228v-267l-282 -227v-796c0 -123 22 -188 114 -235l-42 -255c-204 0 -390 120 -390 376v655z" />
    <glyph glyph-name="nacute" unicode="&#x144;" horiz-adv-x="1900" 
d="M1690 0h-320v974c0 243 -136 402 -381 402c-270 0 -440 -194 -440 -466v-910h-321v1630h265l31 -236c126 177 327 269 556 269c394 0 610 -273 610 -674v-989zM759 1854l303 509h381l-412 -509h-272z" />
    <glyph glyph-name="ncaron" unicode="&#x148;" horiz-adv-x="1900" 
d="M1690 0h-320v974c0 243 -136 402 -381 402c-270 0 -440 -194 -440 -466v-910h-321v1630h265l31 -236c126 177 327 269 556 269c394 0 610 -273 610 -674v-989zM755 2364l203 -307l207 307h264l-353 -509h-229l-359 509h267z" />
    <glyph glyph-name="ntilde" unicode="&#xf1;" horiz-adv-x="1900" 
d="M1690 0h-320v974c0 243 -136 402 -381 402c-270 0 -440 -194 -440 -466v-910h-321v1630h265l31 -236c126 177 327 269 556 269c394 0 610 -273 610 -674v-989zM725 1901h-195c23 255 137 380 278 380c174 0 219 -175 311 -175c50 0 86 49 104 167h193
c-22 -256 -136 -381 -277 -381c-175 0 -218 176 -310 176c-53 0 -87 -54 -104 -167z" />
    <glyph glyph-name="oacute" unicode="&#xf3;" horiz-adv-x="1928" 
d="M960 -33c-471 0 -832 346 -832 846c0 502 363 850 838 850c471 0 834 -342 834 -843c0 -503 -367 -853 -840 -853zM960 248c291 0 515 237 515 570c0 330 -219 562 -511 562s-513 -231 -513 -564c0 -331 218 -568 509 -568zM771 1857l303 509h381l-412 -509h-272z" />
    <glyph glyph-name="ocircumflex" unicode="&#xf4;" horiz-adv-x="1928" 
d="M960 -33c-471 0 -832 346 -832 846c0 502 363 850 838 850c471 0 834 -342 834 -843c0 -503 -367 -853 -840 -853zM960 248c291 0 515 237 515 570c0 330 -219 562 -511 562s-513 -231 -513 -564c0 -331 218 -568 509 -568zM1075 2366l359 -509h-267l-203 307l-207 -307
h-264l353 509h229z" />
    <glyph glyph-name="odieresis" unicode="&#xf6;" horiz-adv-x="1928" 
d="M659 1880c-105 0 -190 81 -190 187s85 188 190 188c106 0 185 -82 185 -188s-79 -187 -185 -187zM960 -33c-471 0 -832 346 -832 846c0 502 363 850 838 850c471 0 834 -342 834 -843c0 -503 -367 -853 -840 -853zM960 248c291 0 515 237 515 570
c0 330 -219 562 -511 562s-513 -231 -513 -564c0 -331 218 -568 509 -568zM1272 1880c-105 0 -188 81 -188 187s83 188 188 188c106 0 186 -82 186 -188s-80 -187 -186 -187z" />
    <glyph glyph-name="ograve" unicode="&#xf2;" horiz-adv-x="1928" 
d="M960 -33c-471 0 -832 346 -832 846c0 502 363 850 838 850c471 0 834 -342 834 -843c0 -503 -367 -853 -840 -853zM960 248c291 0 515 237 515 570c0 330 -219 562 -511 562s-513 -231 -513 -564c0 -331 218 -568 509 -568zM900 1857l-412 509h381l303 -509h-272z" />
    <glyph glyph-name="ohungarumlaut" unicode="&#x151;" horiz-adv-x="1928" 
d="M960 -33c-471 0 -832 346 -832 846c0 502 363 850 838 850c471 0 834 -342 834 -843c0 -503 -367 -853 -840 -853zM960 248c291 0 515 237 515 570c0 330 -219 562 -511 562s-513 -231 -513 -564c0 -331 218 -568 509 -568zM512 1871l288 508h369l-395 -508h-262z
M1058 1871l287 508h370l-395 -508h-262z" />
    <glyph glyph-name="otilde" unicode="&#xf5;" horiz-adv-x="1928" 
d="M716 1900h-195c23 255 137 380 278 380c174 0 219 -175 311 -175c50 0 86 49 104 167h193c-22 -256 -136 -381 -277 -381c-175 0 -218 176 -310 176c-53 0 -87 -54 -104 -167zM128 813c0 502 363 850 838 850c471 0 834 -342 834 -843c0 -503 -367 -853 -840 -853
c-471 0 -832 346 -832 846zM1475 818c0 330 -219 562 -511 562s-513 -231 -513 -564c0 -331 218 -568 509 -568s515 237 515 570z" />
    <glyph glyph-name="oslash" unicode="&#xf8;" horiz-adv-x="1928" 
d="M1512 1821l175 -126l-159 -237c168 -149 272 -371 272 -638c0 -503 -367 -853 -840 -853c-139 0 -268 30 -381 84l-163 -242l-175 126l159 236c-168 150 -272 374 -272 642c0 502 363 850 838 850c139 0 269 -30 382 -85zM960 248c291 0 515 237 515 570
c0 151 -46 282 -124 379l-607 -901c65 -31 138 -48 216 -48zM576 432l606 899c-66 32 -139 49 -218 49c-292 0 -513 -231 -513 -564c0 -153 46 -286 125 -384z" />
    <glyph glyph-name="oe" unicode="&#x153;" horiz-adv-x="3154" 
d="M128 813c0 502 363 850 838 850c277 0 517 -119 667 -319c150 207 380 319 644 319c471 0 767 -356 767 -814c0 -53 -4 -106 -8 -134h-1241c29 -297 232 -474 522 -474c169 0 345 60 474 159l148 -201c-157 -145 -391 -232 -637 -232c-278 0 -525 110 -676 317
c-152 -199 -392 -317 -667 -317c-470 0 -831 346 -831 846zM1475 818c0 330 -219 562 -511 562s-513 -231 -513 -564c0 -331 218 -568 509 -568s515 237 515 570zM1800 950h928c-18 235 -170 439 -446 439c-257 0 -444 -177 -482 -439z" />
    <glyph glyph-name="racute" unicode="&#x155;" horiz-adv-x="1206" 
d="M229 0v1630h265l31 -254l2 -1c94 199 229 288 450 288c74 0 149 -10 217 -28l-49 -295c-62 19 -121 29 -184 29c-339 0 -414 -291 -414 -628v-741h-318zM473 1871l303 509h381l-412 -509h-272z" />
    <glyph glyph-name="rcaron" unicode="&#x159;" horiz-adv-x="1206" 
d="M229 0v1630h265l31 -254l2 -1c94 199 229 288 450 288c74 0 149 -10 217 -28l-49 -295c-62 19 -121 29 -184 29c-339 0 -414 -291 -414 -628v-741h-318zM508 2364l203 -307l207 307h264l-353 -509h-229l-359 509h267z" />
    <glyph glyph-name="sacute" unicode="&#x15b;" horiz-adv-x="1464" 
d="M249 397c138 -98 277 -160 452 -160c155 0 330 49 330 208c0 355 -871 132 -871 730c0 331 266 488 593 488c198 0 389 -58 545 -173l-129 -213c-111 74 -266 121 -400 121c-144 0 -297 -54 -297 -201c0 -351 876 -143 876 -737c0 -340 -287 -493 -634 -493
c-246 0 -416 77 -616 224zM865 2366h381l-412 -509h-272z" />
    <glyph glyph-name="scaron" unicode="&#x161;" horiz-adv-x="1464" 
d="M249 397c138 -98 277 -160 452 -160c155 0 330 49 330 208c0 355 -871 132 -871 730c0 331 266 488 593 488c198 0 389 -58 545 -173l-129 -213c-111 74 -266 121 -400 121c-144 0 -297 -54 -297 -201c0 -351 876 -143 876 -737c0 -340 -287 -493 -634 -493
c-246 0 -416 77 -616 224zM722 2059l207 307h264l-353 -509h-229l-359 509h267z" />
    <glyph glyph-name="scedilla" unicode="&#x15f;" horiz-adv-x="1464" 
d="M1298 1490l-129 -213c-111 74 -266 121 -400 121c-144 0 -297 -54 -297 -201c0 -351 876 -143 876 -737c0 -287 -204 -441 -477 -481l-101 -159c129 -11 257 -85 257 -241c0 -190 -179 -271 -365 -271c-97 0 -194 24 -265 65l56 148c71 -34 146 -51 201 -51
c66 0 138 26 138 100c0 115 -186 144 -282 144l150 255c-218 10 -377 86 -562 222l151 206c138 -98 277 -160 452 -160c155 0 330 49 330 208c0 355 -871 132 -871 730c0 331 266 488 593 488c198 0 389 -58 545 -173z" />
    <glyph glyph-name="uni0219" unicode="&#x219;" horiz-adv-x="1464" 
d="M249 397c138 -98 277 -160 452 -160c155 0 330 49 330 208c0 355 -871 132 -871 730c0 331 266 488 593 488c198 0 389 -58 545 -173l-129 -213c-111 74 -266 121 -400 121c-144 0 -297 -54 -297 -201c0 -351 876 -143 876 -737c0 -340 -287 -493 -634 -493
c-246 0 -416 77 -616 224zM595 -854l-45 113c65 35 155 89 155 175s-89 115 -89 213c0 82 61 156 157 156c109 0 164 -98 164 -211c0 -189 -154 -390 -342 -446z" />
    <glyph glyph-name="tcaron" unicode="&#x165;" horiz-adv-x="1145" 
d="M51 1354v276h295v508l318 63v-571h414v-276h-414v-720c0 -309 135 -359 363 -406l-39 -261c-319 0 -642 158 -642 556v831h-295zM817 1957c65 35 155 89 155 175s-89 115 -89 213c0 82 61 156 157 156c109 0 164 -98 164 -211c0 -189 -154 -390 -342 -446z" />
    <glyph glyph-name="uni0163" unicode="&#x163;" horiz-adv-x="1145" 
d="M51 1354v276h295v508l318 63v-571h414v-276h-414v-720c0 -309 135 -359 363 -406l-39 -261c-319 0 -642 158 -642 556v831h-295zM476 -720c65 35 155 89 155 175s-89 115 -89 213c0 82 61 156 157 156c109 0 164 -98 164 -211c0 -189 -154 -390 -342 -446z" />
    <glyph glyph-name="uacute" unicode="&#xfa;" horiz-adv-x="1884" 
d="M1655 1630v-1630h-265l-29 228c-127 -184 -323 -261 -539 -261c-405 0 -612 271 -612 677v986h320v-974c0 -247 125 -399 376 -399c277 0 429 186 429 465v908h320zM747 1859l303 509h381l-412 -509h-272z" />
    <glyph glyph-name="ucircumflex" unicode="&#xfb;" horiz-adv-x="1884" 
d="M1655 1630v-1630h-265l-29 228c-127 -184 -323 -261 -539 -261c-405 0 -612 271 -612 677v986h320v-974c0 -247 125 -399 376 -399c277 0 429 186 429 465v908h320zM1062 2368l359 -509h-267l-203 307l-207 -307h-264l353 509h229z" />
    <glyph glyph-name="udieresis" unicode="&#xfc;" horiz-adv-x="1884" 
d="M1655 1630v-1630h-265l-29 228c-127 -184 -323 -261 -539 -261c-405 0 -612 271 -612 677v986h320v-974c0 -247 125 -399 376 -399c277 0 429 186 429 465v908h320zM628 1879c-105 0 -190 81 -190 187s85 188 190 188c106 0 185 -82 185 -188s-79 -187 -185 -187z
M1241 1879c-105 0 -188 81 -188 187s83 188 188 188c106 0 186 -82 186 -188s-80 -187 -186 -187z" />
    <glyph glyph-name="ugrave" unicode="&#xf9;" horiz-adv-x="1884" 
d="M1655 1630v-1630h-265l-29 228c-127 -184 -323 -261 -539 -261c-405 0 -612 271 -612 677v986h320v-974c0 -247 125 -399 376 -399c277 0 429 186 429 465v908h320zM861 1859l-412 509h381l303 -509h-272z" />
    <glyph glyph-name="uhungarumlaut" unicode="&#x171;" horiz-adv-x="1884" 
d="M1655 1630v-1630h-265l-29 228c-127 -184 -323 -261 -539 -261c-405 0 -612 271 -612 677v986h320v-974c0 -247 125 -399 376 -399c277 0 429 186 429 465v908h320zM473 1873l288 508h369l-395 -508h-262zM1019 1873l287 508h370l-395 -508h-262z" />
    <glyph glyph-name="uring" unicode="&#x16f;" horiz-adv-x="1884" 
d="M1655 1630v-1630h-265l-29 228c-127 -184 -323 -261 -539 -261c-405 0 -612 271 -612 677v986h320v-974c0 -247 125 -399 376 -399c277 0 429 186 429 465v908h320zM932 1818c-186 0 -338 152 -338 338c0 187 152 339 338 339c187 0 338 -152 338 -339
c0 -186 -151 -338 -338 -338zM932 1974c101 0 183 81 183 182s-82 183 -183 183c-100 0 -182 -82 -182 -183s82 -182 182 -182z" />
    <glyph glyph-name="yacute" unicode="&#xfd;" horiz-adv-x="1749" 
d="M882 365l489 1265h330l-805 -1976c-104 -256 -306 -372 -518 -372c-76 0 -160 16 -237 45l43 259c43 -10 80 -17 130 -17c141 0 257 57 346 279l56 139l-649 1643h350zM737 1887l303 509h381l-412 -509h-272z" />
    <glyph glyph-name="ydieresis" unicode="&#xff;" horiz-adv-x="1749" 
d="M882 365l489 1265h330l-805 -1976c-104 -256 -306 -372 -518 -372c-76 0 -160 16 -237 45l43 259c43 -10 80 -17 130 -17c141 0 257 57 346 279l56 139l-649 1643h350zM611 1907c-105 0 -190 81 -190 187s85 188 190 188c106 0 185 -82 185 -188s-79 -187 -185 -187z
M1224 1907c-105 0 -188 81 -188 187s83 188 188 188c106 0 186 -82 186 -188s-80 -187 -186 -187z" />
    <glyph glyph-name="zacute" unicode="&#x17a;" horiz-adv-x="1628" 
d="M1497 273v-273h-1381v242l941 1117h-898v271h1332v-232l-953 -1125h959zM632 1856l303 509h381l-412 -509h-272z" />
    <glyph glyph-name="zcaron" unicode="&#x17e;" horiz-adv-x="1628" 
d="M1497 273v-273h-1381v242l941 1117h-898v271h1332v-232l-953 -1125h959zM646 2366l203 -307l207 307h264l-353 -509h-229l-359 509h267z" />
    <glyph glyph-name="zdotaccent" unicode="&#x17c;" horiz-adv-x="1628" 
d="M833 1876c-110 0 -196 85 -196 195s86 196 196 196s193 -86 193 -196s-83 -195 -193 -195zM1497 273v-273h-1381v242l941 1117h-898v271h1332v-232l-953 -1125h959z" />
    <glyph glyph-name="eth" unicode="&#xf0;" horiz-adv-x="1844" 
d="M463 2265l212 133c96 -49 206 -125 317 -222l291 159l148 -169l-273 -150c291 -311 549 -751 549 -1208c0 -519 -333 -841 -791 -841c-454 0 -780 317 -780 794c0 485 338 797 734 797c112 0 223 -25 317 -83c-58 149 -157 287 -271 408l-307 -168l-147 173l286 156
c-100 87 -201 161 -285 221zM912 241c287 0 483 221 483 522c0 287 -177 524 -478 524c-305 0 -477 -243 -477 -528c0 -292 181 -518 472 -518z" />
    <glyph glyph-name="thorn" unicode="&#xfe;" horiz-adv-x="1984" 
d="M549 2425v-1008h2c120 168 324 246 536 246c458 0 765 -363 765 -848s-307 -848 -765 -848c-212 0 -416 78 -536 246h-2v-868l-320 -63v3080zM1529 815c0 344 -204 565 -494 565c-316 0 -495 -262 -495 -569c0 -321 195 -561 496 -561c288 0 493 221 493 565z" />
    <glyph glyph-name="germandbls" unicode="&#xdf;" horiz-adv-x="1941" 
d="M545 1700v-1700h-316v1740c0 453 323 685 701 685c394 0 684 -253 684 -595c0 -354 -309 -430 -309 -576c0 -189 518 -203 518 -691c0 -364 -287 -596 -668 -596c-164 0 -279 43 -380 80l43 269c88 -30 203 -56 294 -56c181 0 401 102 401 312c0 338 -571 301 -571 663
c0 285 352 288 352 575c0 170 -123 333 -356 333c-219 0 -393 -144 -393 -443z" />
    <glyph glyph-name="A.sc" horiz-adv-x="1910" 
d="M1518 0l-177 508h-787l-174 -508h-331l719 1970h369l729 -1970h-348zM649 776h596l-300 860z" />
    <glyph glyph-name="B.sc" horiz-adv-x="1820" 
d="M271 1970h668c373 0 612 -195 612 -513c0 -196 -90 -342 -242 -414c215 -53 372 -235 372 -488c0 -326 -260 -555 -628 -555h-782v1970zM975 877h-388v-595h417c193 0 350 97 350 298c0 200 -155 297 -379 297zM892 1691h-305v-545h326c169 0 320 92 320 288
c0 188 -138 257 -341 257z" />
    <glyph glyph-name="C.sc" horiz-adv-x="1904" 
d="M1660 426l149 -233c-183 -146 -445 -221 -681 -221c-566 0 -985 434 -985 1005c0 580 433 1021 998 1021c237 0 485 -77 666 -224l-147 -228c-120 106 -339 167 -510 167c-383 0 -681 -310 -681 -730c0 -415 292 -724 673 -724c172 0 393 63 518 167z" />
    <glyph glyph-name="D.sc" horiz-adv-x="2051" 
d="M952 0h-681v1970h683c615 0 946 -434 946 -985c0 -560 -342 -985 -948 -985zM592 282h309c447 0 678 227 678 701c0 490 -247 705 -669 705h-318v-1406z" />
    <glyph glyph-name="E.sc" horiz-adv-x="1673" 
d="M271 0v1970h1234v-281h-914v-556h796v-280h-796v-572h938v-281h-1258z" />
    <glyph glyph-name="F.sc" horiz-adv-x="1627" 
d="M591 814v-814h-320v1970h1244v-281h-924v-596h770v-279h-770z" />
    <glyph glyph-name="G.sc" horiz-adv-x="2128" 
d="M1687 773h-504v263h842c0 -632 -284 -1064 -890 -1064c-602 0 -990 425 -990 993c0 595 425 1033 996 1033c240 0 487 -77 668 -224l-146 -227c-128 106 -333 166 -506 166c-402 0 -683 -325 -683 -729c0 -391 264 -730 653 -730c306 0 547 210 560 519z" />
    <glyph glyph-name="H.sc" horiz-adv-x="2093" 
d="M271 0v1970h321v-837h909v837h321v-1970h-321v855h-909v-855h-321z" />
    <glyph glyph-name="I.sc" horiz-adv-x="862" 
d="M271 0v1970h321v-1970h-321z" />
    <glyph glyph-name="J.sc" horiz-adv-x="1446" 
d="M878 627v1343h315v-1387c0 -346 -223 -611 -610 -611c-222 0 -432 88 -541 322l213 157c53 -112 160 -185 303 -185c185 0 320 122 320 361z" />
    <glyph glyph-name="K.sc" horiz-adv-x="1809" 
d="M674 897h-83v-897h-320v1970h320v-778h87l677 778h372l-795 -915l885 -1055h-391z" />
    <glyph glyph-name="L.sc" horiz-adv-x="1535" 
d="M271 0v1970h321v-1689h885v-281h-1206z" />
    <glyph glyph-name="M.sc" horiz-adv-x="2615" 
d="M312 1970h363l642 -1301l632 1301h353l80 -1970h-327l-54 1465l-580 -1204h-226l-592 1205l-55 -1466h-314z" />
    <glyph glyph-name="N.sc" horiz-adv-x="2112" 
d="M573 1465l4 -1465h-306v1970h342l928 -1477l-4 1477h304v-1970h-346z" />
    <glyph glyph-name="O.sc" horiz-adv-x="2288" 
d="M1143 -28c-572 0 -1000 439 -1000 1014c0 583 439 1012 1004 1012c566 0 998 -430 998 -1009s-431 -1017 -1002 -1017zM1143 256c390 0 673 311 673 729s-284 728 -674 728c-388 0 -673 -308 -673 -728c0 -418 283 -729 674 -729z" />
    <glyph glyph-name="P.sc" horiz-adv-x="1759" 
d="M587 691v-691h-316v1970h718c432 0 668 -276 668 -631c0 -367 -253 -648 -665 -648h-405zM587 973h355c250 0 394 138 394 360c0 227 -150 355 -394 355h-355v-715z" />
    <glyph glyph-name="Q.sc" horiz-adv-x="2292" 
d="M1681 530c87 123 137 279 137 455c0 418 -284 728 -674 728c-388 0 -673 -308 -673 -728c0 -418 283 -729 674 -729c114 0 219 27 310 75l-336 373l228 194zM1789 -39l-131 145c-149 -86 -323 -134 -513 -134c-572 0 -1000 439 -1000 1014c0 583 439 1012 1004 1012
c566 0 998 -430 998 -1009c0 -272 -95 -512 -254 -691l132 -145z" />
    <glyph glyph-name="R.sc" horiz-adv-x="1828" 
d="M271 0v1970h709c418 0 668 -260 668 -609c0 -270 -150 -486 -401 -574l479 -787h-384l-428 744h-327v-744h-316zM587 1026h345c247 0 395 118 395 329c0 220 -163 333 -395 333h-345v-662z" />
    <glyph glyph-name="S.sc" horiz-adv-x="1676" 
d="M269 458c156 -131 350 -201 550 -201c208 0 396 76 396 274c0 464 -1037 179 -1037 886c0 373 290 581 667 581c231 0 481 -78 660 -223l-145 -228c-130 108 -342 170 -501 170c-193 0 -366 -91 -366 -275c0 -451 1042 -158 1042 -879c0 -396 -314 -591 -708 -591
c-265 0 -500 88 -707 252z" />
    <glyph glyph-name="T.sc" horiz-adv-x="1672" 
d="M1599 1970v-283h-602v-1687h-322v1687h-602v283h1526z" />
    <glyph glyph-name="U.sc" horiz-adv-x="2040" 
d="M1476 708v1262h314v-1260c0 -445 -315 -738 -772 -738s-768 293 -768 737v1261h322v-1262c0 -272 191 -450 456 -450c262 0 448 175 448 450z" />
    <glyph glyph-name="V.sc" horiz-adv-x="1808" 
d="M425 1970l487 -1496l489 1496h331l-684 -1970h-290l-680 1970h347z" />
    <glyph glyph-name="W.sc" horiz-adv-x="2767" 
d="M84 1970h347l433 -1489l379 1228h291l387 -1232l432 1493h332l-628 -1970h-300l-380 1190l-372 -1190h-299z" />
    <glyph glyph-name="X.sc" horiz-adv-x="1869" 
d="M32 0l709 1012l-668 958h385l482 -702l491 702h368l-672 -944l706 -1026h-383l-521 770l-528 -770h-369z" />
    <glyph glyph-name="Y.sc" horiz-adv-x="1895" 
d="M1827 1970l-722 -1147v-823h-319v822l-709 1148h374l501 -841l526 841h349z" />
    <glyph glyph-name="Z.sc" 
d="M1574 278v-278h-1448v231l1023 1463h-988v276h1398v-234l-1026 -1458h1041z" />
    <glyph glyph-name="Aacute.sc" horiz-adv-x="1910" 
d="M1518 0l-177 508h-787l-174 -508h-331l719 1970h369l729 -1970h-348zM806 2147l324 412h408l-441 -412h-291zM649 776h596l-300 860z" />
    <glyph glyph-name="Abreve.sc" horiz-adv-x="1910" 
d="M1197 2524h204c-20 -210 -151 -381 -435 -381c-282 0 -413 171 -433 381h203c17 -102 91 -196 230 -196c140 0 214 94 231 196zM1341 508h-787l-174 -508h-331l719 1970h369l729 -1970h-348zM1245 776l-300 860l-296 -860h596z" />
    <glyph glyph-name="Acircumflex.sc" horiz-adv-x="1910" 
d="M1518 0l-177 508h-787l-174 -508h-331l719 1970h369l729 -1970h-348zM1086 2559l384 -412h-286l-217 249l-222 -249h-282l378 412h245zM649 776h596l-300 860z" />
    <glyph glyph-name="Adieresis.sc" horiz-adv-x="1910" 
d="M664 2139c-105 0 -190 81 -190 187s85 188 190 188c106 0 185 -82 185 -188s-79 -187 -185 -187zM1277 2139c-105 0 -188 81 -188 187s83 188 188 188c106 0 186 -82 186 -188s-80 -187 -186 -187zM1518 0l-177 508h-787l-174 -508h-331l719 1970h369l729 -1970h-348z
M649 776h596l-300 860z" />
    <glyph glyph-name="Agrave.sc" horiz-adv-x="1910" 
d="M1518 0l-177 508h-787l-174 -508h-331l719 1970h369l729 -1970h-348zM829 2153l-441 412h408l324 -412h-291zM649 776h596l-300 860z" />
    <glyph glyph-name="Aogonek.sc" horiz-adv-x="1910" 
d="M554 508l-174 -508h-331l719 1970h369l729 -1970h-84c-74 -74 -193 -208 -193 -339c0 -85 49 -150 147 -150c61 0 120 20 161 48l56 -143c-75 -61 -185 -99 -287 -99c-172 0 -310 103 -310 276c0 160 122 314 226 407h-64l-177 508h-787zM649 776h596l-300 860z" />
    <glyph glyph-name="Aring.sc" horiz-adv-x="1910" 
d="M964 2122c-186 0 -338 152 -338 338c0 187 152 339 338 339c187 0 338 -152 338 -339c0 -186 -151 -338 -338 -338zM964 2278c101 0 183 81 183 182s-82 183 -183 183c-100 0 -182 -82 -182 -183s82 -182 182 -182zM1518 0l-177 508h-787l-174 -508h-331l719 1970h369
l729 -1970h-348zM649 776h596l-300 860z" />
    <glyph glyph-name="Atilde.sc" horiz-adv-x="1910" 
d="M718 2160h-195c23 244 137 364 278 364c174 0 219 -168 311 -168c50 0 86 47 104 161h193c-22 -246 -136 -366 -277 -366c-175 0 -218 169 -310 169c-53 0 -87 -52 -104 -160zM1341 508h-787l-174 -508h-331l719 1970h369l729 -1970h-348zM1245 776l-300 860l-296 -860
h596z" />
    <glyph glyph-name="AE.sc" horiz-adv-x="2662" 
d="M1580 1689v-556h796v-280h-796v-572h938v-281h-1258v474h-628l-237 -474h-356l1032 1970h1423v-281h-914zM771 742h489v947h-16z" />
    <glyph glyph-name="Cacute.sc" horiz-adv-x="1904" 
d="M1660 426l149 -233c-183 -146 -445 -221 -681 -221c-566 0 -985 434 -985 1005c0 580 433 1021 998 1021c237 0 485 -77 666 -224l-147 -228c-120 106 -339 167 -510 167c-383 0 -681 -310 -681 -730c0 -415 292 -724 673 -724c172 0 393 63 518 167zM1146 2571h408
l-441 -412h-291z" />
    <glyph glyph-name="Ccaron.sc" horiz-adv-x="1904" 
d="M1660 426l149 -233c-183 -146 -445 -221 -681 -221c-566 0 -985 434 -985 1005c0 580 433 1021 998 1021c237 0 485 -77 666 -224l-147 -228c-120 106 -339 167 -510 167c-383 0 -681 -310 -681 -730c0 -415 292 -724 673 -724c172 0 393 63 518 167zM1045 2323l221 248
h283l-378 -412h-245l-384 412h286z" />
    <glyph glyph-name="Ccedilla.sc" horiz-adv-x="1904" 
d="M1660 426l149 -233c-156 -124 -368 -197 -573 -216l-111 -173c129 -11 257 -85 257 -241c0 -190 -179 -271 -365 -271c-97 0 -194 24 -265 65l56 148c71 -34 146 -51 201 -51c66 0 138 26 138 100c0 115 -186 144 -282 144l165 279c-516 46 -887 462 -887 1000
c0 580 433 1021 998 1021c237 0 485 -77 666 -224l-147 -228c-120 106 -339 167 -510 167c-383 0 -681 -310 -681 -730c0 -415 292 -724 673 -724c172 0 393 63 518 167z" />
    <glyph glyph-name="Dcaron.sc" horiz-adv-x="2051" 
d="M952 0h-681v1970h683c615 0 946 -434 946 -985c0 -560 -342 -985 -948 -985zM592 282h309c447 0 678 227 678 701c0 490 -247 705 -669 705h-318v-1406zM998 2303l221 248h283l-378 -412h-245l-384 412h286z" />
    <glyph glyph-name="Dcroat.sc" horiz-adv-x="2074" 
d="M293 1111v859h683c616 0 947 -434 947 -985c0 -560 -342 -985 -949 -985h-681v851h-216v260h216zM614 1688v-577h422v-260h-422v-569h310c446 0 677 227 677 701c0 490 -247 705 -668 705h-319z" />
    <glyph glyph-name="Eacute.sc" horiz-adv-x="1673" 
d="M271 0v1970h1234v-281h-914v-556h796v-280h-796v-572h938v-281h-1258zM674 2147l324 412h408l-441 -412h-291z" />
    <glyph glyph-name="Ecaron.sc" horiz-adv-x="1673" 
d="M271 0v1970h1234v-281h-914v-556h796v-280h-796v-572h938v-281h-1258zM669 2559l217 -248l221 248h283l-378 -412h-245l-384 412h286z" />
    <glyph glyph-name="Ecircumflex.sc" horiz-adv-x="1673" 
d="M271 0v1970h1234v-281h-914v-556h796v-280h-796v-572h938v-281h-1258zM1017 2559l384 -412h-286l-217 249l-222 -249h-282l378 412h245z" />
    <glyph glyph-name="Edieresis.sc" horiz-adv-x="1673" 
d="M590 2142c-105 0 -190 81 -190 187s85 188 190 188c106 0 185 -82 185 -188s-79 -187 -185 -187zM1203 2142c-105 0 -188 81 -188 187s83 188 188 188c106 0 186 -82 186 -188s-80 -187 -186 -187zM271 0v1970h1234v-281h-914v-556h796v-280h-796v-572h938v-281h-1258z
" />
    <glyph glyph-name="Egrave.sc" horiz-adv-x="1673" 
d="M271 0v1970h1234v-281h-914v-556h796v-280h-796v-572h938v-281h-1258zM821 2153l-441 412h408l324 -412h-291z" />
    <glyph glyph-name="Eogonek.sc" horiz-adv-x="1673" 
d="M1505 1970v-281h-914v-556h796v-280h-796v-572h938v-281h-138c-74 -74 -193 -208 -193 -339c0 -85 49 -150 147 -150c61 0 120 20 161 48l56 -143c-75 -61 -185 -99 -287 -99c-172 0 -310 103 -310 276c0 160 122 314 226 407h-920v1970h1234z" />
    <glyph glyph-name="Gbreve.sc" horiz-adv-x="2128" 
d="M1687 773h-504v263h842c0 -632 -284 -1064 -890 -1064c-602 0 -990 425 -990 993c0 595 425 1033 996 1033c240 0 487 -77 668 -224l-146 -227c-128 106 -333 166 -506 166c-402 0 -683 -325 -683 -729c0 -391 264 -730 653 -730c306 0 547 210 560 519zM1381 2557h204
c-20 -210 -151 -381 -435 -381c-282 0 -413 171 -433 381h203c17 -102 91 -196 230 -196c140 0 214 94 231 196z" />
    <glyph glyph-name="Iacute.sc" horiz-adv-x="862" 
d="M271 0v1970h321v-1970h-321zM272 2147l324 412h408l-441 -412h-291z" />
    <glyph glyph-name="Icircumflex.sc" horiz-adv-x="862" 
d="M551 2559l384 -412h-286l-217 249l-222 -249h-282l378 412h245zM271 0v1970h321v-1970h-321z" />
    <glyph glyph-name="Idieresis.sc" horiz-adv-x="862" 
d="M127 2142c-105 0 -190 81 -190 187s85 188 190 188c106 0 185 -82 185 -188s-79 -187 -185 -187zM740 2142c-105 0 -188 81 -188 187s83 188 188 188c106 0 186 -82 186 -188s-80 -187 -186 -187zM271 0v1970h321v-1970h-321z" />
    <glyph glyph-name="Idotaccent.sc" horiz-adv-x="862" 
d="M432 2141c-110 0 -196 85 -196 195s86 196 196 196s193 -86 193 -196s-83 -195 -193 -195zM271 0v1970h321v-1970h-321z" />
    <glyph glyph-name="Igrave.sc" horiz-adv-x="862" 
d="M314 2153l-441 412h408l324 -412h-291zM271 0v1970h321v-1970h-321z" />
    <glyph glyph-name="Lacute.sc" horiz-adv-x="1535" 
d="M271 0v1970h321v-1689h885v-281h-1206zM298 2147l324 412h408l-441 -412h-291z" />
    <glyph glyph-name="Lcaron.sc" horiz-adv-x="1535" 
d="M836 1430c65 35 155 89 155 175s-89 115 -89 213c0 82 61 156 157 156c109 0 164 -98 164 -211c0 -189 -154 -390 -342 -446zM271 1970h321v-1689h885v-281h-1206v1970z" />
    <glyph glyph-name="Lslash.sc" horiz-adv-x="1576" 
d="M312 1014v956h321v-735l446 306v-263l-446 -305v-692h885v-281h-1206v753l-251 -171v260z" />
    <glyph glyph-name="Nacute.sc" horiz-adv-x="2112" 
d="M573 1465l4 -1465h-306v1970h342l928 -1477l-4 1477h304v-1970h-346zM843 2147l324 412h408l-441 -412h-291z" />
    <glyph glyph-name="Ncaron.sc" horiz-adv-x="2112" 
d="M573 1465l4 -1465h-306v1970h342l928 -1477l-4 1477h304v-1970h-346zM838 2551l217 -248l221 248h283l-378 -412h-245l-384 412h286z" />
    <glyph glyph-name="Ntilde.sc" horiz-adv-x="2112" 
d="M820 2160h-195c23 244 137 364 278 364c174 0 219 -168 311 -168c50 0 86 47 104 161h193c-22 -246 -136 -366 -277 -366c-175 0 -218 169 -310 169c-53 0 -87 -52 -104 -160zM577 0h-306v1970h342l928 -1477l-4 1477h304v-1970h-346l-922 1465z" />
    <glyph glyph-name="Oacute.sc" horiz-adv-x="2288" 
d="M1143 -28c-572 0 -1000 439 -1000 1014c0 583 439 1012 1004 1012c566 0 998 -430 998 -1009s-431 -1017 -1002 -1017zM1143 256c390 0 673 311 673 729s-284 728 -674 728c-388 0 -673 -308 -673 -728c0 -418 283 -729 674 -729zM939 2159l324 412h408l-441 -412h-291z
" />
    <glyph glyph-name="Ocircumflex.sc" horiz-adv-x="2288" 
d="M1143 -28c-572 0 -1000 439 -1000 1014c0 583 439 1012 1004 1012c566 0 998 -430 998 -1009s-431 -1017 -1002 -1017zM1143 256c390 0 673 311 673 729s-284 728 -674 728c-388 0 -673 -308 -673 -728c0 -418 283 -729 674 -729zM1263 2571l384 -412h-286l-217 249
l-222 -249h-282l378 412h245z" />
    <glyph glyph-name="Odieresis.sc" horiz-adv-x="2288" 
d="M840 2151c-105 0 -190 81 -190 187s85 188 190 188c106 0 185 -82 185 -188s-79 -187 -185 -187zM1143 -28c-572 0 -1000 439 -1000 1014c0 583 439 1012 1004 1012c566 0 998 -430 998 -1009s-431 -1017 -1002 -1017zM1143 256c390 0 673 311 673 729s-284 728 -674 728
c-388 0 -673 -308 -673 -728c0 -418 283 -729 674 -729zM1453 2151c-105 0 -188 81 -188 187s83 188 188 188c106 0 186 -82 186 -188s-80 -187 -186 -187z" />
    <glyph glyph-name="Ograve.sc" horiz-adv-x="2288" 
d="M1143 -28c-572 0 -1000 439 -1000 1014c0 583 439 1012 1004 1012c566 0 998 -430 998 -1009s-431 -1017 -1002 -1017zM1143 256c390 0 673 311 673 729s-284 728 -674 728c-388 0 -673 -308 -673 -728c0 -418 283 -729 674 -729zM1079 2164l-441 412h408l324 -412h-291z
" />
    <glyph glyph-name="Ohungarumlaut.sc" horiz-adv-x="2288" 
d="M1143 -28c-572 0 -1000 439 -1000 1014c0 583 439 1012 1004 1012c566 0 998 -430 998 -1009s-431 -1017 -1002 -1017zM1143 256c390 0 673 311 673 729s-284 728 -674 728c-388 0 -673 -308 -673 -728c0 -418 283 -729 674 -729zM681 2179l308 412h395l-423 -412h-280z
M1265 2179l307 412h396l-422 -412h-281z" />
    <glyph glyph-name="Otilde.sc" horiz-adv-x="2288" 
d="M897 2169h-195c23 244 137 364 278 364c174 0 219 -168 311 -168c50 0 86 47 104 161h193c-22 -246 -136 -366 -277 -366c-175 0 -218 169 -310 169c-53 0 -87 -52 -104 -160zM143 986c0 583 439 1012 1004 1012c566 0 998 -430 998 -1009s-431 -1017 -1002 -1017
c-572 0 -1000 439 -1000 1014zM1816 985c0 418 -284 728 -674 728c-388 0 -673 -308 -673 -728c0 -418 283 -729 674 -729c390 0 673 311 673 729z" />
    <glyph glyph-name="Oslash.sc" horiz-adv-x="2288" 
d="M1863 2139l196 -155l-205 -270c181 -180 291 -434 291 -725c0 -579 -431 -1017 -1002 -1017c-189 0 -362 47 -510 132l-207 -273l-198 155l206 271c-182 182 -291 438 -291 729c0 583 439 1012 1004 1012c188 0 361 -48 508 -132zM1143 256c390 0 673 311 673 729
c0 186 -57 351 -154 476l-849 -1120c96 -55 207 -85 330 -85zM623 506l851 1120c-97 56 -209 87 -332 87c-388 0 -673 -308 -673 -728c0 -187 57 -353 154 -479z" />
    <glyph glyph-name="OE.sc" horiz-adv-x="3020" 
d="M2852 1970v-281h-914v-556h796v-280h-796v-572h938v-281h-1258v85c-141 -73 -303 -113 -476 -113c-572 0 -999 439 -999 1014c0 583 439 1012 1004 1012c173 0 331 -40 471 -111v83h1234zM1618 455v1059c-120 125 -285 199 -476 199c-389 0 -673 -308 -673 -727
s283 -730 674 -730c190 0 355 74 475 199z" />
    <glyph glyph-name="Racute.sc" horiz-adv-x="1828" 
d="M271 0v1970h709c418 0 668 -260 668 -609c0 -270 -150 -486 -401 -574l479 -787h-384l-428 744h-327v-744h-316zM587 1026h345c247 0 395 118 395 329c0 220 -163 333 -395 333h-345v-662zM625 2138l324 412h408l-441 -412h-291z" />
    <glyph glyph-name="Rcaron.sc" horiz-adv-x="1828" 
d="M271 0v1970h709c418 0 668 -260 668 -609c0 -270 -150 -486 -401 -574l479 -787h-384l-428 744h-327v-744h-316zM587 1026h345c247 0 395 118 395 329c0 220 -163 333 -395 333h-345v-662zM674 2551l217 -248l221 248h283l-378 -412h-245l-384 412h286z" />
    <glyph glyph-name="Sacute.sc" horiz-adv-x="1676" 
d="M269 458c156 -131 350 -201 550 -201c208 0 396 76 396 274c0 464 -1037 179 -1037 886c0 373 290 581 667 581c231 0 481 -78 660 -223l-145 -228c-130 108 -342 170 -501 170c-193 0 -366 -91 -366 -275c0 -451 1042 -158 1042 -879c0 -396 -314 -591 -708 -591
c-265 0 -500 88 -707 252zM956 2571h408l-441 -412h-291z" />
    <glyph glyph-name="Scaron.sc" horiz-adv-x="1676" 
d="M269 458c156 -131 350 -201 550 -201c208 0 396 76 396 274c0 464 -1037 179 -1037 886c0 373 290 581 667 581c231 0 481 -78 660 -223l-145 -228c-130 108 -342 170 -501 170c-193 0 -366 -91 -366 -275c0 -451 1042 -158 1042 -879c0 -396 -314 -591 -708 -591
c-265 0 -500 88 -707 252zM855 2323l221 248h283l-378 -412h-245l-384 412h286z" />
    <glyph glyph-name="Scedilla.sc" horiz-adv-x="1676" 
d="M1505 1775l-145 -228c-130 108 -342 170 -501 170c-193 0 -366 -91 -366 -275c0 -451 1042 -158 1042 -879c0 -339 -230 -531 -543 -579l-115 -180c129 -11 257 -85 257 -241c0 -190 -179 -271 -365 -271c-97 0 -194 24 -265 65l56 148c71 -34 146 -51 201 -51
c66 0 138 26 138 100c0 115 -186 144 -282 144l163 275c-246 10 -466 97 -660 251l149 234c156 -131 350 -201 550 -201c208 0 396 76 396 274c0 464 -1037 179 -1037 886c0 373 290 581 667 581c231 0 481 -78 660 -223z" />
    <glyph glyph-name="uni0218.sc" horiz-adv-x="1676" 
d="M269 458c156 -131 350 -201 550 -201c208 0 396 76 396 274c0 464 -1037 179 -1037 886c0 373 290 581 667 581c231 0 481 -78 660 -223l-145 -228c-130 108 -342 170 -501 170c-193 0 -366 -91 -366 -275c0 -451 1042 -158 1042 -879c0 -396 -314 -591 -708 -591
c-265 0 -500 88 -707 252zM694 -852l-45 113c65 35 155 89 155 175s-89 115 -89 213c0 82 61 156 157 156c109 0 164 -98 164 -211c0 -189 -154 -390 -342 -446z" />
    <glyph glyph-name="Tcaron.sc" horiz-adv-x="1672" 
d="M1599 1970v-283h-602v-1687h-322v1687h-602v283h1526zM618 2559l217 -248l221 248h283l-378 -412h-245l-384 412h286z" />
    <glyph glyph-name="uni0162.sc" horiz-adv-x="1672" 
d="M626 -742c65 35 155 89 155 175s-89 115 -89 213c0 82 61 156 157 156c109 0 164 -98 164 -211c0 -189 -154 -390 -342 -446zM1599 1687h-602v-1687h-322v1687h-602v283h1526v-283z" />
    <glyph glyph-name="Uacute.sc" horiz-adv-x="2040" 
d="M1476 708v1262h314v-1260c0 -445 -315 -738 -772 -738s-768 293 -768 737v1261h322v-1262c0 -272 191 -450 456 -450c262 0 448 175 448 450zM1122 2564h408l-441 -412h-291z" />
    <glyph glyph-name="Ucircumflex.sc" horiz-adv-x="2040" 
d="M1476 708v1262h314v-1260c0 -445 -315 -738 -772 -738s-768 293 -768 737v1261h322v-1262c0 -272 191 -450 456 -450c262 0 448 175 448 450zM1538 2152h-286l-217 249l-222 -249h-282l378 412h245z" />
    <glyph glyph-name="Udieresis.sc" horiz-adv-x="2040" 
d="M1476 708v1262h314v-1260c0 -445 -315 -738 -772 -738s-768 293 -768 737v1261h322v-1262c0 -272 191 -450 456 -450c262 0 448 175 448 450zM526 2334c0 106 85 188 190 188c106 0 185 -82 185 -188s-79 -187 -185 -187c-105 0 -190 81 -190 187zM1141 2334
c0 106 83 188 188 188c106 0 186 -82 186 -188s-80 -187 -186 -187c-105 0 -188 81 -188 187z" />
    <glyph glyph-name="Ugrave.sc" horiz-adv-x="2040" 
d="M1476 708v1262h314v-1260c0 -445 -315 -738 -772 -738s-768 293 -768 737v1261h322v-1262c0 -272 191 -450 456 -450c262 0 448 175 448 450zM528 2570h408l324 -412h-291z" />
    <glyph glyph-name="Uhungarumlaut.sc" horiz-adv-x="2040" 
d="M1476 708v1262h314v-1260c0 -445 -315 -738 -772 -738s-768 293 -768 737v1261h322v-1262c0 -272 191 -450 456 -450c262 0 448 175 448 450zM812 2584h395l-423 -412h-280zM1395 2584h396l-422 -412h-281z" />
    <glyph glyph-name="Uring.sc" horiz-adv-x="2040" 
d="M1476 708v1262h314v-1260c0 -445 -315 -738 -772 -738s-768 293 -768 737v1261h322v-1262c0 -272 191 -450 456 -450c262 0 448 175 448 450zM687 2439c0 187 152 339 338 339c187 0 338 -152 338 -339c0 -186 -151 -338 -338 -338c-186 0 -338 152 -338 338zM1208 2439
c0 101 -82 183 -183 183c-100 0 -182 -82 -182 -183s82 -182 182 -182c101 0 183 81 183 182z" />
    <glyph glyph-name="Yacute.sc" horiz-adv-x="1895" 
d="M1827 1970l-722 -1147v-823h-319v822l-709 1148h374l501 -841l526 841h349zM750 2139l324 412h408l-441 -412h-291z" />
    <glyph glyph-name="Ydieresis.sc" horiz-adv-x="1895" 
d="M666 2133c-105 0 -190 81 -190 187s85 188 190 188c106 0 185 -82 185 -188s-79 -187 -185 -187zM1279 2133c-105 0 -188 81 -188 187s83 188 188 188c106 0 186 -82 186 -188s-80 -187 -186 -187zM1827 1970l-722 -1147v-823h-319v822l-709 1148h374l501 -841l526 841
h349z" />
    <glyph glyph-name="Zacute.sc" 
d="M1574 278v-278h-1448v231l1023 1463h-988v276h1398v-234l-1026 -1458h1041zM659 2147l324 412h408l-441 -412h-291z" />
    <glyph glyph-name="Zcaron.sc" 
d="M1574 278v-278h-1448v231l1023 1463h-988v276h1398v-234l-1026 -1458h1041zM664 2559l217 -248l221 248h283l-378 -412h-245l-384 412h286z" />
    <glyph glyph-name="Zdotaccent.sc" 
d="M867 2141c-110 0 -196 85 -196 195s86 196 196 196s193 -86 193 -196s-83 -195 -193 -195zM1574 278v-278h-1448v231l1023 1463h-988v276h1398v-234l-1026 -1458h1041z" />
    <glyph glyph-name="Eth.sc" horiz-adv-x="2074" 
d="M293 1111v859h683c616 0 947 -434 947 -985c0 -560 -342 -985 -949 -985h-681v851h-216v260h216zM614 1688v-577h422v-260h-422v-569h310c446 0 677 227 677 701c0 490 -247 705 -668 705h-319z" />
    <glyph glyph-name="Thorn.sc" horiz-adv-x="1728" 
d="M586 1970v-353h404c366 0 640 -259 640 -610c0 -350 -273 -613 -638 -613h-406v-394h-315v1970h315zM586 681h335c201 0 392 91 392 327s-191 326 -393 326h-334v-653z" />
    <glyph glyph-name="S_S.sc" horiz-adv-x="3352" 
d="M269 458c137 -114 322 -201 554 -201c278 0 392 126 392 277c0 458 -1037 178 -1037 882c0 363 277 582 666 582c240 0 488 -83 661 -223l-145 -228c-135 113 -350 170 -504 170c-209 0 -363 -104 -363 -276c0 -448 1042 -156 1042 -879c0 -406 -330 -590 -709 -590
c-307 0 -539 120 -706 252zM3181 1775l-145 -228c-136 113 -350 170 -505 170c-208 0 -362 -104 -362 -276c0 -449 1042 -157 1042 -879c0 -406 -330 -590 -710 -590c-306 0 -538 120 -705 252l149 234c137 -114 322 -201 553 -201c279 0 393 126 393 277
c0 457 -1037 179 -1037 882c0 363 277 582 666 582c239 0 488 -83 661 -223z" />
    <glyph glyph-name="ampersand.sc" horiz-adv-x="1886" 
d="M1508 0l-187 213c-157 -140 -345 -240 -555 -240c-330 0 -574 247 -574 563c0 265 171 430 355 564c-102 120 -192 294 -192 451c0 230 196 438 464 438c264 0 454 -203 454 -455c0 -215 -139 -354 -299 -474l356 -403c78 110 135 221 163 299l267 -107
c-48 -121 -128 -271 -235 -413l386 -436h-403zM638 1550c0 -92 68 -185 152 -281c116 85 202 170 202 280c0 99 -71 178 -172 178c-100 0 -182 -77 -182 -177zM1132 429l-401 459c-132 -99 -237 -205 -237 -354c0 -162 122 -273 281 -273c125 0 248 70 357 168z" />
    <glyph glyph-name="zero" unicode="0" horiz-adv-x="2036" 
d="M1017 -33c-531 0 -847 406 -847 1149c0 745 318 1166 850 1166s844 -419 844 -1161c0 -743 -312 -1154 -847 -1154zM1019 255c336 0 518 306 518 865c0 561 -183 871 -519 871c-333 0 -519 -304 -519 -868c0 -561 184 -868 520 -868z" />
    <glyph glyph-name="zero.alt1" horiz-adv-x="2036" 
d="M1017 -33c-531 0 -847 406 -847 1149c0 745 318 1166 850 1166s844 -419 844 -1161c0 -743 -312 -1154 -847 -1154zM1019 255c336 0 518 306 518 865c0 561 -183 871 -519 871c-333 0 -519 -304 -519 -868c0 -561 184 -868 520 -868zM1017 937c-103 0 -186 83 -186 186
s83 187 186 187s187 -84 187 -187s-84 -186 -187 -186z" />
    <glyph glyph-name="one" unicode="1" horiz-adv-x="1570" 
d="M1475 287v-287h-1280v287h500v1406h-490v250c246 0 528 102 572 317h238v-1973h460z" />
    <glyph glyph-name="one.alt1" horiz-adv-x="1280" 
d="M601 0v1693h-490v250c246 0 528 102 572 317h238v-2260h-320z" />
    <glyph glyph-name="two" unicode="2" horiz-adv-x="1780" 
d="M1621 287v-287h-1479v224c246 670 1124 871 1124 1387c0 223 -163 378 -423 378c-203 0 -381 -95 -491 -228l-196 183c143 200 389 338 694 338c413 0 735 -254 735 -669c0 -674 -849 -858 -1026 -1326h1062z" />
    <glyph glyph-name="three" unicode="3" horiz-adv-x="1765" 
d="M100 263l186 203c130 -115 314 -207 507 -207c231 0 490 131 490 396c0 217 -175 344 -386 383c-81 15 -161 16 -335 18v266c79 0 226 1 335 22c165 32 298 128 298 319c0 234 -201 323 -418 323c-175 0 -297 -58 -433 -156l-163 217c144 130 357 235 628 235
c398 0 713 -226 713 -587c0 -238 -136 -405 -351 -497c253 -77 433 -282 433 -568c0 -424 -394 -663 -802 -663c-258 0 -508 95 -702 296z" />
    <glyph glyph-name="four" unicode="4" horiz-adv-x="1903" 
d="M1458 0h-308v506h-1076v236l1114 1518h272v-1483h331v-271h-333v-506zM422 777h728v980z" />
    <glyph glyph-name="five" unicode="5" horiz-adv-x="1793" 
d="M1546 1971h-893l-104 -607c108 54 219 81 345 81c368 0 757 -231 757 -714c0 -470 -369 -764 -822 -764c-310 0 -566 137 -717 311l174 207c138 -140 328 -227 533 -227c316 0 516 208 516 474c0 281 -224 439 -491 439c-144 0 -280 -46 -420 -129l-206 161l178 1046
h1150v-278z" />
    <glyph glyph-name="six" unicode="6" horiz-adv-x="1836" 
d="M1014 1426c382 0 715 -280 715 -718c0 -432 -323 -741 -787 -741c-548 0 -778 430 -778 986c0 731 398 1329 1088 1329c85 0 146 -9 211 -28l-42 -268c-51 8 -105 11 -144 11c-410 0 -737 -332 -789 -801h2c126 151 321 230 524 230zM1413 707c0 267 -192 434 -452 434
c-270 0 -467 -179 -467 -439c0 -256 191 -446 461 -446c263 0 458 181 458 451z" />
    <glyph glyph-name="seven" unicode="7" horiz-adv-x="1678" 
d="M1629 2249v-243c-461 -614 -782 -1248 -934 -2006h-339c133 691 401 1332 875 1965h-1139v284h1537z" />
    <glyph glyph-name="eight" unicode="8" horiz-adv-x="1871" 
d="M935 2282c384 0 656 -258 656 -590c0 -195 -94 -358 -238 -449c220 -110 365 -314 365 -576c0 -397 -335 -700 -783 -700c-451 0 -782 307 -782 695c0 260 148 470 363 581c-143 93 -236 255 -236 449c0 331 270 590 655 590zM939 250c262 0 455 177 455 415
c0 233 -185 419 -459 419c-275 0 -461 -187 -461 -422c0 -254 217 -412 465 -412zM934 1357c201 0 348 145 348 323c0 179 -149 315 -347 315c-197 0 -342 -134 -342 -319c0 -189 150 -319 341 -319z" />
    <glyph glyph-name="nine" unicode="9" horiz-adv-x="1837" 
d="M373 -5l42 268c51 -8 105 -11 144 -11c410 0 737 332 789 801h-2c-126 -151 -321 -230 -524 -230c-382 0 -715 280 -715 718c0 432 323 741 787 741c548 0 778 -430 778 -986c0 -731 -398 -1329 -1088 -1329c-85 0 -146 9 -211 28zM423 1542c0 -267 192 -434 452 -434
c270 0 467 179 467 439c0 256 -191 446 -461 446c-263 0 -458 -181 -458 -451z" />
    <glyph glyph-name="dollar" unicode="$" horiz-adv-x="1832" 
d="M1667 2038l-149 -232c-159 126 -395 191 -576 191c-254 0 -443 -128 -443 -343c0 -542 1203 -216 1203 -1027c0 -403 -297 -613 -666 -652v-315h-274v315c-274 30 -489 146 -648 270l150 236c173 -136 385 -225 635 -225c318 0 481 144 481 346
c0 549 -1199 241 -1199 1031c0 355 243 589 601 639v317h274v-314c224 -23 443 -109 611 -237z" />
    <glyph glyph-name="cent" unicode="&#xa2;" horiz-adv-x="1700" 
d="M1085 281v-294h-261v305c-361 65 -674 341 -674 823c0 464 290 771 674 842v306h261v-294c163 -14 327 -67 455 -160l-138 -229c-109 69 -258 112 -393 112c-309 0 -539 -227 -539 -567c0 -338 227 -566 533 -566c136 0 289 45 399 118l157 -215
c-139 -102 -303 -164 -474 -181z" />
    <glyph glyph-name="Euro" unicode="&#x20ac;" horiz-adv-x="2080" 
d="M1928 2039l-144 -226c-117 99 -301 168 -459 168c-275 0 -499 -210 -599 -508h870l-64 -213h-854c-5 -46 -8 -93 -8 -141c0 -30 1 -60 3 -89h790l-63 -213h-690c89 -320 319 -550 608 -550c158 0 345 69 467 168l146 -229c-167 -153 -410 -239 -636 -239
c-458 0 -814 351 -916 850h-269l64 213h178c-1 27 -2 55 -2 84c0 49 2 98 7 146h-232l64 213h204c119 478 476 809 915 809c228 0 453 -89 620 -243z" />
    <glyph glyph-name="sterling" unicode="&#xa3;" horiz-adv-x="1855" 
d="M469 957h-294v266h251c-17 104 -31 211 -31 317c0 501 325 742 707 742c232 0 479 -89 612 -355l-219 -161c-76 132 -199 215 -373 215c-190 0 -406 -99 -406 -447c0 -100 17 -202 36 -311h410v-266h-370c5 -53 9 -107 9 -163c0 -285 -83 -408 -158 -513h1041v-281h-1509
v251c153 86 305 308 305 568c0 42 -4 89 -11 138z" />
    <glyph glyph-name="yen" unicode="&#xa5;" horiz-adv-x="1905" 
d="M1101 741h479v-224h-479v-517h-321v517h-463v224h463v199l-13 25h-450v225h334l-542 1059h331l501 -997l526 997h333l-566 -1059h346v-225h-466l-13 -24v-200z" />
    <glyph glyph-name="uni20BA" unicode="&#x20ba;" horiz-adv-x="1870" 
d="M812 1298l570 242v-227l-570 -242v-770c293 55 605 214 663 643h286c-26 -643 -617 -987 -1270 -977v968l-316 -134v227l316 134v240l-316 -134v227l316 134v620h321v-484l570 242v-227l-570 -242v-240z" />
    <glyph glyph-name="uni20B9" unicode="&#x20b9;" horiz-adv-x="1442" 
d="M204 2249h1228l-64 -213h-431c78 -79 131 -178 160 -288h335l-63 -214h-250c-11 -334 -229 -589 -579 -651l641 -883h-393l-622 868v281h146c298 0 478 138 488 385h-680l64 214h575c-73 146 -236 221 -447 221h-192z" />
    <glyph glyph-name="florin" unicode="&#x192;" horiz-adv-x="1462" 
d="M182 1408h370l50 369c44 323 282 505 598 505c70 0 147 -9 207 -21l-33 -243c-46 9 -101 13 -138 13c-238 0 -313 -166 -342 -377l-34 -246h430l-32 -241h-431l-135 -980c-60 -434 -314 -642 -660 -642c-34 0 -71 2 -104 6l33 241h39c200 0 347 105 381 358l138 1017
h-369z" />
    <glyph glyph-name="currency" unicode="&#xa4;" horiz-adv-x="2089" 
d="M1698 276l-237 240c-122 -83 -269 -130 -423 -130c-156 0 -298 48 -414 130l-237 -240l-184 188l240 234c-82 119 -130 263 -130 416c0 154 49 296 131 413l-241 237l184 185l241 -241c120 83 266 131 421 131c154 0 295 -48 412 -128l237 237l188 -184l-240 -233
c86 -120 136 -266 136 -422s-51 -299 -136 -415l240 -230zM1040 649c249 0 469 199 469 461c0 253 -205 465 -462 465c-252 0 -464 -203 -464 -462c0 -251 199 -464 457 -464z" />
    <glyph glyph-name="zero.tnum" horiz-adv-x="1864" 
d="M932 -33c-531 0 -847 406 -847 1149c0 745 318 1166 850 1166s844 -419 844 -1161c0 -743 -312 -1154 -847 -1154zM934 255c336 0 518 306 518 865c0 561 -183 871 -519 871c-333 0 -519 -304 -519 -868c0 -561 184 -868 520 -868z" />
    <glyph glyph-name="zero.tnum.alt1" horiz-adv-x="1864" 
d="M932 -33c-531 0 -847 406 -847 1149c0 745 318 1166 850 1166s844 -419 844 -1161c0 -743 -312 -1154 -847 -1154zM934 255c336 0 518 306 518 865c0 561 -183 871 -519 871c-333 0 -519 -304 -519 -868c0 -561 184 -868 520 -868zM932 937c-103 0 -186 83 -186 186
s83 187 186 187s187 -84 187 -187s-84 -186 -187 -186z" />
    <glyph glyph-name="one.tnum" horiz-adv-x="1864" 
d="M1622 287v-287h-1280v287h500v1406h-490v250c246 0 528 102 572 317h238v-1973h460z" />
    <glyph glyph-name="one.tnum.alt1" horiz-adv-x="1864" 
d="M893 0v1693h-490v250c246 0 528 102 572 317h238v-2260h-320z" />
    <glyph glyph-name="two.tnum" horiz-adv-x="1864" 
d="M1663 287v-287h-1479v224c246 670 1124 871 1124 1387c0 223 -163 378 -423 378c-203 0 -381 -95 -491 -228l-196 183c143 200 389 338 694 338c413 0 735 -254 735 -669c0 -674 -849 -858 -1026 -1326h1062z" />
    <glyph glyph-name="three.tnum" horiz-adv-x="1864" 
d="M150 263l186 203c130 -115 314 -207 507 -207c231 0 490 131 490 396c0 217 -175 344 -386 383c-81 15 -161 16 -335 18v266c79 0 226 1 335 22c165 32 298 128 298 319c0 234 -201 323 -418 323c-175 0 -297 -58 -433 -156l-163 217c144 130 357 235 628 235
c398 0 713 -226 713 -587c0 -238 -136 -405 -351 -497c253 -77 433 -282 433 -568c0 -424 -394 -663 -802 -663c-258 0 -508 95 -702 296z" />
    <glyph glyph-name="four.tnum" horiz-adv-x="1864" 
d="M1438 0h-308v506h-1076v236l1114 1518h272v-1483h331v-271h-333v-506zM402 777h728v980z" />
    <glyph glyph-name="five.tnum" horiz-adv-x="1864" 
d="M1582 1971h-893l-104 -607c108 54 219 81 345 81c368 0 757 -231 757 -714c0 -470 -369 -764 -822 -764c-310 0 -566 137 -717 311l174 207c138 -140 328 -227 533 -227c316 0 516 208 516 474c0 281 -224 439 -491 439c-144 0 -280 -46 -420 -129l-206 161l178 1046
h1150v-278z" />
    <glyph glyph-name="six.tnum" horiz-adv-x="1864" 
d="M1028 1426c382 0 715 -280 715 -718c0 -432 -323 -741 -787 -741c-548 0 -778 430 -778 986c0 731 398 1329 1088 1329c85 0 146 -9 211 -28l-42 -268c-51 8 -105 11 -144 11c-410 0 -737 -332 -789 -801h2c126 151 321 230 524 230zM1427 707c0 267 -192 434 -452 434
c-270 0 -467 -179 -467 -439c0 -256 191 -446 461 -446c263 0 458 181 458 451z" />
    <glyph glyph-name="seven.tnum" horiz-adv-x="1864" 
d="M1722 2249v-243c-461 -614 -782 -1248 -934 -2006h-339c133 691 401 1332 875 1965h-1139v284h1537z" />
    <glyph glyph-name="eight.tnum" horiz-adv-x="1864" 
d="M931 2282c384 0 656 -258 656 -590c0 -195 -94 -358 -238 -449c220 -110 365 -314 365 -576c0 -397 -335 -700 -783 -700c-451 0 -782 307 -782 695c0 260 148 470 363 581c-143 93 -236 255 -236 449c0 331 270 590 655 590zM935 250c262 0 455 177 455 415
c0 233 -185 419 -459 419c-275 0 -461 -187 -461 -422c0 -254 217 -412 465 -412zM930 1357c201 0 348 145 348 323c0 179 -149 315 -347 315c-197 0 -342 -134 -342 -319c0 -189 150 -319 341 -319z" />
    <glyph glyph-name="nine.tnum" horiz-adv-x="1864" 
d="M387 -5l42 268c51 -8 105 -11 144 -11c410 0 737 332 789 801h-2c-126 -151 -321 -230 -524 -230c-382 0 -715 280 -715 718c0 432 323 741 787 741c548 0 778 -430 778 -986c0 -731 -398 -1329 -1088 -1329c-85 0 -146 9 -211 28zM437 1542c0 -267 192 -434 452 -434
c270 0 467 179 467 439c0 256 -191 446 -461 446c-263 0 -458 -181 -458 -451z" />
    <glyph glyph-name="dollar.tnum" horiz-adv-x="1864" 
d="M1683 2038l-149 -232c-159 126 -395 191 -576 191c-254 0 -443 -128 -443 -343c0 -542 1203 -216 1203 -1027c0 -403 -297 -613 -666 -652v-315h-274v315c-274 30 -489 146 -648 270l150 236c173 -136 385 -225 635 -225c318 0 481 144 481 346
c0 549 -1199 241 -1199 1031c0 355 243 589 601 639v317h274v-314c224 -23 443 -109 611 -237z" />
    <glyph glyph-name="cent.tnum" horiz-adv-x="1864" 
d="M1167 281v-294h-261v305c-361 65 -674 341 -674 823c0 464 290 771 674 842v306h261v-294c163 -14 327 -67 455 -160l-138 -229c-109 69 -258 112 -393 112c-309 0 -539 -227 -539 -567c0 -338 227 -566 533 -566c136 0 289 45 399 118l157 -215
c-139 -102 -303 -164 -474 -181z" />
    <glyph glyph-name="Euro.tnum" horiz-adv-x="1864" 
d="M1820 2039l-144 -226c-117 99 -301 168 -459 168c-275 0 -499 -210 -599 -508h870l-64 -213h-854c-5 -46 -8 -93 -8 -141c0 -30 1 -60 3 -89h790l-63 -213h-690c89 -320 319 -550 608 -550c158 0 345 69 467 168l146 -229c-167 -153 -410 -239 -636 -239
c-458 0 -814 351 -916 850h-269l64 213h178c-1 27 -2 55 -2 84c0 49 2 98 7 146h-232l64 213h204c119 478 476 809 915 809c228 0 453 -89 620 -243z" />
    <glyph glyph-name="sterling.tnum" horiz-adv-x="1864" 
d="M474 957h-294v266h251c-17 104 -31 211 -31 317c0 501 325 742 707 742c232 0 479 -89 612 -355l-219 -161c-76 132 -199 215 -373 215c-190 0 -406 -99 -406 -447c0 -100 17 -202 36 -311h410v-266h-370c5 -53 9 -107 9 -163c0 -285 -83 -408 -158 -513h1041v-281h-1509
v251c153 86 305 308 305 568c0 42 -4 89 -11 138z" />
    <glyph glyph-name="yen.tnum" horiz-adv-x="1864" 
d="M1080 741h479v-224h-479v-517h-321v517h-463v224h463v199l-13 25h-450v225h334l-542 1059h331l501 -997l526 997h333l-566 -1059h346v-225h-466l-13 -24v-200z" />
    <glyph glyph-name="uni20BA.tnum" horiz-adv-x="1864" 
d="M809 1298l570 242v-227l-570 -242v-770c293 55 605 214 663 643h286c-26 -643 -617 -987 -1270 -977v968l-316 -134v227l316 134v240l-316 -134v227l316 134v620h321v-484l570 242v-227l-570 -242v-240z" />
    <glyph glyph-name="uni20B9.tnum" horiz-adv-x="1864" 
d="M415 2249h1228l-64 -213h-431c78 -79 131 -178 160 -288h335l-63 -214h-250c-11 -334 -229 -589 -579 -651l641 -883h-393l-622 868v281h146c298 0 478 138 488 385h-680l64 214h575c-73 146 -236 221 -447 221h-192z" />
    <glyph glyph-name="period.tnum" horiz-adv-x="932" 
d="M466 -33c-120 0 -216 96 -216 216s96 217 216 217s217 -97 217 -217s-97 -216 -217 -216z" />
    <glyph glyph-name="comma.tnum" horiz-adv-x="932" 
d="M152 -350c90 49 214 123 214 241s-123 158 -123 293c0 113 85 216 216 216c151 0 226 -136 226 -291c0 -260 -211 -538 -470 -615z" />
    <glyph glyph-name="colon.tnum" horiz-adv-x="932" 
d="M466 -33c-120 0 -216 96 -216 216s96 217 216 217s217 -97 217 -217s-97 -216 -217 -216zM466 1147c-120 0 -216 96 -216 216s96 217 216 217s217 -97 217 -217s-97 -216 -217 -216z" />
    <glyph glyph-name="semicolon.tnum" horiz-adv-x="932" 
d="M160 -350c90 49 214 123 214 241s-123 158 -123 293c0 113 85 216 216 216c151 0 226 -136 226 -291c0 -260 -211 -538 -470 -615zM251 1363c0 120 96 217 216 217s217 -97 217 -217s-97 -216 -217 -216s-216 96 -216 216z" />
    <glyph glyph-name="zero.onum" horiz-adv-x="1844" 
d="M922 -33c-483 0 -769 316 -769 895c0 580 288 907 771 907s767 -326 767 -904s-284 -898 -769 -898zM924 247c286 0 445 219 445 618c0 400 -160 621 -446 621c-283 0 -446 -217 -446 -620c0 -400 161 -619 447 -619z" />
    <glyph glyph-name="zero.onum.alt1" horiz-adv-x="1844" 
d="M922 -33c-483 0 -769 316 -769 895c0 580 288 907 771 907s767 -326 767 -904s-284 -898 -769 -898zM924 247c286 0 445 219 445 618c0 400 -160 621 -446 621c-283 0 -446 -217 -446 -620c0 -400 161 -619 447 -619zM923 698c-93 0 -169 76 -169 169s76 169 169 169
s169 -76 169 -169s-76 -169 -169 -169z" />
    <glyph glyph-name="one.onum" horiz-adv-x="1490" 
d="M1386 286v-286h-1186v286h453v924h-444v252c224 0 481 92 521 288h239v-1464h417z" />
    <glyph glyph-name="one.onum.alt1" horiz-adv-x="1205" 
d="M566 0v1210h-444v252c224 0 481 92 521 288h239v-1750h-316z" />
    <glyph glyph-name="two.onum" horiz-adv-x="1641" 
d="M1484 286v-286h-1338v213c213 497 992 680 992 1023c0 146 -140 242 -351 242c-182 0 -336 -72 -435 -172l-198 189c146 161 365 274 639 274c367 0 660 -203 660 -532c0 -491 -654 -651 -873 -951h904z" />
    <glyph glyph-name="three.onum" horiz-adv-x="1620" 
d="M91 -76l185 201c121 -107 289 -192 463 -192c201 0 430 114 430 347c0 188 -149 299 -341 335c-75 14 -145 14 -314 16v267c75 0 216 1 314 20c137 27 261 109 261 278c0 201 -176 279 -365 279c-157 0 -270 -54 -397 -146l-162 216c138 125 337 224 589 224
c366 0 658 -209 658 -548c0 -213 -115 -364 -297 -447c218 -79 371 -264 371 -518c0 -392 -365 -614 -740 -614c-240 0 -471 91 -655 282z" />
    <glyph glyph-name="four.onum" horiz-adv-x="1768" 
d="M1363 -327h-305v459h-977v231l1018 1387h265v-1347h301v-271h-302v-459zM435 403h623v839z" />
    <glyph glyph-name="five.onum" horiz-adv-x="1653" 
d="M1430 1461h-813l-88 -516c93 45 188 64 292 64c347 0 704 -214 704 -660c0 -435 -340 -707 -757 -707c-289 0 -527 130 -670 296l175 206c128 -130 301 -212 486 -212c276 0 454 183 454 417c0 247 -198 386 -433 386c-128 0 -252 -42 -382 -119l-200 156l165 967h1067
v-278z" />
    <glyph glyph-name="six.onum" horiz-adv-x="1740" 
d="M955 1318c355 0 663 -259 663 -665c0 -400 -299 -686 -728 -686c-505 0 -718 395 -718 908c0 671 365 1219 1001 1219c77 0 138 -8 205 -29l-41 -267c-54 8 -106 12 -147 12c-345 0 -634 -277 -693 -674l2 -1c117 121 282 183 456 183zM1306 652c0 234 -168 381 -397 381
c-238 0 -412 -157 -412 -386c0 -225 168 -391 406 -391c232 0 403 159 403 396z" />
    <glyph glyph-name="seven.onum" horiz-adv-x="1539" 
d="M1499 1739v-238c-418 -557 -710 -1135 -849 -1830h-334c114 621 362 1213 785 1785h-1022v283h1420z" />
    <glyph glyph-name="eight.onum" horiz-adv-x="1772" 
d="M885 2094c356 0 608 -239 608 -547c0 -179 -85 -322 -205 -407c195 -104 320 -288 320 -523c0 -370 -311 -650 -723 -650c-417 0 -723 285 -723 644c0 233 130 421 318 527c-124 89 -202 235 -202 408c0 308 250 548 607 548zM889 250c230 0 399 155 399 364
c0 204 -161 367 -403 367c-243 0 -406 -164 -406 -370c0 -222 191 -361 410 -361zM884 1254c175 0 303 127 303 281c0 156 -129 273 -302 273c-172 0 -298 -116 -298 -277c0 -164 131 -277 297 -277z" />
    <glyph glyph-name="nine.onum" horiz-adv-x="1683" 
d="M338 -329l41 267c54 -8 106 -12 147 -12c345 0 634 277 693 674l-2 1c-117 -121 -282 -183 -456 -183c-355 0 -663 259 -663 665c0 400 299 686 728 686c505 0 718 -395 718 -908c0 -671 -365 -1219 -1001 -1219c-77 0 -138 8 -205 29zM410 1084
c0 -234 168 -381 397 -381c238 0 412 157 412 386c0 225 -168 391 -406 391c-232 0 -403 -159 -403 -396z" />
    <glyph glyph-name="dollar.onum" horiz-adv-x="1722" 
d="M1558 1862l-149 -231c-149 118 -363 179 -527 179c-222 0 -388 -112 -388 -298c0 -478 1092 -187 1092 -932c0 -371 -271 -566 -605 -605v-286h-274v287c-249 30 -445 139 -593 254l150 236c162 -127 356 -210 582 -210c278 0 422 125 422 301c0 482 -1089 212 -1089 935
c0 326 222 542 546 591v290h275v-287c203 -24 403 -104 558 -224z" />
    <glyph glyph-name="cent.onum" horiz-adv-x="1617" 
d="M1033 253v-268h-262v278c-329 63 -612 317 -612 758c0 425 263 707 612 775v280h262v-268c151 -16 298 -68 417 -154l-138 -229c-101 66 -240 108 -363 108c-270 0 -474 -202 -474 -503c0 -299 201 -501 470 -501c124 0 262 43 366 112l157 -215
c-127 -94 -276 -155 -435 -173z" />
    <glyph glyph-name="Euro.onum" horiz-adv-x="1955" 
d="M1795 1862l-144 -227c-108 92 -275 160 -421 160c-235 0 -430 -177 -523 -432h783l-63 -213h-770c-5 -41 -7 -83 -7 -125c0 -30 1 -60 4 -89h710l-64 -212h-605c85 -269 282 -459 528 -459c145 0 317 67 429 159l146 -229c-157 -144 -382 -228 -596 -228
c-412 0 -736 311 -836 757h-253l63 212h160c-1 28 -2 57 -2 86c0 43 2 86 6 128h-212l63 213h186c113 433 439 731 837 731c213 0 422 -85 581 -232z" />
    <glyph glyph-name="sterling.onum" horiz-adv-x="1764" 
d="M453 869h-269v266h226c-15 90 -26 183 -26 275c0 463 302 686 654 686c224 0 448 -90 573 -338l-220 -161c-70 123 -180 201 -336 201c-164 0 -354 -86 -354 -396c0 -86 14 -174 31 -267h374v-266h-334c4 -45 7 -90 7 -137c0 -242 -68 -359 -133 -452h934v-280h-1396v248
c140 78 278 277 278 506c0 35 -4 74 -9 115z" />
    <glyph glyph-name="yen.onum" horiz-adv-x="1806" 
d="M1050 699h435v-229h-435v-470h-317v470h-420v229h420v166l-6 11h-414v230h296l-492 962h329l446 -890l470 890h331l-514 -962h306v-230h-429l-6 -11v-166z" />
    <glyph glyph-name="uni20BA.onum" horiz-adv-x="1750" 
d="M767 1193l523 222v-209l-523 -222v-709c269 50 554 196 608 589h264c-24 -590 -567 -906 -1167 -897v892l-291 -123v208l291 123v221l-291 -123v208l291 123v572h295v-446l523 222v-209l-523 -222v-220z" />
    <glyph glyph-name="uni20B9.onum" horiz-adv-x="1521" 
d="M248 2067h1140l-59 -196h-392c73 -74 123 -166 148 -271h303l-57 -196h-228c-15 -301 -212 -536 -525 -599l590 -805h-387l-571 788v280h145c257 0 418 125 433 336h-624l58 196h530c-64 126 -210 187 -397 187h-191z" />
    <glyph glyph-name="zero.onum_tnum" 
d="M854 -33c-483 0 -769 316 -769 895c0 580 288 907 771 907s767 -326 767 -904s-284 -898 -769 -898zM856 247c286 0 445 219 445 618c0 400 -160 621 -446 621c-283 0 -446 -217 -446 -620c0 -400 161 -619 447 -619z" />
    <glyph glyph-name="zero.onum_tnum.alt1" 
d="M854 -33c-483 0 -769 316 -769 895c0 580 288 907 771 907s767 -326 767 -904s-284 -898 -769 -898zM856 247c286 0 445 219 445 618c0 400 -160 621 -446 621c-283 0 -446 -217 -446 -620c0 -400 161 -619 447 -619zM855 698c-93 0 -169 76 -169 169s76 169 169 169
s169 -76 169 -169s-76 -169 -169 -169z" />
    <glyph glyph-name="one.onum_tnum" 
d="M1495 286v-286h-1186v286h453v924h-444v252c224 0 481 92 521 288h239v-1464h417z" />
    <glyph glyph-name="one.onum_tnum.alt1" 
d="M818 0v1210h-444v252c224 0 481 92 521 288h239v-1750h-316z" />
    <glyph glyph-name="two.onum_tnum" 
d="M1518 286v-286h-1338v213c213 497 992 680 992 1023c0 146 -140 242 -351 242c-182 0 -336 -72 -435 -172l-198 189c146 161 365 274 639 274c367 0 660 -203 660 -532c0 -491 -654 -651 -873 -951h904z" />
    <glyph glyph-name="three.onum_tnum" 
d="M135 -76l185 201c121 -107 289 -192 463 -192c201 0 430 114 430 347c0 188 -149 299 -341 335c-75 14 -145 14 -314 16v267c75 0 216 1 314 20c137 27 261 109 261 278c0 201 -176 279 -365 279c-157 0 -270 -54 -397 -146l-162 216c138 125 337 224 589 224
c366 0 658 -209 658 -548c0 -213 -115 -364 -297 -447c218 -79 371 -264 371 -518c0 -392 -365 -614 -740 -614c-240 0 -471 91 -655 282z" />
    <glyph glyph-name="four.onum_tnum" 
d="M1333 -327h-305v459h-977v231l1018 1387h265v-1347h301v-271h-302v-459zM405 403h623v839z" />
    <glyph glyph-name="five.onum_tnum" 
d="M1458 1461h-813l-88 -516c93 45 188 64 292 64c347 0 704 -214 704 -660c0 -435 -340 -707 -757 -707c-289 0 -527 130 -670 296l175 206c128 -130 301 -212 486 -212c276 0 454 183 454 417c0 247 -198 386 -433 386c-128 0 -252 -42 -382 -119l-200 156l165 967h1067
v-278z" />
    <glyph glyph-name="six.onum_tnum" 
d="M939 1318c355 0 663 -259 663 -665c0 -400 -299 -686 -728 -686c-505 0 -718 395 -718 908c0 671 365 1219 1001 1219c77 0 138 -8 205 -29l-41 -267c-54 8 -106 12 -147 12c-345 0 -634 -277 -693 -674l2 -1c117 121 282 183 456 183zM1290 652c0 234 -168 381 -397 381
c-238 0 -412 -157 -412 -386c0 -225 168 -391 406 -391c232 0 403 159 403 396z" />
    <glyph glyph-name="seven.onum_tnum" 
d="M1584 1739v-238c-418 -557 -710 -1135 -849 -1830h-334c114 621 362 1213 785 1785h-1022v283h1420z" />
    <glyph glyph-name="eight.onum_tnum" 
d="M854 2094c356 0 608 -239 608 -547c0 -179 -85 -322 -205 -407c195 -104 320 -288 320 -523c0 -370 -311 -650 -723 -650c-417 0 -723 285 -723 644c0 233 130 421 318 527c-124 89 -202 235 -202 408c0 308 250 548 607 548zM858 250c230 0 399 155 399 364
c0 204 -161 367 -403 367c-243 0 -406 -164 -406 -370c0 -222 191 -361 410 -361zM853 1254c175 0 303 127 303 281c0 156 -129 273 -302 273c-172 0 -298 -116 -298 -277c0 -164 131 -277 297 -277z" />
    <glyph glyph-name="nine.onum_tnum" 
d="M351 -329l41 267c54 -8 106 -12 147 -12c345 0 634 277 693 674l-2 1c-117 -121 -282 -183 -456 -183c-355 0 -663 259 -663 665c0 400 299 686 728 686c505 0 718 -395 718 -908c0 -671 -365 -1219 -1001 -1219c-77 0 -138 8 -205 29zM423 1084
c0 -234 168 -381 397 -381c238 0 412 157 412 386c0 225 -168 391 -406 391c-232 0 -403 -159 -403 -396z" />
    <glyph glyph-name="dollar.onum_tnum" 
d="M1551 1862l-149 -231c-149 118 -363 179 -527 179c-222 0 -388 -112 -388 -298c0 -478 1092 -187 1092 -932c0 -371 -271 -566 -605 -605v-286h-274v287c-249 30 -445 139 -593 254l150 236c162 -127 356 -210 582 -210c278 0 422 125 422 301c0 482 -1089 212 -1089 935
c0 326 222 542 546 591v290h275v-287c203 -24 403 -104 558 -224z" />
    <glyph glyph-name="cent.onum_tnum" 
d="M1079 253v-268h-262v278c-329 63 -612 317 -612 758c0 425 263 707 612 775v280h262v-268c151 -16 298 -68 417 -154l-138 -229c-101 66 -240 108 -363 108c-270 0 -474 -202 -474 -503c0 -299 201 -501 470 -501c124 0 262 43 366 112l157 -215
c-127 -94 -276 -155 -435 -173z" />
    <glyph glyph-name="Euro.onum_tnum" 
d="M1671 1862l-144 -227c-108 92 -275 160 -421 160c-235 0 -430 -177 -523 -432h783l-63 -213h-770c-5 -41 -7 -83 -7 -125c0 -30 1 -60 4 -89h710l-64 -212h-605c85 -269 282 -459 528 -459c145 0 317 67 429 159l146 -229c-157 -144 -382 -228 -596 -228
c-412 0 -736 311 -836 757h-253l63 212h160c-1 28 -2 57 -2 86c0 43 2 86 6 128h-212l63 213h186c113 433 439 731 837 731c213 0 422 -85 581 -232z" />
    <glyph glyph-name="sterling.onum_tnum" 
d="M425 869h-269v266h226c-15 90 -26 183 -26 275c0 463 302 686 654 686c224 0 448 -90 573 -338l-220 -161c-70 123 -180 201 -336 201c-164 0 -354 -86 -354 -396c0 -86 14 -174 31 -267h374v-266h-334c4 -45 7 -90 7 -137c0 -242 -68 -359 -133 -452h934v-280h-1396v248
c140 78 278 277 278 506c0 35 -4 74 -9 115z" />
    <glyph glyph-name="yen.onum_tnum" 
d="M1001 699h435v-229h-435v-470h-317v470h-420v229h420v166l-6 11h-414v230h296l-492 962h329l446 -890l470 890h331l-514 -962h306v-230h-429l-6 -11v-166z" />
    <glyph glyph-name="uni20BA.onum_tnum" 
d="M746 1193l523 222v-209l-523 -222v-709c269 50 554 196 608 589h264c-24 -590 -567 -906 -1167 -897v892l-291 -123v208l291 123v221l-291 -123v208l291 123v572h295v-446l523 222v-209l-523 -222v-220z" />
    <glyph glyph-name="uni20B9.onum_tnum" 
d="M342 2067h1140l-59 -196h-392c73 -74 123 -166 148 -271h303l-57 -196h-228c-15 -301 -212 -536 -525 -599l590 -805h-387l-571 788v280h145c257 0 418 125 433 336h-624l58 196h530c-64 126 -210 187 -397 187h-191z" />
    <glyph glyph-name="uni2070" unicode="&#x2070;" horiz-adv-x="1228" 
d="M614 1344c-321 0 -512 240 -512 679c0 441 193 690 514 690s509 -248 509 -687s-187 -682 -511 -682zM615 1573c162 0 249 160 249 453s-88 456 -249 456s-251 -160 -251 -456c0 -293 88 -453 251 -453z" />
    <glyph glyph-name="uni2070.alt1" horiz-adv-x="1228" 
d="M614 1344c-321 0 -512 240 -512 679c0 441 193 690 514 690s509 -248 509 -687s-187 -682 -511 -682zM615 1573c162 0 249 160 249 453s-88 456 -249 456s-251 -160 -251 -456c0 -293 88 -453 251 -453zM614 1915c-62 0 -112 50 -112 112s50 113 112 113
s113 -51 113 -113s-51 -112 -113 -112z" />
    <glyph glyph-name="onesuperior" unicode="&#xb9;" horiz-adv-x="1046" 
d="M984 1588v-228h-856v228h316v732h-310v198c174 0 335 58 360 179h199v-1109h291z" />
    <glyph glyph-name="onesuperior.alt1" horiz-adv-x="884" 
d="M381 1360v960h-310v198c174 0 335 58 360 179h199v-1337h-249z" />
    <glyph glyph-name="twosuperior" unicode="&#xb2;" horiz-adv-x="1091" 
d="M989 1588v-228h-896v163c149 401 622 507 622 774c0 107 -77 180 -192 180c-104 0 -200 -60 -272 -148l-160 153c94 133 245 227 436 227c246 0 442 -158 442 -405c0 -365 -432 -511 -548 -716h568z" />
    <glyph glyph-name="threesuperior" unicode="&#xb3;" horiz-adv-x="1078" 
d="M62 1543l148 166c82 -74 185 -133 287 -133c103 0 229 61 229 189c0 100 -77 164 -181 181c-62 10 -151 8 -218 10v217c85 0 160 2 218 14c86 18 132 62 132 140c0 111 -92 152 -187 152c-92 0 -161 -38 -253 -104l-131 175c97 90 231 163 401 163
c235 0 428 -140 428 -363c0 -123 -59 -216 -154 -277c119 -60 200 -173 200 -324c0 -259 -239 -405 -479 -405c-162 0 -315 66 -440 199z" />
    <glyph glyph-name="uni2074" unicode="&#x2074;" horiz-adv-x="1170" 
d="M901 1360h-249v284h-601v175l639 878h212v-833h186v-220h-187v-284zM339 1864h313v422z" />
    <glyph glyph-name="uni2075" unicode="&#x2075;" horiz-adv-x="1096" 
d="M946 2473h-500l-42 -250c45 15 93 22 142 22c223 0 458 -141 458 -434c0 -285 -223 -464 -490 -464c-191 0 -347 92 -448 209l141 171c88 -89 192 -148 302 -148c145 0 243 102 243 232c0 137 -108 213 -230 213c-74 0 -148 -27 -239 -81l-152 119l107 635h708v-224z" />
    <glyph glyph-name="uni2076" unicode="&#x2076;" horiz-adv-x="1124" 
d="M610 2231c234 0 439 -170 439 -438c0 -261 -196 -449 -479 -449c-331 0 -471 256 -471 586c0 433 240 783 636 783c60 0 101 -8 169 -28l-33 -211c-60 8 -93 11 -119 11c-172 0 -321 -131 -373 -321c67 45 147 67 231 67zM794 1793c0 130 -90 211 -212 211
c-128 0 -222 -88 -222 -214c0 -124 91 -216 218 -216c124 0 216 88 216 219z" />
    <glyph glyph-name="uni2077" unicode="&#x2077;" horiz-adv-x="1023" 
d="M991 2693v-180c-257 -347 -437 -709 -525 -1150h-268c77 397 219 759 464 1103h-604v227h933z" />
    <glyph glyph-name="uni2078" unicode="&#x2078;" horiz-adv-x="1134" 
d="M566 2713c237 0 405 -161 405 -365c0 -103 -43 -190 -110 -250c109 -72 181 -187 181 -329c0 -239 -204 -425 -475 -425c-274 0 -475 189 -475 422c0 143 75 260 179 332c-67 60 -109 147 -109 250c0 204 167 365 404 365zM569 1571c123 0 213 84 213 199
c0 112 -86 202 -215 202c-130 0 -219 -91 -219 -204c0 -121 104 -197 221 -197zM566 2192c89 0 154 67 154 148c0 82 -65 143 -153 143s-152 -60 -152 -145c0 -86 66 -146 151 -146z" />
    <glyph glyph-name="uni2079" unicode="&#x2079;" horiz-adv-x="1123" 
d="M220 1372l33 211c60 -8 93 -11 119 -11c172 0 321 131 373 321c-67 -45 -147 -67 -231 -67c-234 0 -439 170 -439 438c0 261 196 449 479 449c331 0 471 -256 471 -586c0 -433 -240 -783 -636 -783c-60 0 -101 8 -169 28zM330 2264c0 -130 90 -211 212 -211
c128 0 222 88 222 214c0 124 -91 216 -218 216c-124 0 -216 -88 -216 -219z" />
    <glyph glyph-name="uni2080" unicode="&#x2080;" horiz-adv-x="1229" 
d="M615 -395c-321 0 -512 240 -512 679c0 441 193 690 514 690s509 -248 509 -687s-187 -682 -511 -682zM616 -166c162 0 249 160 249 453s-88 456 -249 456s-251 -160 -251 -456c0 -293 88 -453 251 -453z" />
    <glyph glyph-name="uni2080.alt1" horiz-adv-x="1229" 
d="M615 -395c-321 0 -512 240 -512 679c0 441 193 690 514 690s509 -248 509 -687s-187 -682 -511 -682zM616 -166c162 0 249 160 249 453s-88 456 -249 456s-251 -160 -251 -456c0 -293 88 -453 251 -453zM615 176c-62 0 -112 50 -112 112s50 113 112 113s113 -51 113 -113
s-51 -112 -113 -112z" />
    <glyph glyph-name="uni2081" unicode="&#x2081;" horiz-adv-x="1043" 
d="M981 -151v-228h-856v228h316v732h-310v198c174 0 335 58 360 179h199v-1109h291z" />
    <glyph glyph-name="uni2081.alt1" horiz-adv-x="881" 
d="M378 -379v960h-310v198c174 0 335 58 360 179h199v-1337h-249z" />
    <glyph glyph-name="uni2082" unicode="&#x2082;" horiz-adv-x="1091" 
d="M989 -151v-228h-896v163c149 401 622 507 622 774c0 107 -77 180 -192 180c-104 0 -200 -60 -272 -148l-160 153c94 133 245 227 436 227c246 0 442 -158 442 -405c0 -365 -432 -511 -548 -716h568z" />
    <glyph glyph-name="uni2083" unicode="&#x2083;" horiz-adv-x="1080" 
d="M62 -196l148 166c82 -74 185 -133 287 -133c103 0 229 61 229 189c0 100 -77 164 -181 181c-62 10 -151 8 -218 10v217c85 0 160 2 218 14c86 18 132 62 132 140c0 111 -92 152 -187 152c-92 0 -161 -38 -253 -104l-131 175c97 90 231 163 401 163
c235 0 428 -140 428 -363c0 -123 -59 -216 -154 -277c119 -60 200 -173 200 -324c0 -259 -239 -405 -479 -405c-162 0 -315 66 -440 199z" />
    <glyph glyph-name="uni2084" unicode="&#x2084;" horiz-adv-x="1164" 
d="M895 -379h-249v284h-601v175l639 878h212v-833h186v-220h-187v-284zM333 125h313v422z" />
    <glyph glyph-name="uni2085" unicode="&#x2085;" horiz-adv-x="1097" 
d="M946 734h-500l-42 -250c45 15 93 22 142 22c223 0 458 -141 458 -434c0 -285 -223 -464 -490 -464c-191 0 -347 92 -448 209l141 171c88 -89 192 -148 302 -148c145 0 243 102 243 232c0 137 -108 213 -230 213c-74 0 -148 -27 -239 -81l-152 119l107 635h708v-224z" />
    <glyph glyph-name="uni2086" unicode="&#x2086;" horiz-adv-x="1125" 
d="M610 492c234 0 439 -170 439 -438c0 -261 -196 -449 -479 -449c-331 0 -471 256 -471 586c0 433 240 783 636 783c60 0 101 -8 169 -28l-33 -211c-60 8 -93 11 -119 11c-172 0 -321 -131 -373 -321c67 45 147 67 231 67zM794 54c0 130 -90 211 -212 211
c-128 0 -222 -88 -222 -214c0 -124 91 -216 218 -216c124 0 216 88 216 219z" />
    <glyph glyph-name="uni2087" unicode="&#x2087;" horiz-adv-x="1023" 
d="M991 954v-180c-257 -347 -437 -709 -525 -1150h-268c77 397 219 759 464 1103h-604v227h933z" />
    <glyph glyph-name="uni2088" unicode="&#x2088;" horiz-adv-x="1138" 
d="M568 974c237 0 405 -161 405 -365c0 -103 -43 -190 -110 -250c109 -72 181 -187 181 -329c0 -239 -204 -425 -475 -425c-274 0 -475 189 -475 422c0 143 75 260 179 332c-67 60 -109 147 -109 250c0 204 167 365 404 365zM571 -168c123 0 213 84 213 199
c0 112 -86 202 -215 202c-130 0 -219 -91 -219 -204c0 -121 104 -197 221 -197zM568 453c89 0 154 67 154 148c0 82 -65 143 -153 143s-152 -60 -152 -145c0 -86 66 -146 151 -146z" />
    <glyph glyph-name="uni2089" unicode="&#x2089;" horiz-adv-x="1126" 
d="M221 -367l33 211c60 -8 93 -11 119 -11c172 0 321 131 373 321c-67 -45 -147 -67 -231 -67c-234 0 -439 170 -439 438c0 261 196 449 479 449c331 0 471 -256 471 -586c0 -433 -240 -783 -636 -783c-60 0 -101 8 -169 28zM331 525c0 -130 90 -211 212 -211
c128 0 222 88 222 214c0 124 -91 216 -218 216c-124 0 -216 -88 -216 -219z" />
    <glyph glyph-name="zero.numerator" horiz-adv-x="1227" 
d="M614 966c-321 0 -512 240 -512 679c0 441 193 690 514 690s509 -248 509 -687s-187 -682 -511 -682zM615 1195c162 0 249 160 249 453s-88 456 -249 456s-251 -160 -251 -456c0 -293 88 -453 251 -453z" />
    <glyph glyph-name="zero.numerator.alt1" horiz-adv-x="1227" 
d="M614 966c-321 0 -512 240 -512 679c0 441 193 690 514 690s509 -248 509 -687s-187 -682 -511 -682zM615 1195c162 0 249 160 249 453s-88 456 -249 456s-251 -160 -251 -456c0 -293 88 -453 251 -453zM614 1537c-62 0 -112 50 -112 112s50 113 112 113s113 -51 113 -113
s-51 -112 -113 -112z" />
    <glyph glyph-name="one.numerator" horiz-adv-x="1043" 
d="M981 1210v-228h-856v228h316v732h-310v198c174 0 335 58 360 179h199v-1109h291z" />
    <glyph glyph-name="one.numerator.alt1" horiz-adv-x="883" 
d="M381 982v960h-310v198c174 0 335 58 360 179h199v-1337h-249z" />
    <glyph glyph-name="two.numerator" horiz-adv-x="1091" 
d="M989 1210v-228h-896v163c149 401 622 507 622 774c0 107 -77 180 -192 180c-104 0 -200 -60 -272 -148l-160 153c94 133 245 227 436 227c246 0 442 -158 442 -405c0 -365 -432 -511 -548 -716h568z" />
    <glyph glyph-name="three.numerator" horiz-adv-x="1078" 
d="M62 1165l148 166c82 -74 185 -133 287 -133c103 0 229 61 229 189c0 100 -77 164 -181 181c-62 10 -151 8 -218 10v217c85 0 160 2 218 14c86 18 132 62 132 140c0 111 -92 152 -187 152c-92 0 -161 -38 -253 -104l-131 175c97 90 231 163 401 163
c235 0 428 -140 428 -363c0 -123 -59 -216 -154 -277c119 -60 200 -173 200 -324c0 -259 -239 -405 -479 -405c-162 0 -315 66 -440 199z" />
    <glyph glyph-name="four.numerator" horiz-adv-x="1171" 
d="M901 982h-249v284h-601v175l639 878h212v-833h186v-220h-187v-284zM339 1486h313v422z" />
    <glyph glyph-name="five.numerator" horiz-adv-x="1096" 
d="M946 2095h-500l-42 -250c45 15 93 22 142 22c223 0 458 -141 458 -434c0 -285 -223 -464 -490 -464c-191 0 -347 92 -448 209l141 171c88 -89 192 -148 302 -148c145 0 243 102 243 232c0 137 -108 213 -230 213c-74 0 -148 -27 -239 -81l-152 119l107 635h708v-224z" />
    <glyph glyph-name="six.numerator" horiz-adv-x="1122" 
d="M608 1853c234 0 439 -170 439 -438c0 -261 -196 -449 -479 -449c-331 0 -471 256 -471 586c0 433 240 783 636 783c60 0 101 -8 169 -28l-33 -211c-60 8 -93 11 -119 11c-172 0 -321 -131 -373 -321c67 45 147 67 231 67zM792 1415c0 130 -90 211 -212 211
c-128 0 -222 -88 -222 -214c0 -124 91 -216 218 -216c124 0 216 88 216 219z" />
    <glyph glyph-name="seven.numerator" horiz-adv-x="1020" 
d="M991 2315v-180c-257 -347 -437 -709 -525 -1150h-268c77 397 219 759 464 1103h-604v227h933z" />
    <glyph glyph-name="eight.numerator" horiz-adv-x="1134" 
d="M566 2335c237 0 405 -161 405 -365c0 -103 -43 -190 -110 -250c109 -72 181 -187 181 -329c0 -239 -204 -425 -475 -425c-274 0 -475 189 -475 422c0 143 75 260 179 332c-67 60 -109 147 -109 250c0 204 167 365 404 365zM569 1193c123 0 213 84 213 199
c0 112 -86 202 -215 202c-130 0 -219 -91 -219 -204c0 -121 104 -197 221 -197zM566 1814c89 0 154 67 154 148c0 82 -65 143 -153 143s-152 -60 -152 -145c0 -86 66 -146 151 -146z" />
    <glyph glyph-name="nine.numerator" horiz-adv-x="1123" 
d="M220 994l33 211c60 -8 93 -11 119 -11c172 0 321 131 373 321c-67 -45 -147 -67 -231 -67c-234 0 -439 170 -439 438c0 261 196 449 479 449c331 0 471 -256 471 -586c0 -433 -240 -783 -636 -783c-60 0 -101 8 -169 28zM330 1886c0 -130 90 -211 212 -211
c128 0 222 88 222 214c0 124 -91 216 -218 216c-124 0 -216 -88 -216 -219z" />
    <glyph glyph-name="zero.denominator" horiz-adv-x="1229" 
d="M615 -17c-321 0 -512 240 -512 679c0 441 193 690 514 690s509 -248 509 -687s-187 -682 -511 -682zM616 212c162 0 249 160 249 453s-88 456 -249 456s-251 -160 -251 -456c0 -293 88 -453 251 -453z" />
    <glyph glyph-name="zero.denominator.alt1" horiz-adv-x="1229" 
d="M615 -17c-321 0 -512 240 -512 679c0 441 193 690 514 690s509 -248 509 -687s-187 -682 -511 -682zM616 212c162 0 249 160 249 453s-88 456 -249 456s-251 -160 -251 -456c0 -293 88 -453 251 -453zM615 554c-62 0 -112 50 -112 112s50 113 112 113s113 -51 113 -113
s-51 -112 -113 -112z" />
    <glyph glyph-name="one.denominator" horiz-adv-x="1043" 
d="M981 227v-228h-856v228h316v732h-310v198c174 0 335 58 360 179h199v-1109h291z" />
    <glyph glyph-name="one.denominator.alt1" horiz-adv-x="881" 
d="M378 -1v960h-310v198c174 0 335 58 360 179h199v-1337h-249z" />
    <glyph glyph-name="two.denominator" horiz-adv-x="1091" 
d="M989 227v-228h-896v163c149 401 622 507 622 774c0 107 -77 180 -192 180c-104 0 -200 -60 -272 -148l-160 153c94 133 245 227 436 227c246 0 442 -158 442 -405c0 -365 -432 -511 -548 -716h568z" />
    <glyph glyph-name="three.denominator" horiz-adv-x="1080" 
d="M62 182l148 166c82 -74 185 -133 287 -133c103 0 229 61 229 189c0 100 -77 164 -181 181c-62 10 -151 8 -218 10v217c85 0 160 2 218 14c86 18 132 62 132 140c0 111 -92 152 -187 152c-92 0 -161 -38 -253 -104l-131 175c97 90 231 163 401 163
c235 0 428 -140 428 -363c0 -123 -59 -216 -154 -277c119 -60 200 -173 200 -324c0 -259 -239 -405 -479 -405c-162 0 -315 66 -440 199z" />
    <glyph glyph-name="four.denominator" horiz-adv-x="1167" 
d="M898 -1h-249v284h-601v175l639 878h212v-833h186v-220h-187v-284zM336 503h313v422z" />
    <glyph glyph-name="five.denominator" horiz-adv-x="1096" 
d="M946 1112h-500l-42 -250c45 15 93 22 142 22c223 0 458 -141 458 -434c0 -285 -223 -464 -490 -464c-191 0 -347 92 -448 209l141 171c88 -89 192 -148 302 -148c145 0 243 102 243 232c0 137 -108 213 -230 213c-74 0 -148 -27 -239 -81l-152 119l107 635h708v-224z" />
    <glyph glyph-name="six.denominator" horiz-adv-x="1125" 
d="M610 870c234 0 439 -170 439 -438c0 -261 -196 -449 -479 -449c-331 0 -471 256 -471 586c0 433 240 783 636 783c60 0 101 -8 169 -28l-33 -211c-60 8 -93 11 -119 11c-172 0 -321 -131 -373 -321c67 45 147 67 231 67zM794 432c0 130 -90 211 -212 211
c-128 0 -222 -88 -222 -214c0 -124 91 -216 218 -216c124 0 216 88 216 219z" />
    <glyph glyph-name="seven.denominator" horiz-adv-x="1023" 
d="M991 1332v-180c-257 -347 -437 -709 -525 -1150h-268c77 397 219 759 464 1103h-604v227h933z" />
    <glyph glyph-name="eight.denominator" horiz-adv-x="1138" 
d="M568 1352c237 0 405 -161 405 -365c0 -103 -43 -190 -110 -250c109 -72 181 -187 181 -329c0 -239 -204 -425 -475 -425c-274 0 -475 189 -475 422c0 143 75 260 179 332c-67 60 -109 147 -109 250c0 204 167 365 404 365zM571 210c123 0 213 84 213 199
c0 112 -86 202 -215 202c-130 0 -219 -91 -219 -204c0 -121 104 -197 221 -197zM568 831c89 0 154 67 154 148c0 82 -65 143 -153 143s-152 -60 -152 -145c0 -86 66 -146 151 -146z" />
    <glyph glyph-name="nine.denominator" horiz-adv-x="1126" 
d="M221 11l33 211c60 -8 93 -11 119 -11c172 0 321 131 373 321c-67 -45 -147 -67 -231 -67c-234 0 -439 170 -439 438c0 261 196 449 479 449c331 0 471 -256 471 -586c0 -433 -240 -783 -636 -783c-60 0 -101 8 -169 28zM331 903c0 -130 90 -211 212 -211
c128 0 222 88 222 214c0 124 -91 216 -218 216c-124 0 -216 -88 -216 -219z" />
    <glyph glyph-name="ordfeminine" unicode="&#xaa;" horiz-adv-x="1354" 
d="M1178 1335l-29 -175c-116 0 -235 42 -263 135c-79 -94 -208 -135 -339 -135c-219 0 -397 115 -397 334c0 212 167 360 480 360c81 0 166 -10 234 -23v43c0 150 -104 207 -238 207c-108 0 -225 -37 -322 -90l-77 174c121 90 284 122 429 122c288 0 451 -126 451 -379v-431
c0 -73 16 -114 71 -142zM864 1642c-58 11 -140 21 -215 21c-180 0 -258 -57 -258 -157c0 -105 87 -145 176 -145c134 0 297 89 297 219v62z" />
    <glyph glyph-name="ordmasculine" unicode="&#xba;" horiz-adv-x="1407" 
d="M701 1160c-316 0 -558 230 -558 562c0 334 244 565 562 565c315 0 559 -227 559 -560c0 -335 -246 -567 -563 -567zM701 1374c176 0 312 147 312 352c0 204 -133 346 -309 346c-178 0 -311 -142 -311 -348c0 -203 131 -350 308 -350z" />
    <glyph glyph-name="onequarter" unicode="&#xbc;" horiz-adv-x="2758" 
d="M159 1210h316v732h-310v198c174 0 335 58 360 179h199v-1109h291v-228h-856v228zM1609 284v175l639 878h212v-833h186v-220h-187v-284h-249v284h-601zM925 -66h-264l1380 2450h266zM1897 504h313v422z" />
    <glyph glyph-name="onequarter.alt1" horiz-adv-x="2464" 
d="M2160 0h-249v284h-601v175l639 878h212v-833h186v-220h-187v-284zM419 982v960h-310v198c174 0 335 58 360 179h199v-1337h-249zM362 -66l1380 2450h266l-1382 -2450h-264zM1598 504h313v422z" />
    <glyph glyph-name="onehalf" unicode="&#xbd;" horiz-adv-x="2898" 
d="M2779 227v-228h-896v163c149 401 622 507 622 774c0 107 -77 180 -192 180c-104 0 -200 -60 -272 -148l-160 153c94 133 245 227 436 227c246 0 442 -158 442 -405c0 -365 -432 -511 -548 -716h568zM1005 1210v-228h-856v228h316v732h-310v198c174 0 335 58 360 179h199
v-1109h291zM651 -66l1380 2450h266l-1382 -2450h-264z" />
    <glyph glyph-name="onehalf.alt1" horiz-adv-x="2623" 
d="M2491 227v-228h-896v163c149 401 622 507 622 774c0 107 -77 180 -192 180c-104 0 -200 -60 -272 -148l-160 153c94 133 245 227 436 227c246 0 442 -158 442 -405c0 -365 -432 -511 -548 -716h568zM420 982v960h-310v198c174 0 335 58 360 179h199v-1337h-249zM363 -66
l1380 2450h266l-1382 -2450h-264z" />
    <glyph glyph-name="threequarters" unicode="&#xbe;" horiz-adv-x="2658" 
d="M111 1165l148 166c82 -74 185 -133 287 -133c103 0 229 61 229 189c0 100 -77 164 -181 181c-62 10 -151 8 -218 10v217c85 0 160 2 218 14c86 18 132 62 132 140c0 111 -92 152 -187 152c-92 0 -161 -38 -253 -104l-131 175c97 90 231 163 401 163
c235 0 428 -140 428 -363c0 -123 -59 -216 -154 -277c119 -60 200 -173 200 -324c0 -259 -239 -405 -479 -405c-162 0 -315 66 -440 199zM2109 0v284h-601v175l639 878h212v-833h186v-220h-187v-284h-249zM1941 2384h266l-1382 -2450h-264zM2109 504v422l-313 -422h313z" />
    <glyph glyph-name="period" unicode="." horiz-adv-x="787" 
d="M393 -33c-120 0 -216 96 -216 216s96 217 216 217s217 -97 217 -217s-97 -216 -217 -216z" />
    <glyph glyph-name="comma" unicode="," horiz-adv-x="802" 
d="M87 -350c90 49 214 123 214 241s-123 158 -123 293c0 113 85 216 216 216c151 0 226 -136 226 -291c0 -260 -211 -538 -470 -615z" />
    <glyph glyph-name="colon" unicode=":" horiz-adv-x="849" 
d="M424 -33c-120 0 -216 96 -216 216s96 217 216 217s217 -97 217 -217s-97 -216 -217 -216zM424 1147c-120 0 -216 96 -216 216s96 217 216 217s217 -97 217 -217s-97 -216 -217 -216z" />
    <glyph glyph-name="semicolon" unicode=";" horiz-adv-x="900" 
d="M144 -350c90 49 214 123 214 241s-123 158 -123 293c0 113 85 216 216 216c151 0 226 -136 226 -291c0 -260 -211 -538 -470 -615zM235 1363c0 120 96 217 216 217s217 -97 217 -217s-97 -216 -217 -216s-216 96 -216 216z" />
    <glyph glyph-name="exclam" unicode="!" horiz-adv-x="932" 
d="M466 -33c-120 0 -216 96 -216 216s96 217 216 217s217 -97 217 -217s-97 -216 -217 -216zM330 686l-41 1632h354l-41 -1632h-272z" />
    <glyph glyph-name="question" unicode="?" horiz-adv-x="1660" 
d="M889 686h-282c0 733 595 610 595 1021c0 221 -171 341 -411 341c-206 0 -378 -89 -488 -222l-201 187c141 197 384 338 695 338c392 0 734 -224 734 -648c0 -582 -642 -510 -642 -1017zM532 183c0 120 96 217 216 217s217 -97 217 -217s-97 -216 -217 -216
s-216 96 -216 216z" />
    <glyph glyph-name="exclamdown" unicode="&#xa1;" horiz-adv-x="864" 
d="M433 1345c-120 0 -217 97 -217 217s97 216 217 216s216 -96 216 -216s-96 -217 -216 -217zM256 -573l41 1632h272l41 -1632h-354z" />
    <glyph glyph-name="questiondown" unicode="&#xbf;" horiz-adv-x="1631" 
d="M757 1059h282c0 -733 -595 -610 -595 -1021c0 -221 171 -341 411 -341c206 0 378 89 488 222l201 -187c-141 -197 -384 -338 -695 -338c-392 0 -734 224 -734 648c0 582 642 510 642 1017zM681 1562c0 120 97 216 217 216s216 -96 216 -216s-96 -217 -216 -217
s-217 97 -217 217z" />
    <glyph glyph-name="quoteleft" unicode="&#x2018;" horiz-adv-x="789" 
d="M658 2277c-86 -47 -204 -117 -204 -229s117 -150 117 -278c0 -107 -80 -205 -205 -205c-143 0 -215 129 -215 276c0 247 201 511 447 584z" />
    <glyph glyph-name="quoteright" unicode="&#x2019;" horiz-adv-x="792" 
d="M151 1713c86 46 204 116 204 228c0 113 -117 151 -117 279c0 107 80 205 205 205c143 0 215 -129 215 -276c0 -247 -201 -511 -447 -584z" />
    <glyph glyph-name="quotedblleft" unicode="&#x201c;" horiz-adv-x="1369" 
d="M658 2277c-86 -47 -204 -117 -204 -229s117 -150 117 -278c0 -107 -80 -205 -205 -205c-143 0 -215 129 -215 276c0 247 201 511 447 584zM1179 2425l59 -148c-85 -47 -203 -117 -203 -229s117 -150 117 -278c0 -107 -81 -205 -205 -205c-144 0 -215 129 -215 276
c0 247 201 511 447 584z" />
    <glyph glyph-name="quotedblright" unicode="&#x201d;" horiz-adv-x="1372" 
d="M151 1713c86 46 204 116 204 228c0 113 -117 151 -117 279c0 107 80 205 205 205c143 0 215 -129 215 -276c0 -247 -201 -511 -447 -584zM792 1565l-60 148c85 46 203 116 203 228c0 113 -117 151 -117 279c0 107 81 205 206 205c143 0 214 -129 214 -276
c0 -247 -200 -511 -446 -584z" />
    <glyph glyph-name="quotesinglbase" unicode="&#x201a;" horiz-adv-x="790" 
d="M97 -332c86 46 204 116 204 228c0 113 -117 151 -117 279c0 107 80 205 205 205c143 0 215 -129 215 -276c0 -247 -201 -512 -447 -585z" />
    <glyph glyph-name="quotedblbase" unicode="&#x201e;" horiz-adv-x="1370" 
d="M97 -332c86 46 204 116 204 228c0 113 -117 151 -117 279c0 107 80 205 205 205c143 0 215 -129 215 -276c0 -247 -201 -512 -447 -585zM738 -481l-60 149c85 46 203 116 203 228c0 113 -117 151 -117 279c0 107 81 205 206 205c143 0 214 -129 214 -276
c0 -247 -200 -512 -446 -585z" />
    <glyph glyph-name="quotesingle" unicode="'" horiz-adv-x="706" 
d="M426 1545h-148c-86 519 -107 642 -107 697c0 109 84 183 181 183c83 0 182 -55 182 -185c0 -61 -22 -182 -108 -695z" />
    <glyph glyph-name="quotedbl" unicode="&#x22;" horiz-adv-x="1246" 
d="M1074 2240c0 -61 -22 -182 -108 -695h-148c-86 519 -107 642 -107 697c0 109 84 183 181 183c83 0 182 -55 182 -185zM426 1545h-148c-86 519 -107 642 -107 697c0 109 84 183 181 183c83 0 182 -55 182 -185c0 -61 -22 -182 -108 -695z" />
    <glyph glyph-name="guilsinglleft" unicode="&#x2039;" horiz-adv-x="1056" 
d="M604 178l-473 669l473 670h302l-429 -670l430 -669h-303z" />
    <glyph glyph-name="guilsinglright" unicode="&#x203a;" horiz-adv-x="1056" 
d="M149 178l430 669l-429 670h302l473 -670l-473 -669h-303z" />
    <glyph glyph-name="guillemotleft" unicode="&#xab;" horiz-adv-x="1720" 
d="M605 178l-474 669l474 670h302l-430 -670l430 -669h-302zM1268 178l-473 669l473 670h302l-429 -670l430 -669h-303z" />
    <glyph glyph-name="guillemotright" unicode="&#xbb;" horiz-adv-x="1720" 
d="M149 178l430 669l-429 670h302l473 -670l-473 -669h-303zM813 178l430 669l-430 670h302l474 -670l-474 -669h-302z" />
    <glyph glyph-name="hyphen" unicode="-" horiz-adv-x="1276" 
d="M208 750v261h860v-261h-860z" />
    <glyph glyph-name="endash" unicode="&#x2013;" horiz-adv-x="2035" 
d="M214 758v245h1607v-245h-1607z" />
    <glyph glyph-name="emdash" unicode="&#x2014;" horiz-adv-x="3588" 
d="M214 758v245h3160v-245h-3160z" />
    <glyph glyph-name="ellipsis" unicode="&#x2026;" horiz-adv-x="2920" 
d="M393 -33c-120 0 -216 96 -216 216s96 217 216 217s217 -97 217 -217s-97 -216 -217 -216zM1460 -33c-120 0 -216 96 -216 216s96 217 216 217c119 0 216 -97 216 -217s-97 -216 -216 -216zM2526 -33c-120 0 -216 96 -216 216s96 217 216 217s217 -97 217 -217
s-97 -216 -217 -216z" />
    <glyph glyph-name="parenleft" unicode="(" horiz-adv-x="945" 
d="M679 2422l175 -145c-335 -334 -396 -927 -396 -1351s61 -1017 396 -1350l-175 -144c-420 379 -532 937 -532 1494c0 558 112 1117 532 1496z" />
    <glyph glyph-name="parenright" unicode=")" horiz-adv-x="945" 
d="M266 -568l-175 144c335 333 396 926 396 1350s-61 1017 -396 1351l175 145c420 -379 532 -938 532 -1496c0 -557 -112 -1115 -532 -1494z" />
    <glyph glyph-name="bracketleft" unicode="[" horiz-adv-x="1033" 
d="M582 2164v-2469h342v-240h-627v2944h629v-235h-344z" />
    <glyph glyph-name="bracketright" unicode="]" horiz-adv-x="1033" 
d="M107 2164v235h629v-2944h-627v240h342v2469h-344z" />
    <glyph glyph-name="braceleft" unicode="{" horiz-adv-x="1040" 
d="M102 819v217c211 34 258 244 258 728c0 461 201 594 541 635l25 -216c-242 -37 -283 -227 -283 -468v-177c0 -216 -9 -515 -234 -611c213 -103 234 -401 234 -612v-176c0 -243 41 -432 283 -468l-25 -216c-340 40 -541 173 -541 635c0 484 -47 693 -258 729z" />
    <glyph glyph-name="braceright" unicode="}" horiz-adv-x="1040" 
d="M938 1036v-217c-211 -36 -258 -245 -258 -729c0 -462 -201 -595 -541 -635l-25 216c242 36 283 225 283 468v176c0 211 21 509 234 612c-225 96 -234 395 -234 611v177c0 241 -41 431 -283 468l25 216c340 -41 541 -174 541 -635c0 -484 47 -694 258 -728z" />
    <glyph glyph-name="periodcentered" unicode="&#xb7;" horiz-adv-x="838" 
d="M418 734c-120 0 -216 96 -216 216s96 217 216 217s217 -97 217 -217s-97 -216 -217 -216z" />
    <glyph glyph-name="asterisk" unicode="*" horiz-adv-x="1581" 
d="M1018 2376l192 -111l-229 -397h458v-217h-458l228 -399l-191 -106l-227 391l-226 -392l-194 109l229 397h-458v217h458l-230 397l195 111l226 -394z" />
    <glyph glyph-name="dagger" unicode="&#x2020;" horiz-adv-x="1775" 
d="M730 -424v1887h-625v260h625v649h303v-649h637v-260h-637v-1887h-303z" />
    <glyph glyph-name="daggerdbl" unicode="&#x2021;" horiz-adv-x="1837" 
d="M766 1798v574h302v-574h629v-260h-629v-558h629v-257h-629v-1147h-302v1147h-627v257h627v558h-627v260h627z" />
    <glyph glyph-name="section" unicode="&#xa7;" horiz-adv-x="1699" 
d="M1193 52c0 423 -1055 345 -1055 903c0 208 147 346 340 442c-162 91 -252 209 -252 402c0 371 335 552 690 552c222 0 404 -71 536 -167l-121 -200c-86 54 -233 118 -402 118c-157 0 -381 -55 -381 -268c0 -453 1014 -314 1014 -889c0 -189 -109 -338 -304 -445
c169 -87 255 -228 255 -408c0 -358 -338 -569 -721 -569c-288 0 -473 120 -608 218l142 194c137 -96 276 -158 454 -158c219 0 413 93 413 275zM750 707l281 -108c133 68 232 162 232 292c0 156 -142 234 -339 306l-244 89c-137 -70 -248 -136 -248 -283s110 -216 318 -296z
" />
    <glyph glyph-name="paragraph" unicode="&#xb6;" horiz-adv-x="2146" 
d="M1124 2101v-2626h-251v1485c-465 11 -769 285 -769 696c0 422 321 662 832 662h869v-2843h-250v2626h-431z" />
    <glyph glyph-name="bullet" unicode="&#x2022;" horiz-adv-x="1539" 
d="M769 563c-304 0 -550 246 -550 550s246 550 550 550s550 -246 550 -550s-246 -550 -550 -550z" />
    <glyph glyph-name="plus" unicode="+" horiz-adv-x="1874" 
d="M792 155v681h-673v279h673v677h287v-677h676v-279h-676v-681h-287z" />
    <glyph glyph-name="minus" unicode="&#x2212;" horiz-adv-x="2074" 
d="M219 834v279h1636v-279h-1636z" />
    <glyph glyph-name="multiply" unicode="&#xd7;" horiz-adv-x="1785" 
d="M356 240l-196 196l538 537l-538 538l199 196l536 -537l537 537l192 -195l-534 -536l537 -537l-195 -199l-539 538z" />
    <glyph glyph-name="divide" unicode="&#xf7;" horiz-adv-x="2006" 
d="M1003 81c-115 0 -208 93 -208 209s93 208 208 208s209 -92 209 -208s-94 -209 -209 -209zM1003 1451c-115 0 -208 93 -208 209c0 115 93 207 208 207s209 -92 209 -207c0 -116 -94 -209 -209 -209zM185 835v279h1636v-279h-1636z" />
    <glyph glyph-name="equal" unicode="=" horiz-adv-x="2074" 
d="M219 486v279h1636v-279h-1636zM219 1183v279h1636v-279h-1636z" />
    <glyph glyph-name="notequal" unicode="&#x2260;" horiz-adv-x="2009" 
d="M1208 1182l-184 -418h799v-279h-921l-232 -530h-224l232 530h-492v279h614l183 418h-797v279h919l233 531h225l-233 -531h493v-279h-615z" />
    <glyph glyph-name="approxequal" unicode="&#x2248;" horiz-adv-x="2120" 
d="M1435 1075c-318 0 -441 212 -749 212c-156 0 -346 -54 -464 -178v281c118 124 307 177 466 177c317 0 442 -211 749 -211c156 0 347 54 464 178v-282c-117 -124 -307 -177 -466 -177zM222 413v281c118 124 307 177 466 177c317 0 442 -211 749 -211c156 0 347 54 464 177
v-280c-117 -124 -307 -177 -466 -177c-318 0 -441 211 -749 211c-156 0 -346 -54 -464 -178z" />
    <glyph glyph-name="plusminus" unicode="&#xb1;" horiz-adv-x="2042" 
d="M873 492v583h-670v276h670v576h296v-576h670v-276h-670v-583h-296zM203 20v279h1636v-279h-1636z" />
    <glyph glyph-name="less" unicode="&#x3c;" horiz-adv-x="1979" 
d="M115 1106l1635 731v-299l-1273 -564l1273 -565v-299l-1635 731v265z" />
    <glyph glyph-name="greater" unicode="&#x3e;" horiz-adv-x="1979" 
d="M1502 974l-1273 564v299l1635 -731v-265l-1635 -731v299z" />
    <glyph glyph-name="lessequal" unicode="&#x2264;" horiz-adv-x="2053" 
d="M185 1325l1634 670v-297l-1256 -500l1256 -499v-297l-1634 670v253zM185 -48v280h1634v-280h-1634z" />
    <glyph glyph-name="greaterequal" unicode="&#x2265;" horiz-adv-x="2053" 
d="M1490 1198l-1256 500v297l1634 -670v-253l-1634 -670v297zM234 -48v280h1634v-280h-1634z" />
    <glyph glyph-name="fraction" unicode="&#x2044;" horiz-adv-x="633" 
d="M-506 -66l1381 2450h266l-1383 -2450h-264z" />
    <glyph glyph-name="logicalnot" unicode="&#xac;" horiz-adv-x="2065" 
d="M1530 316v710h-1336v279h1636v-989h-300z" />
    <glyph glyph-name="asciitilde" unicode="~" horiz-adv-x="2079" 
d="M492 779h-275c36 371 200 564 470 564c333 0 487 -295 703 -295c119 0 186 91 221 282h275c-37 -370 -200 -564 -471 -564c-333 0 -485 294 -702 294c-120 0 -187 -90 -221 -281z" />
    <glyph glyph-name="infinity" unicode="&#x221e;" horiz-adv-x="2704" 
d="M678 1532c196 0 394 -116 575 -337c204 252 383 460 679 460c370 0 595 -324 595 -680s-225 -682 -595 -682c-299 0 -479 213 -679 458c-174 -214 -374 -330 -573 -330c-303 0 -515 267 -515 553c0 288 214 558 513 558zM679 685c115 0 238 69 415 289
c-177 222 -300 293 -415 293c-144 0 -252 -110 -252 -293c0 -182 108 -289 252 -289zM1933 562c173 0 322 146 322 413c0 266 -149 413 -322 413c-214 0 -385 -225 -515 -414c130 -189 301 -412 515 -412z" />
    <glyph glyph-name="mu" unicode="&#xb5;" horiz-adv-x="1933" 
d="M1748 170v-203c-259 0 -350 171 -385 351h-2c-98 -234 -268 -351 -471 -351c-136 0 -244 53 -338 158v-810h-270v2315h271v-1008c0 -227 114 -402 340 -402c291 0 432 288 432 687v723h273v-1029c0 -219 0 -380 150 -431z" />
    <glyph glyph-name="pi" unicode="&#x3c0;" horiz-adv-x="2051" 
d="M1978 1630l-27 -242h-399c-32 -184 -47 -428 -47 -632c0 -369 113 -558 386 -558l-21 -231c-521 0 -630 294 -630 676c0 221 21 500 57 745h-538c-41 -663 -107 -1158 -178 -1388h-298c123 413 175 807 222 1387h-101c-116 0 -189 -19 -303 -73l-68 158
c102 105 257 158 469 158h1476z" />
    <glyph glyph-name="partialdiff" unicode="&#x2202;" horiz-adv-x="1754" 
d="M754 -33c-413 0 -613 323 -613 716c0 473 289 819 713 819c247 0 375 -118 447 -204c-9 593 -163 899 -532 899c-140 0 -245 -44 -356 -112l-58 190c129 92 296 156 492 156c528 0 755 -466 755 -1135c0 -785 -313 -1329 -848 -1329zM1283 1027
c-88 143 -207 248 -382 248c-293 0 -450 -292 -450 -599c0 -248 103 -490 336 -490c321 0 468 458 496 841z" />
    <glyph glyph-name="Delta" unicode="&#x2206;" horiz-adv-x="2142" 
d="M104 0v193l802 2125h346l785 -2119v-199h-1933zM433 251h1266l-630 1711z" />
    <glyph glyph-name="Omega" unicode="&#x2126;" horiz-adv-x="2468" 
d="M2305 0h-871v198c258 160 515 531 515 992c0 443 -237 901 -709 901c-438 0 -719 -395 -719 -886c0 -472 259 -846 516 -1007v-198h-875v259h450c-222 219 -402 560 -402 976c0 659 450 1116 1034 1116c619 0 1016 -514 1016 -1111c0 -406 -183 -769 -406 -981h451v-259z
" />
    <glyph glyph-name="summation" unicode="&#x2211;" horiz-adv-x="2067" 
d="M112 -448v207l940 1217l-900 1209v211h1737v-262h-1316l847 -1119l-912 -1178h1435v-285h-1831z" />
    <glyph glyph-name="product" unicode="&#x220f;" horiz-adv-x="2561" 
d="M491 -448v2570h-388v274h2355v-274h-384v-2570h-316v2570h-952v-2570h-315z" />
    <glyph glyph-name="integral" unicode="&#x222b;" horiz-adv-x="1359" 
d="M57 -281c48 -29 136 -63 223 -63c221 0 296 235 296 606c0 508 -57 1126 -57 1632c0 377 95 830 585 830c92 0 204 -42 255 -76l-63 -221c-45 32 -114 60 -180 60c-284 0 -308 -367 -308 -620c0 -534 60 -1066 60 -1620c0 -340 -111 -839 -565 -839
c-108 0 -245 45 -305 81z" />
    <glyph glyph-name="radical" unicode="&#x221a;" horiz-adv-x="1792" 
d="M1484 2841h265l-694 -3040h-279l-476 1384l-228 -90l-67 214l500 197l400 -1241z" />
    <glyph glyph-name="ampersand" unicode="&#x26;" horiz-adv-x="2162" 
d="M1787 0l-234 265c-192 -175 -424 -298 -678 -298c-389 0 -674 289 -674 658c0 319 213 512 441 671c-136 155 -241 352 -241 541c0 276 226 514 535 514c307 0 526 -235 526 -525c0 -262 -178 -426 -379 -569l480 -538c100 137 176 278 213 383l273 -109
c-60 -155 -158 -334 -286 -499l442 -494h-418zM689 1846c0 -133 108 -268 206 -379c158 111 281 223 281 376c0 137 -97 244 -236 244c-137 0 -251 -104 -251 -241zM1357 486l-527 597c-174 -126 -316 -260 -316 -460c0 -213 161 -361 371 -361c167 0 330 94 472 224z" />
    <glyph glyph-name="numbersign" unicode="#" horiz-adv-x="1880" 
d="M1323 683l-96 -683h-237l97 683h-407l-96 -683h-236l96 683h-322v231h355l70 493h-338v231h370l97 680h235l-96 -680h407l97 680h235l-96 -680h295v-231h-328l-69 -493h305v-231h-338zM782 1407l-69 -493h407l70 493h-408z" />
    <glyph glyph-name="percent" unicode="%" horiz-adv-x="2762" 
d="M628 966c-321 0 -512 240 -512 679c0 441 193 690 514 690s509 -248 509 -687s-187 -682 -511 -682zM629 1195c162 0 249 160 249 453s-88 456 -249 456s-251 -160 -251 -456c0 -293 88 -453 251 -453zM2135 -16c-321 0 -512 240 -512 679c0 441 193 690 514 690
s509 -248 509 -687s-187 -682 -511 -682zM2136 213c162 0 249 160 249 453s-88 456 -249 456s-251 -160 -251 -456c0 -293 88 -453 251 -453zM558 -66l1381 2450h266l-1383 -2450h-264z" />
    <glyph glyph-name="perthousand" unicode="&#x2030;" horiz-adv-x="3950" 
d="M628 966c-321 0 -512 240 -512 679c0 441 193 690 514 690s509 -248 509 -687s-187 -682 -511 -682zM629 1195c162 0 249 160 249 453s-88 456 -249 456s-251 -160 -251 -456c0 -293 88 -453 251 -453zM2136 -16c-321 0 -512 240 -512 679c0 441 193 690 514 690
s509 -248 509 -687s-187 -682 -511 -682zM2137 213c162 0 249 160 249 453s-88 456 -249 456s-251 -160 -251 -456c0 -293 88 -453 251 -453zM3325 -16c-321 0 -512 240 -512 679c0 441 193 690 514 690s509 -248 509 -687s-187 -682 -511 -682zM3326 213
c162 0 249 160 249 453s-88 456 -249 456s-251 -160 -251 -456c0 -293 88 -453 251 -453zM558 -66l1381 2450h266l-1383 -2450h-264z" />
    <glyph glyph-name="at" unicode="@" horiz-adv-x="2769" 
d="M1996 360c207 0 324 306 324 611c0 518 -342 895 -881 895c-611 0 -1018 -484 -1018 -1108c0 -586 360 -1003 945 -1003c141 0 310 28 451 85l57 -226c-175 -71 -370 -97 -524 -97c-726 0 -1204 511 -1204 1229c0 729 496 1367 1291 1367c682 0 1158 -470 1158 -1115
c0 -473 -258 -880 -654 -880c-191 0 -318 94 -344 289c-123 -207 -283 -289 -443 -289c-278 0 -409 241 -409 525c0 430 301 828 799 828c144 0 307 -38 422 -82c-75 -433 -113 -670 -113 -806c0 -130 35 -223 143 -223zM1048 661c0 -147 55 -279 183 -279
c172 0 293 224 353 453c34 131 50 269 58 374c-44 11 -91 15 -121 15c-276 0 -473 -282 -473 -563z" />
    <glyph glyph-name="underscore" unicode="_" horiz-adv-x="2104" 
d="M207 -468v167h1690v-167h-1690z" />
    <glyph glyph-name="slash" unicode="/" horiz-adv-x="1419" 
d="M103 -267l940 2666h278l-941 -2666h-277z" />
    <glyph glyph-name="backslash" unicode="\" horiz-adv-x="1419" 
d="M1039 -267l-941 2666h278l940 -2666h-277z" />
    <glyph glyph-name="bar" unicode="|" horiz-adv-x="855" 
d="M294 -685v3077h267v-3077h-267z" />
    <glyph glyph-name="brokenbar" unicode="&#xa6;" horiz-adv-x="721" 
d="M227 -506v1062h267v-1062h-267zM227 1152v1061h267v-1061h-267z" />
    <glyph glyph-name="asciicircum" unicode="^" horiz-adv-x="1671" 
d="M976 2318l560 -1268h-290l-410 927l-412 -927h-290l561 1268h281z" />
    <glyph glyph-name="uni2190" unicode="&#x2190;" horiz-adv-x="2485" 
d="M2266 835h-1532l541 -656h-316l-740 795l740 795h316l-541 -655h1532v-279z" />
    <glyph glyph-name="uni2191" unicode="&#x2191;" horiz-adv-x="2028" 
d="M1809 942l-655 540v-1532h-280v1532l-655 -540v316l795 739l795 -739v-316z" />
    <glyph glyph-name="uni2192" unicode="&#x2192;" horiz-adv-x="2485" 
d="M1526 1769l740 -795l-740 -795h-316l541 656h-1532v279h1532l-541 655h316z" />
    <glyph glyph-name="uni2193" unicode="&#x2193;" horiz-adv-x="2029" 
d="M1155 465l655 541v-316l-795 -740l-796 740v316l656 -541v1532h280v-1532z" />
    <glyph glyph-name="uni2196" unicode="&#x2196;" horiz-adv-x="2023" 
d="M1607 152l-1083 1083l-82 -846l-223 223l39 1086l1085 39l224 -224l-846 -80l1083 -1084z" />
    <glyph glyph-name="uni2197" unicode="&#x2197;" horiz-adv-x="2024" 
d="M1582 389l-81 845l-1084 -1083l-198 198l1084 1083l-845 81l223 224l1085 -40l39 -1084z" />
    <glyph glyph-name="uni2198" unicode="&#x2198;" horiz-adv-x="2023" 
d="M1804 1336l-39 -1086l-1085 -39l-224 224l847 81l-1084 1083l198 198l1083 -1084l81 846z" />
    <glyph glyph-name="uni2199" unicode="&#x2199;" horiz-adv-x="2024" 
d="M721 515l846 -81l-223 -223l-1086 38l-39 1087l223 223l81 -846l1084 1083l198 -198z" />
    <glyph glyph-name="copyright" unicode="&#xa9;" horiz-adv-x="2684" 
d="M1707 914h223c-28 -291 -273 -476 -578 -476c-409 0 -610 332 -610 708c0 386 211 734 615 734c253 0 532 -137 573 -436h-223c-24 158 -174 247 -336 247c-239 0 -393 -192 -393 -531c0 -330 146 -523 380 -523c172 0 319 104 349 277zM150 1163
c0 662 530 1188 1192 1188s1192 -526 1192 -1188c0 -663 -530 -1196 -1192 -1196s-1192 533 -1192 1196zM2327 1161c0 562 -432 994 -985 994s-985 -432 -985 -994c0 -563 432 -999 985 -999s985 436 985 999z" />
    <glyph glyph-name="registered" unicode="&#xae;" horiz-adv-x="1770" 
d="M1064 1197l-165 343h-134v-343h-167v853h305c239 0 335 -92 335 -249c0 -117 -53 -202 -167 -236l181 -368h-188zM885 867c-412 0 -742 330 -742 743s330 741 742 741c413 0 742 -328 742 -741s-329 -743 -742 -743zM886 1019c326 0 582 256 582 590
c0 333 -256 588 -582 588s-583 -256 -583 -588c0 -333 257 -590 583 -590zM765 1682h122c129 0 187 35 187 115c0 82 -62 111 -192 111h-117v-226z" />
    <glyph glyph-name="trademark" unicode="&#x2122;" horiz-adv-x="3178" 
d="M1410 2318h331l430 -1042l422 1042h328v-1397h-222v1111h-2l-458 -1111h-148l-456 1111h-2v-1111h-223v1397zM1210 2318v-192h-438v-1205h-221v1205h-439v192h1098z" />
    <glyph glyph-name="uni2113" unicode="&#x2113;" horiz-adv-x="1591" 
d="M156 535l-83 166l294 204c0 789 42 1503 580 1503c298 0 414 -220 414 -468c0 -410 -317 -776 -698 -1090c31 -426 113 -666 371 -666c142 0 233 72 369 209l115 -130c-144 -195 -329 -296 -545 -296c-393 0 -546 333 -593 705zM659 1133c286 278 453 517 453 808
c0 128 -32 267 -167 267c-309 0 -275 -732 -286 -1075z" />
    <glyph glyph-name="degree" unicode="&#xb0;" horiz-adv-x="1262" 
d="M632 1374c-270 0 -489 219 -489 489c0 269 219 488 489 488c269 0 489 -219 489 -488c0 -270 -220 -489 -489 -489zM632 1572c162 0 291 128 291 290s-129 291 -291 291s-291 -129 -291 -291s129 -290 291 -290z" />
    <glyph glyph-name="estimated" unicode="&#x212e;" horiz-adv-x="2696" 
d="M2215 484h205c-251 -307 -574 -517 -1049 -517c-718 0 -1206 469 -1206 1090c0 577 464 1089 1206 1089c757 0 1154 -469 1210 -1089h-1889v-738c183 -154 409 -234 679 -234c355 0 635 132 844 399zM692 1174h1361v617c-198 157 -420 238 -682 238
c-265 0 -496 -81 -679 -238v-617z" />
    <glyph glyph-name="lozenge" unicode="&#x25ca;" horiz-adv-x="1768" 
d="M751 -84l-638 1245l638 1241h267l637 -1241l-637 -1245h-267zM885 213l468 948l-468 951l-468 -951z" />
    <glyph glyph-name="dieresis" unicode="&#xa8;" horiz-adv-x="1372" 
d="M381 1921c-105 0 -190 81 -190 187s85 188 190 188c106 0 185 -82 185 -188s-79 -187 -185 -187zM994 1921c-105 0 -188 81 -188 187s83 188 188 188c106 0 186 -82 186 -188s-80 -187 -186 -187z" />
    <glyph glyph-name="acute" unicode="&#xb4;" horiz-adv-x="757" 
d="M88 1878l303 509h381l-412 -509h-272z" />
    <glyph glyph-name="grave" unicode="`" horiz-adv-x="757" 
d="M397 1878l-412 509h381l303 -509h-272z" />
    <glyph glyph-name="circumflex" unicode="&#x2c6;" horiz-adv-x="1141" 
d="M682 2387l359 -509h-267l-203 307l-207 -307h-264l353 509h229z" />
    <glyph glyph-name="caron" unicode="&#x2c7;" horiz-adv-x="1027" 
d="M310 2387l203 -307l207 307h264l-353 -509h-229l-359 509h267z" />
    <glyph glyph-name="breve" unicode="&#x2d8;" horiz-adv-x="1090" 
d="M775 2352h204c-20 -242 -151 -438 -435 -438c-282 0 -413 196 -433 438h203c17 -118 91 -225 230 -225c140 0 214 107 231 225z" />
    <glyph glyph-name="tilde" unicode="&#x2dc;" horiz-adv-x="1220" 
d="M362 1935h-195c23 255 137 380 278 380c174 0 219 -175 311 -175c50 0 86 49 104 167h193c-22 -256 -136 -381 -277 -381c-175 0 -218 176 -310 176c-53 0 -87 -54 -104 -167z" />
    <glyph glyph-name="hungarumlaut" unicode="&#x2dd;" horiz-adv-x="1276" 
d="M88 1867l288 508h369l-395 -508h-262zM634 1867l287 508h370l-395 -508h-262z" />
    <glyph glyph-name="ring" unicode="&#x2da;" horiz-adv-x="952" 
d="M476 1828c-186 0 -338 152 -338 338c0 187 152 339 338 339c187 0 338 -152 338 -339c0 -186 -151 -338 -338 -338zM476 1984c101 0 183 81 183 182s-82 183 -183 183c-100 0 -182 -82 -182 -183s82 -182 182 -182z" />
    <glyph glyph-name="dotaccent" unicode="&#x2d9;" horiz-adv-x="697" 
d="M350 1932c-110 0 -196 85 -196 195s86 196 196 196s193 -86 193 -196s-83 -195 -193 -195z" />
    <glyph glyph-name="macron" unicode="&#xaf;" horiz-adv-x="1422" 
d="M226 1987v229h971v-229h-971z" />
    <glyph glyph-name="cedilla" unicode="&#xb8;" horiz-adv-x="734" 
d="M301 0h206l-116 -181c129 -11 257 -85 257 -241c0 -190 -179 -271 -365 -271c-97 0 -194 24 -265 65l56 148c71 -34 146 -51 201 -51c66 0 138 26 138 100c0 115 -186 144 -282 144z" />
    <glyph glyph-name="ogonek" unicode="&#x2db;" horiz-adv-x="722" 
d="M316 0h198c-72 -72 -203 -212 -203 -349c0 -85 49 -150 147 -150c61 0 120 20 161 48l56 -143c-75 -61 -185 -99 -287 -99c-172 0 -310 103 -310 276c0 166 132 325 238 417z" />
    <glyph glyph-name="space" unicode=" " horiz-adv-x="850" 
 />
    <glyph glyph-name="uni200A" unicode="&#x200a;" horiz-adv-x="73" 
 />
    <glyph glyph-name="parenleft.case" horiz-adv-x="970" 
d="M686 2654l175 -145c-335 -334 -396 -927 -396 -1351s61 -1017 396 -1350l-175 -144c-420 379 -532 937 -532 1494c0 558 112 1117 532 1496z" />
    <glyph glyph-name="parenright.case" horiz-adv-x="970" 
d="M284 -336l-175 144c335 333 396 926 396 1350s-61 1017 -396 1351l175 145c420 -379 532 -938 532 -1496c0 -557 -112 -1115 -532 -1494z" />
    <glyph glyph-name="bracketleft.case" horiz-adv-x="1066" 
d="M601 2396v-2469h342v-240h-627v2944h629v-235h-344z" />
    <glyph glyph-name="bracketright.case" horiz-adv-x="1066" 
d="M121 2396v235h629v-2944h-627v240h342v2469h-344z" />
    <glyph glyph-name="braceleft.case" horiz-adv-x="1063" 
d="M108 1051v217c211 34 258 244 258 728c0 461 201 594 541 635l25 -216c-242 -37 -283 -227 -283 -468v-177c0 -216 -9 -515 -234 -611c213 -103 234 -401 234 -612v-176c0 -243 41 -432 283 -468l-25 -216c-340 40 -541 173 -541 635c0 484 -47 693 -258 729z" />
    <glyph glyph-name="braceright.case" horiz-adv-x="1063" 
d="M955 1268v-217c-211 -36 -258 -245 -258 -729c0 -462 -201 -595 -541 -635l-25 216c242 36 283 225 283 468v176c0 211 21 509 234 612c-225 96 -234 395 -234 611v177c0 241 -41 431 -283 468l25 216c340 -41 541 -174 541 -635c0 -484 47 -694 258 -728z" />
    <glyph glyph-name="questiondown.case" horiz-adv-x="1658" 
d="M770 1615h282c0 -733 -595 -610 -595 -1021c0 -221 171 -341 411 -341c206 0 378 89 488 222l201 -187c-141 -197 -384 -338 -695 -338c-392 0 -734 224 -734 648c0 582 642 510 642 1017zM694 2118c0 120 97 216 217 216s216 -96 216 -216s-96 -217 -216 -217
s-217 97 -217 217z" />
    <glyph glyph-name="exclamdown.case" horiz-adv-x="974" 
d="M487 1901c-120 0 -217 97 -217 217s97 216 217 216s216 -96 216 -216s-96 -217 -216 -217zM310 -17l41 1632h272l41 -1632h-354z" />
    <glyph glyph-name="at.case" horiz-adv-x="2717" 
d="M2003 704c207 0 324 306 324 611c0 518 -342 895 -881 895c-611 0 -1018 -484 -1018 -1108c0 -586 360 -1003 945 -1003c141 0 310 28 451 85l57 -226c-175 -71 -370 -97 -524 -97c-726 0 -1204 511 -1204 1229c0 729 496 1367 1291 1367c682 0 1158 -470 1158 -1115
c0 -473 -258 -880 -654 -880c-191 0 -318 94 -344 289c-123 -207 -283 -289 -443 -289c-278 0 -409 241 -409 525c0 430 301 828 799 828c144 0 307 -38 422 -82c-75 -433 -113 -670 -113 -806c0 -130 35 -223 143 -223zM1055 1005c0 -147 55 -279 183 -279
c172 0 293 224 353 453c34 131 50 269 58 374c-44 11 -91 15 -121 15c-276 0 -473 -282 -473 -563z" />
    <glyph glyph-name="guilsinglleft.case" horiz-adv-x="1178" 
d="M656 489l-473 669l473 670h302l-429 -670l430 -669h-303z" />
    <glyph glyph-name="guilsinglright.case" horiz-adv-x="1178" 
d="M219 489l430 669l-429 670h302l473 -670l-473 -669h-303z" />
    <glyph glyph-name="guillemotleft.case" horiz-adv-x="1842" 
d="M657 489l-474 669l474 670h302l-430 -670l430 -669h-302zM1320 489l-473 669l473 670h302l-429 -670l430 -669h-303z" />
    <glyph glyph-name="guillemotright.case" horiz-adv-x="1842" 
d="M219 489l430 669l-429 670h302l473 -670l-473 -669h-303zM883 489l430 669l-430 670h302l474 -670l-474 -669h-302z" />
    <glyph glyph-name="hyphen.case" horiz-adv-x="1298" 
d="M219 1028v261h860v-261h-860z" />
    <glyph glyph-name="endash.case" horiz-adv-x="2045" 
d="M219 1036v245h1607v-245h-1607z" />
    <glyph glyph-name="emdash.case" horiz-adv-x="3598" 
d="M219 1036v245h3160v-245h-3160z" />
    <glyph glyph-name="periodcentered.case" horiz-adv-x="872" 
d="M435 942c-120 0 -216 96 -216 216s96 217 216 217s217 -97 217 -217s-97 -216 -217 -216z" />
    <glyph glyph-name="uni21E8" unicode="&#x21e8;" horiz-adv-x="2647" 
d="M189 523v902h1352v551l1036 -1002l-1036 -1003v552h-1352zM1704 1587v-325h-1355v-577h1355v-324l644 613z" />
    <glyph glyph-name="uni03BC" unicode="&#x3bc;" horiz-adv-x="1933" 
d="M1748 170v-203c-259 0 -350 171 -385 351h-2c-98 -234 -268 -351 -471 -351c-136 0 -244 53 -338 158v-810h-270v2315h271v-1008c0 -227 114 -402 340 -402c291 0 432 288 432 687v723h273v-1029c0 -219 0 -380 150 -431z" />
    <glyph glyph-name="uni03A9" unicode="&#x3a9;" horiz-adv-x="2468" 
d="M2305 0h-871v198c258 160 515 531 515 992c0 443 -237 901 -709 901c-438 0 -719 -395 -719 -886c0 -472 259 -846 516 -1007v-198h-875v259h450c-222 219 -402 560 -402 976c0 659 450 1116 1034 1116c619 0 1016 -514 1016 -1111c0 -406 -183 -769 -406 -981h451v-259z
" />
    <glyph glyph-name="uni021A" unicode="&#x21a;" horiz-adv-x="1912" 
d="M743 -744c65 35 155 89 155 175s-89 115 -89 213c0 82 61 156 157 156c109 0 164 -98 164 -211c0 -189 -154 -390 -342 -446zM1847 2028h-727v-2028h-329v2028h-726v290h1782v-290z" />
    <glyph glyph-name="uni021B" unicode="&#x21b;" horiz-adv-x="1145" 
d="M51 1354v276h295v508l318 63v-571h414v-276h-414v-720c0 -309 135 -359 363 -406l-39 -261c-319 0 -642 158 -642 556v831h-295zM476 -720c65 35 155 89 155 175s-89 115 -89 213c0 82 61 156 157 156c109 0 164 -98 164 -211c0 -189 -154 -390 -342 -446z" />
    <glyph glyph-name="uni2215" unicode="&#x2215;" horiz-adv-x="633" 
d="M-506 -66l1381 2450h266l-1383 -2450h-264z" />
    <glyph glyph-name="uni2219" unicode="&#x2219;" horiz-adv-x="838" 
d="M418 734c-120 0 -216 96 -216 216s96 217 216 217s217 -97 217 -217s-97 -216 -217 -216z" />
    <glyph glyph-name="uni00AD" unicode="&#xad;" horiz-adv-x="1276" 
d="M208 750v261h860v-261h-860z" />
    <glyph glyph-name="uni2010" unicode="&#x2010;" horiz-adv-x="1276" 
d="M208 750v261h860v-261h-860z" />
    <glyph glyph-name="uni02C9" unicode="&#x2c9;" horiz-adv-x="1422" 
d="M226 1987v229h971v-229h-971z" />
    <glyph glyph-name="i.trk" horiz-adv-x="777" 
d="M389 1954c-116 0 -210 94 -210 210s94 210 210 210s210 -94 210 -210s-94 -210 -210 -210zM229 0v1630h319v-1630h-319z" />
    <glyph glyph-name="fi" unicode="&#xfb01;" horiz-adv-x="1921" 
d="M61 1354v276h298v243c0 358 208 552 567 552c78 0 150 -9 219 -22l-39 -264c-48 7 -97 13 -148 13c-221 0 -279 -111 -279 -332v-190h427v-276h-427v-1354h-320v1354h-298zM1323 2164c0 116 94 210 210 210s210 -94 210 -210s-94 -210 -210 -210s-210 94 -210 210z
M1373 1630h319v-1630h-319v1630z" />
    <glyph glyph-name="fl" unicode="&#xfb02;" horiz-adv-x="1939" 
d="M61 1354v276h298v243c0 358 208 552 567 552c78 0 150 -9 219 -22l-39 -264c-48 7 -97 13 -148 13c-221 0 -279 -111 -279 -332v-190h427v-276h-427v-1354h-320v1354h-298zM1685 2425v-1968c0 -123 22 -188 114 -235l-42 -255c-204 0 -390 120 -390 376v2019z" />
    <glyph glyph-name="uni00A0" unicode="&#xa0;" horiz-adv-x="850" 
 />
    </font>
</defs>
</svg>
